<?xml version="1.0" encoding="UTF-8"?>
<svg width="64px" height="64px" viewBox="0 0 64 64" version="1.1" xmlns="http://www.w3.org/2000/svg" xmlns:xlink="http://www.w3.org/1999/xlink">
    <title>形状结合</title>
    <g id="页面-1" stroke="none" stroke-width="1" fill="none" fill-rule="evenodd">
        <g id="3、电站监控-浅色" transform="translate(-264.000000, -797.000000)" fill="#69CB38" fill-rule="nonzero">
            <g id="编组-15" transform="translate(224.000000, 134.000000)">
                <g id="编组-12" transform="translate(16.000000, 492.000000)">
                    <g id="编组-10" transform="translate(0.000000, 142.000000)">
                        <g id="编组-2" transform="translate(24.000000, 22.000000)">
                            <path d="M32,7 C49.673112,7 64,21.326888 64,39 C63.9795745,56.6646446 49.6646446,70.9795745 32,71 C14.326888,71 0,56.673112 0,39 C0,21.326888 14.326888,7 32,7 Z M32,10.7559846 C20.5733014,10.7559846 10.2718653,17.639592 5.89963434,28.1967241 C1.52740342,38.7538562 3.94550251,50.9052525 12.0262821,58.9842649 C20.1070616,67.0632774 32.2589864,69.478719 42.8151621,65.1041793 C53.3713377,60.7296397 60.2526918,50.4266983 60.2501937,39 C60.2297663,23.4073185 47.5926856,10.7730012 32,10.7559846 Z M39.9999813,28 C41.7648049,28 43.2000037,29.4095699 43.2000037,31.1428782 L43.2000037,46.8571218 C43.2000037,48.5904301 41.7648049,50 39.9999813,50 L19.2000225,50 C17.4351989,50 16,48.5904301 16,46.8571218 L16,31.1428782 C16,29.4095699 17.4351989,28 19.2000225,28 L39.9999813,28 Z M39.9999813,31.1428782 L19.19841,31.1428782 L19.2000225,46.8571218 L39.9999813,46.8571218 L39.9999813,31.1428782 Z M31.11527,33.1476346 C31.7571816,33.7308361 31.8034719,34.7121523 31.2192131,35.3511469 L29.2623896,37.4285609 L33.6000112,37.4285609 C34.2368366,37.4272655 34.8136871,37.7973675 35.0683513,38.3706346 C35.3230155,38.9439017 35.2068998,39.610946 34.7727853,40.068558 L30.3296013,44.7828384 C30.0270019,45.104435 29.6010674,45.2868233 29.1552147,45.2857245 C28.5187918,45.2862108 27.9425835,44.9162099 27.68778,44.3434351 C27.4329764,43.7706602 27.5480311,43.1040301 27.9807906,42.6457225 L29.9376141,40.5714391 L25.5999925,40.5714391 C24.9642744,40.5704772 24.3893124,40.2003334 24.1347976,39.6281895 C23.8802829,39.0560455 23.9943999,38.3902192 24.4256059,37.931442 L28.8704024,33.2171616 C29.473625,32.5953963 30.4733584,32.564433 31.11527,33.1476346 Z M46.3999888,34.2857195 C47.2836506,34.2857195 48,34.9892768 48,35.8571586 L48,42.1428414 C48,43.0107232 47.2836506,43.7142805 46.3999888,43.7142805 C45.5163269,43.7142805 44.7999775,43.0107232 44.7999775,42.1428414 L44.7999775,35.8571586 C44.7999775,34.9892768 45.5163269,34.2857195 46.3999888,34.2857195 Z" id="形状结合"></path>
                        </g>
                    </g>
                </g>
            </g>
        </g>
    </g>
</svg>