<?xml version="1.0" encoding="UTF-8"?>
<svg width="64px" height="64px" viewBox="0 0 64 64" version="1.1" xmlns="http://www.w3.org/2000/svg" xmlns:xlink="http://www.w3.org/1999/xlink">
    <title>形状结合</title>
    <g id="页面-1" stroke="none" stroke-width="1" fill="none" fill-rule="evenodd" fill-opacity="0.85">
        <g id="3、电站监控-浅色" transform="translate(-264.000000, -939.000000)" fill="#3D7EFF" fill-rule="nonzero">
            <g id="编组-15" transform="translate(224.000000, 134.000000)">
                <g id="编组-12" transform="translate(16.000000, 492.000000)">
                    <g id="编组-10" transform="translate(0.000000, 284.000000)">
                        <g id="编组-2" transform="translate(24.000000, 22.000000)">
                            <path d="M32,7 C49.673112,7 64,21.326888 64,39 C63.9795745,56.6646446 49.6646446,70.9795745 32,71 C14.326888,71 0,56.673112 0,39 C0,21.326888 14.326888,7 32,7 Z M32,10.7559846 C20.5733014,10.7559846 10.2718653,17.639592 5.89963434,28.1967241 C1.52740342,38.7538562 3.94550251,50.9052525 12.0262821,58.9842649 C20.1070616,67.0632774 32.2589864,69.478719 42.8151621,65.1041793 C53.3713377,60.7296397 60.2526918,50.4266983 60.2501937,39 C60.2297663,23.4073185 47.5926856,10.7730012 32,10.7559846 Z M42.1573644,23 C44.2797117,23.00041 46,24.7481849 46,26.9040326 L46,47.983433 C46,49.0186499 45.5951521,50.011467 44.8745181,50.7434759 C44.1538842,51.4754848 43.1764947,51.8867232 42.1573644,51.8867232 L40.7502741,51.8867232 L40.7502741,52.9262145 C40.7502741,54.0715346 39.8362366,55 38.7087141,55 L25.2912859,55 C24.7497711,55 24.2303796,54.7817727 23.8474707,54.3928198 C23.4645619,54.0038669 23.2495319,53.476277 23.2497259,52.9262145 L23.2497259,51.8867232 L21.8426356,51.8867232 C19.7205737,51.8863133 18.0004035,50.1389908 18,47.983433 L18,26.9040326 C18,24.7481849 19.7202883,23.00041 21.8426356,23 L42.1573644,23 Z M42.1573644,25.6662954 L21.8426356,25.6662954 C21.5195355,25.6662954 21.2096795,25.7967231 20.9812818,26.0288652 C20.7528841,26.2610074 20.6248627,26.5758326 20.6248627,26.9040326 L20.6248627,47.983433 C20.6248627,48.3115044 20.7531636,48.6261388 20.9815403,48.8581204 C21.2099169,49.0901019 21.5196622,49.2204278 21.8426356,49.2204278 L42.1573644,49.2204278 C42.4803378,49.2204278 42.7900831,49.0901019 43.0184597,48.8581204 C43.2468364,48.6261388 43.3751373,48.3115044 43.3751373,47.983433 L43.3751373,26.9040326 C43.3751373,26.5758326 43.2471159,26.2610074 43.0187182,26.0288652 C42.7903205,25.7967231 42.4804645,25.6662954 42.1573644,25.6662954 Z M29.2114029,34.6148313 L32.3669399,40.862917 L34.7279278,36.6522344 L36.4091265,40.084041 L41.6778572,40.084041 L41.6778572,41.8615712 L35.3258497,41.8615712 L34.6219391,40.4270731 L32.28288,44.597661 L28.976,38.052 L27.051428,40.8406422 L23.1919804,40.8406422 L23.1919804,39.0586569 L26.1413878,39.0586569 L29.2114029,34.6148313 Z M35.619694,29.2220984 L34.2981256,31.2743515 L36.8126142,31.2743515 L32.7243774,35.8882082 L34.2133347,32.6850898 L32.4371117,32.6850898 L33.6885083,29.2220984 L35.619694,29.2220984 Z" id="形状结合"></path>
                        </g>
                    </g>
                </g>
            </g>
        </g>
    </g>
</svg>