<?xml version="1.0" encoding="UTF-8"?>
<svg width="111px" height="111px" viewBox="0 0 111 111" version="1.1" xmlns="http://www.w3.org/2000/svg" xmlns:xlink="http://www.w3.org/1999/xlink">
    <title>编组 23</title>
    <g id="页面-1" stroke="none" stroke-width="1" fill="none" fill-rule="evenodd">
        <g id="2、集中监控-浅色" transform="translate(-1593.000000, -265.000000)" fill="#000000" fill-rule="nonzero">
            <g id="编组-14" transform="translate(1408.000000, 130.000000)">
                <g id="编组-12" transform="translate(16.000000, 87.410493)">
                    <g id="编组-22" transform="translate(0.000000, 1.589507)">
                        <g id="编组-23" transform="translate(169.000000, 46.000000)">
                            <g id="zanwutupian-4" transform="translate(13.875000, 27.750000)">
                                <path d="M52.6084285,6.66140194 L20.1552645,6.66140194 C18.9305749,6.65630981 17.754563,7.14054534 16.8885691,8.00653927 C16.0225751,8.8725332 15.5383396,10.0485451 15.5434317,11.2732347 L15.5434317,43.7267189 C15.5383396,44.9514085 16.0225751,46.1274204 16.888569,46.9934143 C17.754563,47.8594083 18.9305749,48.3436438 20.1552645,48.3385517 L52.6084285,48.3385517 C53.8331182,48.3436438 55.0091301,47.8594083 55.875124,46.9934143 C56.741118,46.1274204 57.2253535,44.9514085 57.2202613,43.7267189 L57.2202613,11.2732347 C57.2253535,10.0485451 56.7411179,8.87253318 55.875124,8.00653925 C55.00913,7.14054531 53.8331181,6.65630979 52.6084285,6.66140194 L52.6084285,6.66140194 Z M27.8416918,17.593122 C29.8910217,17.593122 31.5991166,19.301217 31.5991166,21.351187 C31.5991166,23.4005169 29.8910217,25.1086118 27.8413717,25.1086118 C25.7917217,25.1086118 24.0836268,23.4005169 24.0836268,21.3508669 C24.0836268,19.301217 25.7917217,17.593122 27.8416918,17.593122 L27.8416918,17.593122 Z M20.1552645,41.3351938 L28.3538642,30.9160067 L34.161259,37.919324 L42.3601789,27.4998167 L52.7793661,41.3351938 L20.1552645,41.3351938 L20.1552645,41.3351938 Z" id="形状" fill-opacity="0.05"></path>
                                <path d="M61.8320133,12.4691155 L29.3788492,12.4691155 C28.1541042,12.4639391 26.9780098,12.9481369 26.1119464,13.8141401 C25.245883,14.6801434 24.7616036,15.8562043 24.7666963,17.0809496 L24.7666963,49.5341137 C24.7616042,50.7588034 25.2458397,51.9348152 26.1118337,52.8008092 C26.9778276,53.6668031 28.1538395,54.1510386 29.3785291,54.1459465 L61.8320133,54.1459465 C63.0567029,54.1510386 64.2327148,53.6668031 65.0987087,52.8008092 C65.9647027,51.9348152 66.4489382,50.7588033 66.4438461,49.5341137 L66.4438461,17.0809496 C66.4489382,15.85626 65.9647027,14.6802481 65.0987087,13.8142542 C64.2327148,12.9482603 63.0567029,12.4640247 61.8320133,12.4691155 L61.8320133,12.4691155 Z M37.0649565,23.400837 C39.1146064,23.400837 40.8227013,25.108932 40.8227013,27.1585819 C40.8227013,29.2082318 39.1146064,30.9163268 37.0649565,30.9163268 C35.0153065,30.9163268 33.3072116,29.2082318 33.3072116,27.1582617 C33.3072116,25.1089319 35.0153065,23.400837 37.0649565,23.400837 L37.0649565,23.400837 Z M29.3788492,47.1429088 L37.577449,36.7237216 L43.3848438,43.7267189 L51.5837636,33.3075317 L62.0029508,47.1429088 L29.3788492,47.1429088 L29.3788492,47.1429088 Z" id="形状" fill-opacity="0.25"></path>
                                <path d="M9.39452229,41.5061314 L6.49050477,41.5061314 L6.49050477,38.602434 C6.49050477,37.9190039 5.97833238,37.4065114 5.29490231,37.4065114 C4.61179237,37.4065114 4.09929986,37.9190039 4.09929986,38.602434 L4.09929986,41.5061314 L1.19592257,41.5061314 C0.512492504,41.5061314 0,42.0183038 0,42.7017339 C0,43.3848438 0.51217239,43.8973363 1.19560245,43.8973363 L4.09929986,43.8973363 L4.09929986,46.8010337 C4.09929986,47.4841437 4.61179237,47.9966362 5.29490231,47.9966362 C5.97833238,47.9966362 6.49050477,47.4841437 6.49050477,46.8010337 L6.49050477,43.8973363 L9.39452229,43.8973363 C10.0776322,43.8973363 10.5901247,43.3848438 10.5901247,42.7017339 C10.5901247,42.0183038 10.0776322,41.5061314 9.39452229,41.5061314 Z M5.2945822,22.8880244 L11.7854071,22.8880244 L11.7854071,29.3788493 L5.2945822,29.3788493 L5.2945822,22.8880244 Z M68.1519006,4.95334737 C68.1519006,6.83237988 69.6893782,8.19859972 71.3971531,8.19859972 C73.2761856,8.19859972 74.6427255,6.66144232 74.6427255,4.95334737 C74.6427255,3.07431485 73.105248,1.70809496 71.3971531,1.70809496 C69.5184407,1.70809496 68.1519006,3.07431485 68.1519006,4.95334737 Z" id="形状" fill-opacity="0.05"></path>
                                <path d="M83.0119427,42.0183038 L78.0585953,37.0649565 C77.7170404,36.7234015 77.2045478,36.7234015 76.8629929,37.0649565 L71.738708,42.0183038 C71.3971531,42.3601789 71.3971531,42.8723513 71.738708,43.2142264 L76.6920554,48.1675737 C77.0339304,48.5091287 77.5461029,48.5091287 77.8879779,48.1675737 L82.8413252,43.2142264 C83.3534976,42.8723513 83.3534976,42.3601789 83.0119427,42.0183038 L83.0119427,42.0183038 Z M77.3754854,46.2885412 L73.6177405,42.7017339 L77.3754854,38.9439889 L81.1332303,42.7017339 L77.3754854,46.2885412 Z M16.0556445,0.683109948 C15.7140896,0.341555002 15.3725346,0 14.860042,0 L2.3912049,0 C1.87903251,0 1.5371574,0.341554946 1.19560245,0.683109948 C1.02466489,1.19528234 1.19560245,1.70809496 1.5371574,2.04964996 L7.85704478,8.36953728 C8.02766222,8.54015472 8.36921717,8.71109223 8.71109223,8.71109223 C9.05264717,8.71109223 9.22326462,8.54015467 9.39420217,8.19891984 L15.7140896,1.87839229 C16.0556445,1.70777484 16.0556445,1.19528234 16.0556445,0.682789834 L16.0556445,0.683109948 Z M8.71109223,5.80739482 L5.2945822,2.3912049 L12.2975795,2.3912049 L8.71109223,5.80739482 Z" id="形状" fill-opacity="0.1"></path>
                            </g>
                        </g>
                    </g>
                </g>
            </g>
        </g>
    </g>
</svg>