<?xml version="1.0" encoding="UTF-8"?>
<svg width="24px" height="24px" viewBox="0 0 24 24" version="1.1" xmlns="http://www.w3.org/2000/svg" xmlns:xlink="http://www.w3.org/1999/xlink">
    <title>WiFi</title>
    <g id="页面-1" stroke="none" stroke-width="1" fill="none" fill-rule="evenodd">
        <g id="2、集中监控" transform="translate(-488.000000, -1606.000000)">
            <g id="编组-14" transform="translate(224.000000, 1584.000000)">
                <g id="编组-10" transform="translate(0.000000, 20.000000)">
                    <g id="WiFi" transform="translate(264.000000, 2.000000)">
                        <path d="M12,24 C18.6271905,24 23.9997967,18.6273938 23.9997967,12 C23.9997967,5.37260622 18.6271905,0 12,0 C5.37240281,0 0,5.37240281 0,12 C0,18.6273938 5.37240281,24 12,24 Z" id="路径" fill-opacity="0.05" fill="#050A19"></path>
                        <path d="M11.9900349,16.6874555 C11.9003491,16.6874555 11.6918958,16.5229299 11.3650815,16.1936752 C11.0384707,15.8646239 10.8745551,15.6551537 10.8743518,15.5652645 C10.8743518,15.4216859 11.0144731,15.3008847 11.2945124,15.2022506 C11.5745518,15.1036166 11.806596,15.0541979 11.9900349,15.0541979 C12.1734739,15.0541979 12.4053147,15.1034132 12.6855574,15.2022506 C12.9655967,15.3008847 13.1057181,15.4216859 13.1057181,15.5652645 C13.1057181,15.6549503 12.9420059,15.8644206 12.6149883,16.1936752 C12.2877674,16.5229299 12.0795173,16.6874555 11.9900349,16.6874555 Z" id="路径" fill="#868A90" fill-rule="nonzero" opacity="0.6"></path>
                        <path d="M13.8044945,14.8664881 C13.7957496,14.8664881 13.7060638,14.8103583 13.5356405,14.6980985 C13.3654205,14.5860421 13.1380538,14.4739857 12.8535403,14.3625394 C12.5788826,14.252539 12.2858993,14.1954742 11.9900349,14.1943531 C11.69398,14.194874 11.4007514,14.2519597 11.1261228,14.3625394 C10.8420161,14.4750025 10.6156662,14.5868556 10.4476833,14.6980985 C10.2797004,14.8099515 10.1889977,14.8658781 10.1755754,14.8664881 C10.0950412,14.8664881 9.88557098,14.6985052 9.54716472,14.362336 C9.20896184,14.0261669 9.03955532,13.8177134 9.03955532,13.7373826 C9.03955532,13.679219 9.06192593,13.6277667 9.10666714,13.5830255 C9.4562587,13.2381114 9.89533272,12.9668169 10.4240925,12.7695489 C10.9528523,12.5724842 11.4749009,12.4738501 11.9902383,12.4738501 C12.5053724,12.4738501 13.027421,12.5720774 13.5559774,12.7695489 C14.0849405,12.9668169 14.5242179,13.2381114 14.8736061,13.5830255 C14.9185507,13.6277667 14.9407179,13.679219 14.9407179,13.7373826 C14.9407179,13.8179168 14.7715148,14.0261668 14.4331085,14.362336 C14.0949056,14.6983019 13.885232,14.8664881 13.8044945,14.8664881 L13.8044945,14.8664881 Z" id="路径" fill="#868A90" fill-rule="nonzero" opacity="0.7"></path>
                        <path d="M15.6390876,13.0384029 C15.5896689,13.0384029 15.5382165,13.020303 15.484527,12.9847134 C14.875233,12.5141172 14.3106803,12.1679829 13.7908687,11.9463105 C13.2710572,11.7246382 12.6705081,11.6140054 11.9896282,11.6140054 C11.6089211,11.6140054 11.2267905,11.6632207 10.8438464,11.7618547 C10.4609023,11.8606921 10.1271735,11.9792564 9.84266008,12.1179541 C9.58158163,12.2439751 9.32704496,12.3831218 9.08002578,12.5348609 C8.85611634,12.6739654 8.67918518,12.7927329 8.5492323,12.8909603 C8.41927942,12.9891876 8.34993054,13.0386063 8.34118565,13.039013 C8.26492222,13.039013 8.05890928,12.8710301 7.72294344,12.5348609 C7.38718097,12.198895 7.21919805,11.9904417 7.21879133,11.9099075 C7.21879133,11.856218 7.24116193,11.8070027 7.28590315,11.7618547 C7.87750399,11.1702539 8.59438027,10.7110463 9.43653188,10.3844355 C10.2786835,10.0576213 11.1299868,9.89390909 11.9904417,9.89370555 C12.8508965,9.89350237 13.7024032,10.0570112 14.5443514,10.3844355 C15.3865031,10.7118598 16.1033793,11.1710674 16.6947768,11.7618547 C16.7397214,11.806596 16.7618886,11.8560146 16.7618886,11.9099075 C16.7618886,11.9904417 16.5939057,12.198895 16.2577365,12.5346575 C15.9219741,12.8708267 15.7157577,13.0388096 15.6396977,13.0388096 L15.6390876,13.0384029 L15.6390876,13.0384029 Z" id="路径" fill="#868A90" fill-rule="nonzero" opacity="0.8"></path>
                        <path d="M17.4604617,11.2170288 C17.4112463,11.2170288 17.3618276,11.1966919 17.3126123,11.1562214 C16.5105244,10.4529709 15.6783378,9.92319424 14.8158492,9.56709489 C13.9533607,9.2109955 13.0113548,9.03284412 11.9900349,9.03284412 C10.9685117,9.03284412 10.0267092,9.21079213 9.1642206,9.56709489 C8.30173204,9.92319427 7.46954547,10.4527675 6.66745756,11.1562214 C6.61803887,11.1966919 6.56882353,11.2170288 6.5194048,11.2170288 C6.44314137,11.2170288 6.23590822,11.0490458 5.89790868,10.7128767 C5.5597058,10.3769108 5.39070604,10.1684574 5.39029928,10.0879233 C5.39029928,10.0295563 5.41266989,9.97810394 5.45741114,9.93356607 C6.29529202,9.10015929 7.29200422,8.45507237 8.44795445,7.99810188 C9.60370133,7.54113139 10.7842592,7.31254448 11.9892215,7.31254448 C13.1945904,7.31254448 14.3749449,7.54113139 15.5308952,7.99810188 C16.6866421,8.45527574 17.6835576,9.10015929 18.5214385,9.93356607 C18.5659763,9.97830728 18.588347,10.0297597 18.588347,10.0879233 C18.588347,10.1684575 18.4191438,10.3767075 18.0807376,10.7128767 C17.7425347,11.0490458 17.5353015,11.2170288 17.4592414,11.2170288 L17.4604617,11.2170288 Z" id="路径" fill="#868A90" fill-rule="nonzero" opacity="0.9"></path>
                        <circle id="椭圆形" fill="#F2F3F3" cx="16" cy="14" r="4"></circle>
                        <path d="M14.5004942,16.5981782 C15.4286444,17.1339895 16.5721424,17.1339373 17.5002437,16.5980414 C18.428345,16.0621454 19,15.071821 19,14.0001137 C19,12.9284064 18.4281569,11.9381341 17.5,11.4023228 C16.0652109,10.5740303 14.2306153,11.0656984 13.4023228,12.5004943 C12.5740303,13.9352901 13.0656984,15.7698856 14.5004942,16.5981782 Z M15.4701472,13.999688 L14.6096083,13.1408364 C14.4724256,12.9927062 14.4768377,12.7626419 14.6195992,12.6198805 C14.7623607,12.477119 14.9924249,12.4727068 15.1405552,12.6098895 L15.9999692,13.4704285 L16.8593833,12.6098895 C17.0075136,12.4727068 17.2375778,12.477119 17.3803392,12.6198805 C17.5231007,12.7626419 17.5275129,12.9927062 17.3903302,13.1408364 L16.5303537,14.0002505 L17.3908926,14.8596645 C17.5324737,15.0072682 17.5299781,15.2410063 17.3852778,15.3855534 C17.2405776,15.5301006 17.006837,15.5323487 16.8593833,15.3906114 L15.9999692,14.5300725 L15.1405552,15.3906114 C15.0470139,15.4916175 14.9057218,15.5333761 14.7723011,15.499448 C14.6388804,15.46552 14.5346997,15.3613393 14.5007717,15.2279186 C14.4668437,15.0944979 14.5086022,14.9532058 14.6096083,14.8596645 L15.4701472,14.0002505 L15.4701472,13.999688 Z" id="形状" fill="#FF4B47" fill-rule="nonzero"></path>
                    </g>
                </g>
            </g>
        </g>
    </g>
</svg>