<?xml version="1.0" encoding="UTF-8"?>
<svg width="65px" height="64px" viewBox="0 0 65 64" version="1.1" xmlns="http://www.w3.org/2000/svg" xmlns:xlink="http://www.w3.org/1999/xlink">
    <title>形状结合</title>
    <g id="页面-1" stroke="none" stroke-width="1" fill="none" fill-rule="evenodd" fill-opacity="0.85">
        <g id="3、电站监控-浅色" transform="translate(-264.000000, -655.000000)" fill="#FAAD14" fill-rule="nonzero">
            <g id="编组-15" transform="translate(224.000000, 134.000000)">
                <g id="编组-12" transform="translate(16.000000, 492.000000)">
                    <g id="编组-17" transform="translate(24.000000, 22.000000)">
                        <path d="M32.0582878,7 C49.7635913,7 64.1165756,21.326888 64.1165756,39 C64.0961129,56.6646446 49.7551084,70.9795745 32.0582878,71 C14.3529843,71 0,56.673112 0,39 C0,21.326888 14.3529843,7 32.0582878,7 Z M32.0582878,10.7559846 C20.6107755,10.7559846 10.2905754,17.639592 5.91038049,28.1967241 C1.53018558,38.7538562 3.95268921,50.9052525 12.0481879,58.9842649 C20.1436865,67.0632774 32.317746,69.478719 42.8931496,65.1041793 C53.4685533,60.7296397 60.3624417,50.4266983 60.3599391,39 C60.3394745,23.4073185 47.6793754,10.7730012 32.0582878,10.7559846 Z M34.129092,25 L34.129092,28.9984281 L40.0243544,28.9984281 L40.0243544,32.9968563 L34.129092,32.9968563 L34.129092,36.4863936 L36.1812403,36.4863936 C39.2781187,36.4863936 42.0765027,39.2125946 42.0765027,42.4476864 C42.0765027,45.6827783 39.5019894,48.4089793 36.1812403,48.4089793 L36.1812403,48.4089793 L34.129092,48.4089793 L34.129092,52.4074074 L30.0247954,52.4074074 L30.0247954,48.4089793 L24.129533,48.4089793 L24.129533,44.6649966 L29.9874836,44.6649966 L29.9874836,40.6665685 L27.9353353,40.6665685 C24.6145862,40.6665685 22.0400729,38.1948128 22.0400729,34.959721 C22.0400729,31.7246291 24.6145862,28.9984281 27.9353353,28.9984281 L27.9353353,28.9984281 L30.0247954,28.9984281 L30.0247954,25 L34.129092,25 Z M36.5108277,41.2962963 L34.6556028,41.2962963 L34.6556028,45 L36.5108277,45 C37.455306,45 38.3660528,44.090909 38.3660528,43.1481481 C38.3660528,42.2053872 37.4215745,41.2962963 36.5108277,41.2962963 L36.5108277,41.2962963 Z M29.4609728,32.4074074 L27.6057478,32.4074074 C26.695001,32.4074074 25.9866424,33.1144781 25.7505228,34.2592592 C25.7505228,35.2020202 26.695001,36.1111111 27.6057478,36.1111111 L27.6057478,36.1111111 L29.4609728,36.1111111 L29.4609728,32.4074074 Z" id="形状结合"></path>
                    </g>
                </g>
            </g>
        </g>
    </g>
</svg>