<svg xmlns="http://www.w3.org/2000/svg" width="36.354" height="64.467" viewBox="0 0 36.354 64.467">
  <path id="已连接" d="M291.2,16.14,279.431,26.856,291.2,37.566a2.2,2.2,0,0,1,0,3L277.455,53.083a2.459,2.459,0,0,1-.878.6c-.054.021-.109.032-.165.049a2.616,2.616,0,0,1-.8.14h-.047a2.376,2.376,0,0,1-2.463-2.278V32.609L259.569,44.932a2.27,2.27,0,0,1-3,0l-.5-.455a1.808,1.808,0,0,1,0-2.727l16.368-14.9-16.368-14.9a1.808,1.808,0,0,1,0-2.727l.5-.455a2.268,2.268,0,0,1,3,0L273.1,21.093V2.483a1.724,1.724,0,0,1,.041-.42,1.16,1.16,0,0,1,.032-.14,1.736,1.736,0,0,1,.12-.357,2.336,2.336,0,0,1,.921-1.024,2.267,2.267,0,0,1,2.98.01l13.986,12.73a1.836,1.836,0,0,1,.619,1.374,1.808,1.808,0,0,1-.6,1.484ZM278.07,46.155l7.791-7.092-7.791-7.092Zm0-38.443V21.725l7.7-7Zm-13.98,51.272a2.744,2.744,0,1,1-3,2.735,2.88,2.88,0,0,1,3-2.735Zm12.041,0a2.746,2.746,0,1,1-3.028,2.735,2.894,2.894,0,0,1,3.028-2.735Zm11.994,0a2.744,2.744,0,1,1-3,2.735,2.88,2.88,0,0,1,3-2.735Z" transform="translate(-255.452 0.011)" fill="#fff"/>
</svg>
