<svg xmlns="http://www.w3.org/2000/svg" width="26.119" height="23.745" viewBox="0 0 26.119 23.745">
  <path id="投屏" d="M13.971,14.674,19.907,21.8A1.187,1.187,0,0,1,19,23.745H7.123A1.187,1.187,0,0,1,6.212,21.8l5.936-7.123a1.187,1.187,0,0,1,1.824,0Zm-.912,2.614-3.4,4.082h6.8ZM22.557,0a3.562,3.562,0,0,1,3.562,3.562V15.434A3.562,3.562,0,0,1,22.557,19H21.37a1.187,1.187,0,0,1,0-2.374h1.187a1.187,1.187,0,0,0,1.187-1.187V3.562a1.187,1.187,0,0,0-1.187-1.187h-19A1.187,1.187,0,0,0,2.374,3.562V15.434a1.187,1.187,0,0,0,1.187,1.187H4.749a1.187,1.187,0,1,1,0,2.374H3.562A3.562,3.562,0,0,1,0,15.434V3.562A3.562,3.562,0,0,1,3.562,0Z" fill="#fff"/>
</svg>
