<svg xmlns="http://www.w3.org/2000/svg" width="39.063" height="52.294" viewBox="0 0 39.063 52.294">
  <path id="未连接" d="M146.362,30.732V25.948a.462.462,0,0,1,.458-.458H178.6a.462.462,0,0,1,.458.458v4.784a1.581,1.581,0,0,0,3.162,0V25.948a3.622,3.622,0,0,0-3.619-3.619H146.819a3.622,3.622,0,0,0-3.619,3.619v4.784a1.581,1.581,0,0,0,3.162,0Zm32.657-1.373a16.308,16.308,0,0,1-32.615,0,1.581,1.581,0,0,0-3.162,0,19.511,19.511,0,0,0,39.022,0,1.58,1.58,0,0,0-1.581-1.581A1.6,1.6,0,0,0,179.018,29.359ZM150.9,13.675v8.819a1.581,1.581,0,1,0,3.162,0V13.675a1.58,1.58,0,0,0-1.581-1.581A1.554,1.554,0,0,0,150.9,13.675Zm20.3-.125V22.37a1.581,1.581,0,0,0,3.162,0V13.551a1.581,1.581,0,0,0-3.162,0ZM161.047,47.289V62.681a1.581,1.581,0,0,0,3.162,0V47.289a1.58,1.58,0,0,0-1.581-1.581A1.607,1.607,0,0,0,161.047,47.289Z" transform="translate(-143.2 -11.968)" fill="#fff"/>
</svg>
