<svg xmlns="http://www.w3.org/2000/svg" viewBox="0 0 240.32 31.55"><defs><style>.cls-1{fill:#848484;}.cls-2{fill:#074acd;}.cls-3{fill:#39b54a;}.cls-4{fill:#fbb03b;}.cls-5{fill:#999;}</style></defs><title>资源 2SOLAR</title><g id="图层_2" data-name="图层 2"><g id="图层_1-2" data-name="图层 1"><path d="M234.68,20h4.82a.5.5,0,0,1,.51.5v1.68a.51.51,0,0,1-.51.51h-6.2a.5.5,0,0,1-.42-.23l-4.41-6.88a.34.34,0,0,1,.28-.52h7.52c1,0,1.36-.59,1.36-1.12s-.37-1.13-1.36-1.13h-9.22a.51.51,0,0,1-.43-.23l-1.25-1.94a.34.34,0,0,1,.28-.52h10.62a3.82,3.82,0,1,1,0,7.63h-2.6a.33.33,0,0,0-.28.51l1,1.58A.33.33,0,0,0,234.68,20Z"/><path d="M186.43,18.83a4.14,4.14,0,0,1-4.38,3.82H172.8a.5.5,0,0,1-.5-.51V20.46a.5.5,0,0,1,.5-.5h9.25c1,0,1.69-.6,1.69-1.13s-.7-1.13-1.69-1.13h-5.71A4.12,4.12,0,0,1,172,13.89a4.12,4.12,0,0,1,4.37-3.82h8.74a.5.5,0,0,1,.5.5v1.69a.5.5,0,0,1-.5.5h-8.74c-1,0-1.68.6-1.68,1.13s.69,1.12,1.68,1.12h5.71A4.14,4.14,0,0,1,186.43,18.83Z"/><path d="M225.86,22.42,221,14.92a.35.35,0,0,0-.57,0l-4.86,7.5a.54.54,0,0,1-.43.23H204.07a.5.5,0,0,1-.5-.48V10.55a.49.49,0,0,1,.5-.48h1.69a.49.49,0,0,1,.5.48V19.8a.33.33,0,0,0,.34.31h7.12A.35.35,0,0,0,214,20l6.28-9.66a.51.51,0,0,1,.86,0l7.61,11.83a.33.33,0,0,1-.28.52h-2.19A.54.54,0,0,1,225.86,22.42Z"/><path d="M196.26,22.65h-3.2a5.8,5.8,0,0,1-5.79-5.8v-1a5.8,5.8,0,0,1,5.79-5.8h3.2a5.8,5.8,0,0,1,5.8,5.8v1A5.8,5.8,0,0,1,196.26,22.65Zm-3.51-9.89a2.8,2.8,0,0,0-2.8,2.8v1.6a2.81,2.81,0,0,0,2.8,2.8h3.82a2.8,2.8,0,0,0,2.8-2.8v-1.6a2.8,2.8,0,0,0-2.8-2.8Z"/><rect class="cls-1" x="154.28" y="2.74" width="0.75" height="27.77"/><path d="M4.67,29.21H2.08V17.53a7.37,7.37,0,0,1,14.73,0v5H4.67Zm0-9.26h9.54V17.53a4.77,4.77,0,0,0-9.54,0Z"/><rect class="cls-2" x="8.31" width="2.52" height="7.99"/><rect class="cls-3" x="12.06" y="3.91" width="7.99" height="2.52" transform="translate(3.55 16.48) rotate(-60)"/><rect class="cls-4" x="1.83" y="1.17" width="2.52" height="7.99" transform="translate(-2.17 2.24) rotate(-30)"/><path d="M18.65,16.39a6,6,0,0,1,1.87-4.45,6.51,6.51,0,0,1,7-1.35A6.41,6.41,0,0,1,29.57,12,7.14,7.14,0,0,1,31,14a6.12,6.12,0,0,1,0,4.8,6.26,6.26,0,0,1-1.39,2.05,6.13,6.13,0,0,1-2.06,1.35,6.38,6.38,0,0,1-2.44.46,6.25,6.25,0,0,1-4.55-1.83,6,6,0,0,1-1.87-4.45m2.52,0a4,4,0,0,0,1.14,2.87,3.62,3.62,0,0,0,2.74,1.19,3.66,3.66,0,0,0,2.73-1.19,4.14,4.14,0,0,0,0-5.72,3.75,3.75,0,0,0-5.48,0,4,4,0,0,0-1.14,2.85"/><polygon points="37.38 22.67 31.93 10.38 34.52 10.38 38.03 18.38 41.42 10.38 43.03 10.38 46.47 18.35 49.99 10.38 52.59 10.38 47.1 22.67 45.9 22.67 42.24 13.94 38.58 22.67 37.38 22.67"/><path d="M64.41,21.15A9.62,9.62,0,0,1,62,22.29a8.75,8.75,0,0,1-2.6.38,6,6,0,0,1-4.5-1.74,6.45,6.45,0,0,1-1.68-4.66,5.94,5.94,0,0,1,1.62-4.33A5.62,5.62,0,0,1,59,10.29,5.23,5.23,0,0,1,63.11,12a6.63,6.63,0,0,1,1.5,4.56v.35H55.7a3.53,3.53,0,0,0,3.8,3.58A7.26,7.26,0,0,0,61.86,20a11.63,11.63,0,0,0,2.55-1.27Zm-8.71-6H62a3.18,3.18,0,0,0-.94-2.09A2.89,2.89,0,0,0,59,12.32a3.21,3.21,0,0,0-2.2.73,3.55,3.55,0,0,0-1.1,2.14"/><polygon points="76.1 22.69 76.1 7.25 78.74 7.25 78.74 20.29 83.32 20.29 83.32 22.69 76.1 22.69"/><path d="M93.1,21.18a6.59,6.59,0,0,1-1.84,1.29,4.77,4.77,0,0,1-2,.4,4.29,4.29,0,0,1-3.17-1.15A4.29,4.29,0,0,1,85,18.54V10.38h2.48v7.54a3.25,3.25,0,0,0,.63,2.2,2.47,2.47,0,0,0,2,.72,3.63,3.63,0,0,0,1.66-.37,4.41,4.41,0,0,0,1.4-1.22V10.38h2.45V22.69H93.1Z"/><path d="M105.59,22.06a4.66,4.66,0,0,1-1.23.46,6.38,6.38,0,0,1-1.42.15,3.69,3.69,0,0,1-2.92-1,5.45,5.45,0,0,1-.85-3.54V12.42H97.08v-.23l4.3-4.68h.28v2.82h3.85v2.09h-3.85V18a3.32,3.32,0,0,0,.38,1.95,1.84,1.84,0,0,0,1.42.44,4,4,0,0,0,1.09-.15,3.92,3.92,0,0,0,1-.44Z"/><path d="M107.49,8.5a1.39,1.39,0,1,1,2.78,0,1.39,1.39,0,1,1-2.78,0"/><rect x="107.66" y="10.38" width="2.45" height="12.31"/><path d="M112.52,16.52a5.85,5.85,0,0,1,1.83-4.36,6.13,6.13,0,0,1,4.46-1.8,6.23,6.23,0,0,1,2.38.47,6.46,6.46,0,0,1,2,1.34,6.73,6.73,0,0,1,1.38,2,6,6,0,0,1,0,4.7,6.12,6.12,0,0,1-1.36,2,5.92,5.92,0,0,1-2,1.33,6.35,6.35,0,0,1-2.39.45,6.12,6.12,0,0,1-4.46-1.79,5.87,5.87,0,0,1-1.83-4.36m2.47,0a3.91,3.91,0,0,0,1.11,2.81,3.67,3.67,0,0,0,5.37,0,4,4,0,0,0,1.12-2.81,3.88,3.88,0,0,0-1.12-2.79,3.69,3.69,0,0,0-5.37,0A3.91,3.91,0,0,0,115,16.52"/><path d="M127.12,22.69V10.38h2.45v1.5a6.93,6.93,0,0,1,1.83-1.29,4.82,4.82,0,0,1,2-.4,4.22,4.22,0,0,1,3.15,1.16,4.3,4.3,0,0,1,1.16,3.18v8.16h-2.46V15.16a3.28,3.28,0,0,0-.63-2.21,2.52,2.52,0,0,0-2-.71,3.46,3.46,0,0,0-1.65.37,4.45,4.45,0,0,0-1.4,1.2v8.88Z"/><path d="M74.29,10.46h0a3.38,3.38,0,0,0-1.36-.3,2.83,2.83,0,0,0-1.77.64,9.1,9.1,0,0,0-1.85,2.25V10.38H66.86V22.69h2.45v-7a5.24,5.24,0,0,1,1.07-2.39,2.24,2.24,0,0,1,1.74-.84,3,3,0,0,1,1.15.23,3.94,3.94,0,0,1,1,.52Z"/><polygon class="cls-5" points="71.46 26.68 71.46 30.07 73.63 30.07 73.63 30.44 71.03 30.44 71.03 26.68 71.46 26.68"/><path class="cls-5" d="M76.18,28.09a1.85,1.85,0,0,1,.31,1.11H74.35a1.16,1.16,0,0,0,.25.71.75.75,0,0,0,.61.25.85.85,0,0,0,.54-.17,1,1,0,0,0,.27-.43h.42a1.18,1.18,0,0,1-.37.65,1.37,1.37,0,0,1-1.8-.08,1.69,1.69,0,0,1,0-2.06,1.17,1.17,0,0,1,.94-.42,1.14,1.14,0,0,1,1,.44m-1.56.14a1.07,1.07,0,0,0-.26.64h1.7c0-.58-.34-.87-.86-.87a.78.78,0,0,0-.58.23"/><path class="cls-5" d="M79,28a1.08,1.08,0,0,1,.25.74v1.75h-.4V30a1.14,1.14,0,0,1-.42.36,1.33,1.33,0,0,1-.67.17,1,1,0,0,1-.66-.2.71.71,0,0,1-.25-.55.76.76,0,0,1,.38-.7,1.65,1.65,0,0,1,.94-.23h.65v-.14c0-.46-.23-.69-.71-.69a.85.85,0,0,0-.48.12.59.59,0,0,0-.28.39l-.41,0a.89.89,0,0,1,.42-.63,1.39,1.39,0,0,1,.78-.19A1.12,1.12,0,0,1,79,28m-.8,1.19c-.61,0-.92.21-.92.61a.36.36,0,0,0,.16.31.65.65,0,0,0,.41.12,1,1,0,0,0,.68-.25.74.74,0,0,0,.29-.56v-.24Z"/><path class="cls-5" d="M82.35,26.61v3.83H82V30a1,1,0,0,1-.9.52,1.12,1.12,0,0,1-.93-.43,1.56,1.56,0,0,1-.31-1,1.54,1.54,0,0,1,.31-1,1.07,1.07,0,0,1,.91-.43,1,1,0,0,1,.89.57V26.61Zm-1.9,1.7a1.23,1.23,0,0,0-.2.76,1.24,1.24,0,0,0,.2.77.75.75,0,0,0,.66.33.76.76,0,0,0,.64-.32,1.29,1.29,0,0,0,.19-.74v-.05a1.21,1.21,0,0,0-.22-.77.71.71,0,0,0-.59-.3.79.79,0,0,0-.68.32"/><path class="cls-5" d="M85.48,27.72h.67v.35h-.67V29.8a.32.32,0,0,0,.06.22.27.27,0,0,0,.2.07h.35v.35h-.41a.58.58,0,0,1-.48-.18.67.67,0,0,1-.13-.46V28.07h-.55v-.35h.55V27l.41-.18Z"/><path class="cls-5" d="M87,26.61v1.56a1,1,0,0,1,.38-.4,1,1,0,0,1,.5-.12,1,1,0,0,1,.73.27,1.21,1.21,0,0,1,.25.8v1.72h-.42V28.79a.92.92,0,0,0-.18-.59.71.71,0,0,0-.53-.2.64.64,0,0,0-.52.25,1,1,0,0,0-.21.64v1.55h-.42V26.61Z"/><path class="cls-5" d="M91.65,28.09A1.85,1.85,0,0,1,92,29.2H89.82a1.16,1.16,0,0,0,.25.71.76.76,0,0,0,.61.25.85.85,0,0,0,.54-.17.84.84,0,0,0,.27-.43h.42a1.23,1.23,0,0,1-.36.65,1.28,1.28,0,0,1-.87.3,1.23,1.23,0,0,1-.94-.38,1.71,1.71,0,0,1,0-2.06,1.29,1.29,0,0,1,1.92,0m-1.56.14a1.07,1.07,0,0,0-.26.64h1.7c0-.58-.34-.87-.86-.87a.78.78,0,0,0-.58.23"/><polygon class="cls-5" points="96.92 26.68 96.92 27.06 94.69 27.06 94.69 28.31 96.8 28.31 96.8 28.69 94.69 28.69 94.69 30.07 97.01 30.07 97.01 30.44 94.26 30.44 94.26 26.68 96.92 26.68"/><path class="cls-5" d="M99.85,28.77v1.67h-.42V28.8c0-.53-.25-.8-.72-.8a.67.67,0,0,0-.49.21.88.88,0,0,0-.24.59v1.64h-.42V27.72H98v.4a1,1,0,0,1,.36-.35,1,1,0,0,1,.49-.12c.67,0,1,.37,1,1.12"/><path class="cls-5" d="M102.61,28.09a1.85,1.85,0,0,1,.31,1.11h-2.14a1.23,1.23,0,0,0,.24.71.78.78,0,0,0,.61.25.83.83,0,0,0,.54-.17.92.92,0,0,0,.28-.43h.42a1.24,1.24,0,0,1-.37.65,1.26,1.26,0,0,1-.87.3,1.21,1.21,0,0,1-.93-.38,1.69,1.69,0,0,1,0-2.06,1.3,1.3,0,0,1,1.93,0m-1.57.14a1.06,1.06,0,0,0-.25.64h1.69c0-.58-.34-.87-.85-.87a.81.81,0,0,0-.59.23"/><path class="cls-5" d="M105,27.71v.42a1.44,1.44,0,0,0-.4-.06.66.66,0,0,0-.54.28,1,1,0,0,0-.21.65v1.44h-.42V27.72h.42v.47a1.07,1.07,0,0,1,.28-.37.76.76,0,0,1,.5-.17,1,1,0,0,1,.37.06"/><path class="cls-5" d="M107.37,28.19v-.47h.42v2.53c0,.87-.42,1.3-1.24,1.3a1.32,1.32,0,0,1-.84-.22,1,1,0,0,1-.37-.66h.42a.55.55,0,0,0,.24.4.91.91,0,0,0,.55.14c.54,0,.82-.3.82-.9v-.48a1,1,0,0,1-.92.55,1.15,1.15,0,0,1-.9-.39,1.44,1.44,0,0,1-.32-1,1.4,1.4,0,0,1,.32-1,1.1,1.1,0,0,1,.9-.4,1,1,0,0,1,.92.54m-1.49.1a1.1,1.1,0,0,0-.22.73,1.18,1.18,0,0,0,.19.7.77.77,0,0,0,.66.3.79.79,0,0,0,.64-.28,1.3,1.3,0,0,0,0-1.45.77.77,0,0,0-.63-.3.75.75,0,0,0-.64.3"/><polygon class="cls-5" points="108.6 27.72 109.43 29.86 110.23 27.72 110.69 27.72 109.21 31.48 108.75 31.48 109.22 30.38 108.14 27.72 108.6 27.72"/><path class="cls-5" d="M114.47,26.68a1.38,1.38,0,0,1,.88.26,1,1,0,0,1,.34.79.91.91,0,0,1-.18.56.81.81,0,0,1-.51.32h0a.72.72,0,0,1,.6.69l.06.58a1,1,0,0,0,.2.55h-.47a1.14,1.14,0,0,1-.15-.5l0-.5A.63.63,0,0,0,115,29a.94.94,0,0,0-.54-.14h-1.14v1.62h-.43V26.68Zm-1.19,1.77h1.14a1,1,0,0,0,.63-.19.78.78,0,0,0,0-1,1,1,0,0,0-.64-.17h-1.14Z"/><path class="cls-5" d="M118.46,28.09a1.85,1.85,0,0,1,.31,1.11h-2.14a1.23,1.23,0,0,0,.24.71.78.78,0,0,0,.61.25A.86.86,0,0,0,118,30a1,1,0,0,0,.27-.43h.42a1.18,1.18,0,0,1-.37.65,1.24,1.24,0,0,1-.87.3,1.22,1.22,0,0,1-.93-.38,1.69,1.69,0,0,1,0-2.06,1.3,1.3,0,0,1,1.93,0m-1.56.14a1,1,0,0,0-.26.64h1.7c-.06-.58-.34-.87-.86-.87a.77.77,0,0,0-.58.23"/><polygon class="cls-5" points="119.43 27.72 120.21 29.91 120.99 27.72 121.45 27.72 120.42 30.44 119.99 30.44 118.97 27.72 119.43 27.72"/><path class="cls-5" d="M124,28.07a1.47,1.47,0,0,1,.34,1,1.49,1.49,0,0,1-.34,1,1.24,1.24,0,0,1-1,.42,1.21,1.21,0,0,1-1-.42,1.49,1.49,0,0,1-.35-1,1.48,1.48,0,0,1,.35-1,1.18,1.18,0,0,1,1-.42,1.21,1.21,0,0,1,1,.42m-1.65.26a1.39,1.39,0,0,0,0,1.5.78.78,0,0,0,.67.33.81.81,0,0,0,.68-.33,1.39,1.39,0,0,0,0-1.5A.81.81,0,0,0,123,28a.78.78,0,0,0-.67.33"/><rect class="cls-5" x="124.96" y="26.61" width="0.42" height="3.83"/><path class="cls-5" d="M126.53,27.72v1.66a.87.87,0,0,0,.17.58.66.66,0,0,0,.53.19.68.68,0,0,0,.49-.21,1,1,0,0,0,.27-.56V27.72h.42v2.72H128V30a1,1,0,0,1-.89.49q-1,0-1-1.11V27.72Z"/><path class="cls-5" d="M129.78,27.72h.68v.35h-.68V29.8a.32.32,0,0,0,.06.22.28.28,0,0,0,.2.07h.35v.35H130a.58.58,0,0,1-.48-.18.67.67,0,0,1-.13-.46V28.07h-.55v-.35h.55V27l.41-.18Z"/><path class="cls-5" d="M131.5,26.78a.29.29,0,0,1,.09.22.32.32,0,0,1-.09.23.34.34,0,0,1-.46,0A.32.32,0,0,1,131,27a.29.29,0,0,1,.09-.22.34.34,0,0,1,.46,0m0,3.66h-.42V27.72h.42Z"/><path class="cls-5" d="M134.46,28.07a1.47,1.47,0,0,1,.34,1,1.49,1.49,0,0,1-.34,1,1.24,1.24,0,0,1-1,.42,1.21,1.21,0,0,1-1-.42,1.49,1.49,0,0,1-.35-1,1.48,1.48,0,0,1,.35-1,1.18,1.18,0,0,1,1-.42,1.21,1.21,0,0,1,1,.42m-1.65.26a1.39,1.39,0,0,0,0,1.5.78.78,0,0,0,.67.33.81.81,0,0,0,.68-.33,1.39,1.39,0,0,0,0-1.5.81.81,0,0,0-.68-.33.78.78,0,0,0-.67.33"/><path class="cls-5" d="M137.64,28.77v1.67h-.42V28.8c0-.53-.25-.8-.72-.8a.67.67,0,0,0-.49.21.88.88,0,0,0-.24.59v1.64h-.42V27.72h.42v.4a.93.93,0,0,1,.36-.35,1,1,0,0,1,.49-.12c.67,0,1,.37,1,1.12"/></g></g></svg>