<?xml version="1.0" encoding="UTF-8"?>
<svg width="64px" height="64px" viewBox="0 0 64 64" version="1.1" xmlns="http://www.w3.org/2000/svg" xmlns:xlink="http://www.w3.org/1999/xlink">
    <title>编组 5</title>
    <g id="页面-1" stroke="none" stroke-width="1" fill="none" fill-rule="evenodd" fill-opacity="0.45">
        <g id="运行监控-微网运行&amp;微网实景图" transform="translate(-1436.000000, -378.000000)" fill="#050A19" fill-rule="nonzero">
            <g id="编组-20" transform="translate(0.000000, 78.000000)">
                <g id="编组-9" transform="translate(1396.000000, 130.000000)">
                    <g id="编组-5" transform="translate(40.000000, 170.000000)">
                        <path d="M32,3 C49.673112,3 64,17.326888 64,35 C64,45.1171698 59.3049104,54.1377427 51.9747283,60.0017215 L12.0252717,60.0017215 C4.69508964,54.1377427 0,45.1171698 0,35 C0,17.326888 14.326888,3 32,3 Z M32,5.4 C15.6523714,5.4 2.4,18.6523714 2.4,35 C2.4,43.7882615 6.25138288,51.9388535 12.7873113,57.5183503 L12.886,57.601 L51.113,57.601 L51.2126887,57.5183503 C57.6275814,52.0421775 61.4564356,44.0892536 61.5960451,35.4875684 L61.6,35 C61.6,18.6523714 48.3476286,5.4 32,5.4 Z M40.3160388,26.8320498 C40.699688,27.2293302 40.6886378,27.8623987 40.2913574,28.2460479 L34.6849699,33.6602664 C34.8865684,34.0635076 35,34.5185071 35,35 C35,36.6568542 33.6568542,38 32,38 C30.3431458,38 29,36.6568542 29,35 C29,33.3431458 30.3431458,32 32,32 C32.4441895,32 32.8658318,32.0965364 33.2450909,32.2697734 L38.9020406,26.8073683 C39.299321,26.4237191 39.9323896,26.4347694 40.3160388,26.8320498 Z M54,33.8 C54.6627417,33.8 55.2,34.3372583 55.2,35 C55.2,35.6627417 54.6627417,36.2 54,36.2 L54,36.2 L50.4,36.2 C49.7372583,36.2 49.2,35.6627417 49.2,35 C49.2,34.3372583 49.7372583,33.8 50.4,33.8 L50.4,33.8 Z M13,33.8 C13.6627417,33.8 14.2,34.3372583 14.2,35 C14.2,35.6627417 13.6627417,36.2 13,36.2 L13,36.2 L9.4,36.2 C8.7372583,36.2 8.2,35.6627417 8.2,35 C8.2,34.3372583 8.7372583,33.8 9.4,33.8 L9.4,33.8 Z M16.7757359,18.8786797 L19.3213203,21.4242641 C19.7899495,21.8928932 19.7899495,22.6526912 19.3213203,23.1213203 C18.8526912,23.5899495 18.0928932,23.5899495 17.6242641,23.1213203 L15.0786797,20.5757359 C14.6100505,20.1071068 14.6100505,19.3473088 15.0786797,18.8786797 C15.5473088,18.4100505 16.3071068,18.4100505 16.7757359,18.8786797 Z M47.6242641,18.8786797 C48.0928932,18.4100505 48.8526912,18.4100505 49.3213203,18.8786797 C49.7899495,19.3473088 49.7899495,20.1071068 49.3213203,20.5757359 L49.3213203,20.5757359 L46.7757359,23.1213203 C46.3071068,23.5899495 45.5473088,23.5899495 45.0786797,23.1213203 C44.6100505,22.6526912 44.6100505,21.8928932 45.0786797,21.4242641 L45.0786797,21.4242641 Z M32.2,12 C32.8627417,12 33.4,12.5372583 33.4,13.2 L33.4,16.8 C33.4,17.4627417 32.8627417,18 32.2,18 C31.5372583,18 31,17.4627417 31,16.8 L31,13.2 C31,12.5372583 31.5372583,12 32.2,12 Z" id="形状结合"></path>
                    </g>
                </g>
            </g>
        </g>
    </g>
</svg>