<?xml version="1.0" encoding="UTF-8"?>
<svg width="24px" height="24px" viewBox="0 0 24 24" version="1.1" xmlns="http://www.w3.org/2000/svg" xmlns:xlink="http://www.w3.org/1999/xlink">
    <title>形状结合</title>
    <g id="页面-1" stroke="none" stroke-width="1" fill="none" fill-rule="evenodd" fill-opacity="0.45">
        <g id="登录页" transform="translate(-1787.000000, -27.000000)" fill="#050A19" fill-rule="nonzero">
            <path d="M1799,27 C1805.62477,27.0063915 1810.99361,32.3752322 1811,39 C1811,45.627417 1805.62742,51 1799,51 C1792.37258,51 1787,45.627417 1787,39 C1787,32.372583 1792.37258,27 1799,27 Z M1799,28.8550725 C1793.39711,28.8550725 1788.85507,33.3971112 1788.85507,39 C1788.85507,44.6028888 1793.39711,49.1449275 1799,49.1449275 C1804.60024,49.1385382 1809.13854,44.6002401 1809.14493,39 C1809.14493,33.3971112 1804.60289,28.8550725 1799,28.8550725 Z M1805.1913,35.3037681 C1805.38785,35.2939982 1805.57816,35.3742181 1805.70841,35.5217391 C1805.84879,35.7095371 1805.91635,35.9418575 1805.89855,36.1756522 L1805.89855,36.1756522 L1805.89855,42.084058 C1805.89855,42.7441546 1805.62493,43.0742029 1805.07768,43.0742029 C1804.95243,43.0752914 1804.82786,43.0557047 1804.70899,43.0162319 C1804.59569,42.9741613 1804.49172,42.9103569 1804.4029,42.8284058 C1804.30287,42.7392166 1804.21339,42.6388509 1804.13623,42.5292754 C1804.05275,42.4086956 1803.97159,42.2973913 1803.89043,42.1768116 L1803.89043,42.1768116 L1801.03362,37.8057971 L1801.03362,42.2115942 C1801.05223,42.4462274 1800.98094,42.6791598 1800.8342,42.8631884 C1800.70426,43.0086434 1800.5167,43.0892689 1800.32174,43.0834783 C1800.12302,43.0891118 1799.93261,43.0037232 1799.80464,42.8515942 C1799.66273,42.6661537 1799.59346,42.4352531 1799.60986,42.2023189 L1799.60986,42.2023189 L1799.60986,36.4052174 C1799.60264,36.209473 1799.63011,36.0139955 1799.69101,35.8278261 C1799.75758,35.6713257 1799.87099,35.5392854 1800.01565,35.4498551 C1800.15979,35.3537368 1800.32936,35.3028665 1800.50261,35.3037681 C1800.62277,35.3011377 1800.74212,35.3240589 1800.85275,35.3710145 C1800.94828,35.4139114 1801.03482,35.4744936 1801.10783,35.5495652 C1801.19444,35.6391802 1801.27211,35.7370354 1801.33971,35.8417391 L1801.33971,35.8417391 L1801.57159,36.2173913 L1804.50029,40.644058 L1804.50029,36.1756522 C1804.48242,35.9425586 1804.54819,35.7107237 1804.6858,35.5217391 C1804.81223,35.3757849 1804.99838,35.295522 1805.1913,35.3037681 Z M1795.11594,35.3037681 C1795.67833,35.293601 1796.23496,35.4184443 1796.73913,35.6678261 C1797.16523,35.8741391 1797.53575,36.179459 1797.81971,36.5582609 C1798.04779,36.8477474 1798.17992,37.2011596 1798.19768,37.5692754 C1798.20042,37.7424648 1798.1336,37.9095203 1798.01217,38.0330435 C1797.90056,38.162367 1797.73778,38.2361302 1797.56696,38.2347826 C1797.40837,38.2468703 1797.25127,38.1969983 1797.1287,38.0956522 C1796.99639,37.9542079 1796.88687,37.7930572 1796.80406,37.617971 C1796.64157,37.2885388 1796.40314,37.0024225 1796.10841,36.7831884 C1795.81359,36.5918737 1795.4672,36.4955639 1795.11594,36.5072464 C1794.53322,36.4916081 1793.97911,36.7595847 1793.62957,37.2260869 C1793.25855,37.7022222 1793.07304,38.3770048 1793.07304,39.2504348 C1793.05842,39.7480406 1793.14194,40.2436543 1793.31884,40.7089855 C1793.4562,41.0632423 1793.69903,41.366777 1794.01449,41.5785507 C1794.33139,41.7732132 1794.69775,41.8722508 1795.06957,41.8637681 C1795.46495,41.8767561 1795.85413,41.7630072 1796.18029,41.5391304 C1796.50003,41.2975259 1796.73863,40.9642956 1796.86435,40.5837681 C1796.91419,40.4104631 1796.99255,40.2466742 1797.09623,40.0991304 C1797.21077,39.9643988 1797.38399,39.8942448 1797.56,39.9113044 C1797.74163,39.9018761 1797.9187,39.9701731 1798.04696,40.0991304 C1798.17339,40.2200208 1798.24393,40.3879871 1798.24179,40.5628985 C1798.23466,40.830906 1798.17477,41.0948832 1798.06551,41.3397101 C1797.76572,42.0093898 1797.21919,42.5376424 1796.53971,42.8144928 C1796.10374,42.9898433 1795.63676,43.0750357 1795.16696,43.0649275 C1794.80282,43.0688405 1794.43945,43.0307138 1794.08406,42.9513044 C1793.44829,42.8170852 1792.87639,42.472312 1792.46087,41.9727536 C1792.25936,41.7313305 1792.08877,41.465703 1791.95304,41.182029 C1791.81188,40.8863017 1791.70603,40.574979 1791.63768,40.2544928 C1791.56072,39.9102865 1791.51954,39.5590493 1791.51478,39.2063768 C1791.50653,38.6539619 1791.59602,38.1044394 1791.77913,37.5831884 C1791.94229,37.1258076 1792.19985,36.7078681 1792.53507,36.3565217 C1792.86151,36.0176059 1793.25689,35.7527028 1793.69449,35.5797101 C1794.14559,35.3952649 1794.6286,35.3014988 1795.11594,35.3037681 Z" id="形状结合"></path>
        </g>
    </g>
</svg>