<?xml version="1.0" encoding="UTF-8"?>
<svg width="16px" height="16px" viewBox="0 0 16 16" version="1.1" xmlns="http://www.w3.org/2000/svg" xmlns:xlink="http://www.w3.org/1999/xlink">
    <title>编组 4</title>
    <g id="页面-1" stroke="none" stroke-width="1" fill="none" fill-rule="evenodd" opacity="0.85">
        <g id="登录页" transform="translate(-1487.000000, -2947.000000)">
            <g id="登录-验证成功" transform="translate(1201.000000, 2360.000000)">
                <g id="验证成功" transform="translate(100.000000, 571.000000)">
                    <g id="编组-12" transform="translate(186.000000, 15.000000)">
                        <g id="编组-4" transform="translate(0.000000, 1.000000)">
                            <path d="M8,0 C12.418278,0 16,3.581722 16,8 C16,12.418278 12.418278,16 8,16 C3.581722,16 0,12.418278 0,8 C0,3.581722 3.581722,0 8,0 Z" id="矩形" fill="#52C41A" fill-rule="nonzero"></path>
                            <path d="M4.79411806,7.99573161 L6.66420018,9.50966246 L11.322125,5.14967713 C11.322125,5.14967713 11.6344759,4.85998052 11.9076105,5.08664734 C11.9886869,5.1545272 12.0823883,5.34725761 11.871061,5.64967687 L7.00843748,11.4381475 C7.00843748,11.4381475 6.63562036,11.9563315 6.19301853,11.4320884 L4.09433639,8.55269503 C4.09433639,8.55269503 3.84512622,8.16300269 4.15680658,7.92966526 C4.26180735,7.8508833 4.50104388,7.72906227 4.79411806,7.99573161 Z" id="路径" fill="#FFFFFF"></path>
                        </g>
                    </g>
                </g>
            </g>
        </g>
    </g>
</svg>