<?xml version="1.0" encoding="UTF-8"?>
<svg width="24px" height="24px" viewBox="0 0 24 24" version="1.1" xmlns="http://www.w3.org/2000/svg" xmlns:xlink="http://www.w3.org/1999/xlink">
    <title>形状结合</title>
    <g id="页面-1" stroke="none" stroke-width="1" fill="none" fill-rule="evenodd" fill-opacity="0.45">
        <g id="登录页" transform="translate(-1817.000000, -28.000000)" fill="#050A19" fill-rule="nonzero">
            <g id="编组-14" transform="translate(1817.000000, 28.000000)">
                <path d="M12,0 C18.6,0 24,5.4 24,12 C24,18.6 18.6,24 12,24 C5.4,24 0,18.6 0,12 C0,5.4 5.4,0 12,0 Z M12,1.8 C6.36,1.8 1.8,6.36 1.8,12 C1.8,17.64 6.36,22.2 12,22.2 C17.64,22.2 22.2,17.64 22.2,12 C22.2,6.36 17.64,1.8 12,1.8 Z M10.56,7.2 C10.957645,7.2 11.28,7.52235498 11.28,7.92 C11.28,8.31764502 10.957645,8.64 10.56,8.64 L6.12,8.64 L6.12,11.28 L10.08,11.28 C10.477645,11.28 10.8,11.602355 10.8,12 C10.8,12.397645 10.477645,12.72 10.08,12.72 L6.12,12.72 L6.12,15.36 L10.56,15.36 C10.957645,15.36 11.28,15.682355 11.28,16.08 C11.28,16.477645 10.957645,16.8 10.56,16.8 L5.4,16.8 C5.00235498,16.8 4.68,16.477645 4.68,16.08 L4.68,7.92 C4.68,7.52235498 5.00235498,7.2 5.4,7.2 L10.56,7.2 Z M18.72,7.2 C19.117645,7.2 19.44,7.52235498 19.44,7.92 L19.44,16.08 C19.44,16.2835564 19.355528,16.4673833 19.219726,16.5983387 C19.1865909,16.6490071 19.1419731,16.6931404 19.087638,16.727779 C19.0136539,16.7749439 18.9277393,16.8 18.84,16.8 L18.7702927,16.7982708 L18.72,16.8 C18.6261736,16.8 18.5365391,16.782053 18.4543418,16.7494045 C18.084337,16.6543077 17.7588352,16.4217022 17.5484518,16.0916892 L13.56,9.836 L13.56,16.08 C13.56,16.477645 13.237645,16.8 12.84,16.8 C12.442355,16.8 12.12,16.477645 12.12,16.08 L12.12,7.92 C12.12,7.71644362 12.204472,7.53261673 12.340274,7.40166133 C12.3734091,7.35099294 12.4180269,7.30685959 12.472362,7.27222097 C12.5463461,7.22505608 12.6322607,7.2 12.72,7.2 L12.7887105,7.20179863 L12.84,7.2 L12.84,7.2 C12.9338264,7.2 13.0234609,7.21794705 13.1056582,7.25059551 C13.475663,7.34569231 13.8011648,7.57829777 14.0115482,7.90831085 L17.999,14.163 L18,7.92 C18,7.52235498 18.322355,7.2 18.72,7.2 Z" id="形状结合"></path>
            </g>
        </g>
    </g>
</svg>