<?xml version="1.0" encoding="UTF-8"?>
<svg width="64px" height="64px" viewBox="0 0 64 64" version="1.1" xmlns="http://www.w3.org/2000/svg" xmlns:xlink="http://www.w3.org/1999/xlink">
    <title>1、通用/1、图标/浅色/64/无数据</title>
    <g id="1、通用/1、图标/浅色/64/无数据" stroke="none" stroke-width="1" fill="none" fill-rule="evenodd">
        <g id="无数据">
            <rect id="矩形" fill-opacity="0" fill="#D8D8D8" x="0" y="0" width="64" height="64"></rect>
            <g id="wushuju-2" transform="translate(0.000000, 3.666667)">
                <polygon id="路径" fill-opacity="0.15" fill="#000000" fill-rule="nonzero" points="7.37524241 0.00452969071 4.49934178 8.91579022 6.23829004 8.91579022 9.11464364 0.00407672164"></polygon>
                <path d="M3.27541935,1.04951931 L0.216519216,1.04951931 C0.172549078,1.04904616 0.130188177,1.06605121 0.0987567757,1.09680301 C0.067325374,1.12755481 0.049398582,1.16953395 0.0489206596,1.21350414 L0.0489206596,7.85810744 C0.0489206596,7.94870125 0.124113525,8.02208801 0.216519216,8.02208801 L3.27541935,8.02208801 C3.36680688,8.02283677 3.44156925,7.94949266 3.44256494,7.85810744 L3.44256494,6.85976361 C3.44256494,6.76916979 3.36782504,6.6957888 3.27496638,6.6957888 L1.39922146,6.6957888 L1.39922146,2.37582278 L3.27541935,2.37582278 C3.36680688,2.3765773 3.44156925,2.3032332 3.44256494,2.21184797 L3.44256494,1.21350414 C3.44256494,1.12291033 3.36782504,1.04951931 3.27496638,1.04951931" id="路径" fill-opacity="0.06" fill="#000000" fill-rule="nonzero"></path>
                <path d="M13.5147852,1.04952357 L10.4558851,1.04952357 C10.3644975,1.04877481 10.2897352,1.12211892 10.2887395,1.21350414 L10.2887395,2.21184797 C10.2887395,2.30244179 10.3634794,2.37582278 10.456338,2.37582278 L12.3320829,2.37582278 L12.3320829,6.6957888 L10.4558851,6.6957888 C10.3644975,6.69503428 10.2897352,6.76837838 10.2887395,6.85976361 L10.2887395,7.85810744 C10.2887395,7.94870125 10.3634794,8.02209226 10.456338,8.02209226 L13.5143322,8.02209226 C13.5583024,8.02256542 13.6006633,8.00556037 13.6320947,7.97480857 C13.6635261,7.94405677 13.6814529,7.90207763 13.6819308,7.85810744 L13.6819308,1.21350414 C13.6819308,1.12291033 13.6067379,1.04952357 13.5143322,1.04952357" id="路径" fill-opacity="0.06" fill="#000000" fill-rule="nonzero"></path>
                <path d="M59.3315742,47.5891111 C59.8866497,48.0416914 60.6960415,47.9651403 61.1406144,47.4174316 C61.5851873,46.8697229 61.4951837,46.0584093 60.9401082,45.605829 C60.3856732,45.152608 59.5756409,45.2291591 59.1317085,45.7768678 C58.6874559,46.3255374 58.7771392,47.1358901 59.3312538,47.5887908" id="路径" fill-opacity="0.06" fill="#000000" fill-rule="nonzero"></path>
                <path d="M50.1735721,50.0304339 C50.73163,50.4852148 51.5469743,50.4073041 51.9949607,49.8551348 C52.4434001,49.3029655 52.3541652,48.4862623 51.7961073,48.0310284 C51.2380494,47.5757945 50.4222521,47.6537051 49.9747187,48.2058744 C49.5262793,48.7580437 49.6155142,49.574747 50.1735721,50.0299809 M61.5888456,37.9443131 C62.1469035,38.399547 62.9622479,38.3211834 63.4106872,37.7690141 C63.8582207,37.2168448 63.7694387,36.4001416 63.2113808,35.9449076 C62.653323,35.4896737 61.8379786,35.5680374 61.3899922,36.1197537 C60.9415528,36.672376 61.0307877,37.4886262 61.5892986,37.9443131" id="形状" fill-opacity="0.06" fill="#000000" fill-rule="nonzero"></path>
                <path d="M47.1566256,57.2513367 C47.4431726,57.4857904 47.8111614,57.5967303 48.1795474,57.5597235 C48.5479334,57.5227167 48.8865026,57.3407983 49.1206898,57.0540334 C49.6060042,56.4544043 49.5138333,55.5749821 48.9147385,55.0890083 C48.6281915,54.8545545 48.2602027,54.7436146 47.8918167,54.7806214 C47.5234307,54.8176282 47.1848615,54.9995466 46.9506743,55.2863115 C46.4656188,55.8860173 46.5577682,56.7652341 47.1566256,57.2513367" id="路径" fill-opacity="0.06" fill="#000000" fill-rule="nonzero"></path>
                <path d="M35.9603086,14.3477953 L11.3595584,14.3477953 C10.6923349,14.3477953 10.1514898,14.8841107 10.1514898,15.5458985 L10.1514898,49.6309151 L32.1281902,49.6309151 C32.1281902,53.2904523 35.2840258,55.8470097 38.9811593,55.8285385 C42.6144242,55.8103192 45.5868073,52.7564017 45.5868073,49.1548446 L45.5868073,23.8447449 L39.1727652,23.8447449 C38.1490551,23.8447449 35.9603086,21.6242905 35.9603086,20.6105457 L35.9603086,14.3477953 Z" id="路径" fill-opacity="0.06" fill="#000000" fill-rule="nonzero"></path>
                <path d="M32.1766579,49.5231085 L6.971194,49.5231085 C6.971194,52.7921863 9.36966523,55.1553259 12.5159884,55.6789582 L13.6239507,55.7709109 L38.8792413,55.7210843 C35.2056621,55.7210843 32.0828933,52.9240003 32.1766579,49.5231085 L32.1766579,49.5231085 Z" id="路径" fill-opacity="0.25" fill="#000000" fill-rule="nonzero"></path>
                <path d="M48.0357739,56.1701725 L50.9848397,49.030545 L60.1361911,46.5800399 L62.4000782,36.9899073" id="直线" stroke="#F0F0F0" stroke-width="0.4" stroke-linecap="square" stroke-dasharray="1,1"></path>
                <path d="M17.5819945,17.544851 L18.8915281,17.544851 C20.6034492,17.544851 21.4594097,18.4008116 21.4594097,20.1127327 L21.4594097,21.367004 C21.4594097,23.0789251 20.6034492,23.9348857 18.8915281,23.9348857 L17.5819945,23.9348857 C15.8700734,23.9348857 15.0141128,23.0789251 15.0141128,21.367004 L15.0141128,20.1127327 C15.0141128,18.4008116 15.8700734,17.544851 17.5819945,17.544851 Z" id="路径" fill-opacity="0.06" fill="#000000" fill-rule="nonzero"></path>
                <path d="M15.801826,27.079397 L38.3741808,27.079397 C38.9065704,27.079397 39.1727652,27.3455918 39.1727652,27.8779815 L39.1727652,27.8784344 C39.1727652,28.4108241 38.9065704,28.6770189 38.3741808,28.6770189 L15.801826,28.6770189 C15.2694364,28.6770189 15.0032416,28.4108241 15.0032416,27.8784344 L15.0032416,27.8779815 C15.0032416,27.3455918 15.2694364,27.079397 15.801826,27.079397 Z" id="路径" fill-opacity="0.15" fill="#000000" fill-rule="nonzero"></path>
                <path d="M15.801826,31.8894755 L38.3741808,31.8894755 C38.9065704,31.8894755 39.1727652,32.1556704 39.1727652,32.68806 L39.1727652,32.688513 C39.1727652,33.2209026 38.9065704,33.4870975 38.3741808,33.4870975 L15.801826,33.4870975 C15.2694364,33.4870975 15.0032416,33.2209026 15.0032416,32.688513 L15.0032416,32.68806 C15.0032416,32.1556704 15.2694364,31.8894755 15.801826,31.8894755 Z" id="路径" fill-opacity="0.15" fill="#000000" fill-rule="nonzero"></path>
                <path d="M15.801826,36.6991011 L38.3741808,36.6991011 C38.9065704,36.6991011 39.1727652,36.965296 39.1727652,37.4976856 L39.1727652,37.4981386 C39.1727652,38.0305282 38.9065704,38.2967231 38.3741808,38.2967231 L15.801826,38.2967231 C15.2694364,38.2967231 15.0032416,38.0305282 15.0032416,37.4981386 L15.0032416,37.4976856 C15.0032416,36.965296 15.2694364,36.6991011 15.801826,36.6991011 Z" id="路径" fill-opacity="0.15" fill="#000000" fill-rule="nonzero"></path>
                <path d="M35.9575908,22.3168802 L35.9575908,23.56481 C35.9575908,23.8329677 36.0699271,24.0888952 36.2683276,24.2714417 C36.4672727,24.4540059 36.7328729,24.5461462 37.0021374,24.5260103 L45.619874,23.8904947 L35.9575908,22.3168802 L35.9575908,22.3168802 Z" id="路径" fill="#BABFD8" fill-rule="nonzero"></path>
                <path d="M40.9524807,19.1035176 L35.9471725,14.3174464 L35.9598556,23.4900701 C35.9598556,23.710213 36.1401373,23.8891358 36.3629981,23.8891358 L45.619874,23.8891358 L40.9524807,19.1035176 Z" id="路径" fill="#F2F5F9" fill-rule="nonzero"></path>
                <path d="M41.8212754,7.0414042 C37.155694,7.0414042 33.3734022,10.8273197 33.3734022,15.4978838 C33.3734022,20.1679949 37.155694,23.9543634 41.8212754,23.9543634 C46.4868568,23.9543634 50.2691486,20.1679949 50.2691486,15.4974308 C50.2691486,10.8277727 46.4868568,7.0414042 41.8212754,7.0414042" id="路径" fill="#A7C5FF" fill-rule="nonzero"></path>
                <path d="M43.8156982,12.1803383 C44.2605138,12.5789511 44.4883573,13.1270437 44.4883573,13.811027 C44.4883573,14.3699908 44.3402364,14.8379078 44.067096,15.2030009 C43.9642721,15.3284734 43.6449289,15.6247151 43.0977422,16.0926322 C42.8930002,16.2751787 42.7335551,16.4685965 42.6311841,16.6742445 C42.5057117,16.9025409 42.4486376,17.1534857 42.4486376,17.4384033 L42.4486376,17.7092788 C42.4486376,17.8225211 42.3571378,17.9140208 42.2438955,17.9140208 L41.4339868,17.9140208 C41.3209109,17.9140208 41.2292448,17.8223547 41.2292448,17.7092788 L41.2292448,17.4384033 C41.2292448,17.0166891 41.2976431,16.651596 41.445764,16.3549013 C41.6052091,16.0355581 42.0382476,15.567641 42.7448793,14.9402789 L42.9387501,14.7237596 C43.1434921,14.4610376 43.2463161,14.1874443 43.2463161,13.8912025 C43.2463161,13.4916838 43.1321679,13.1836648 42.9156487,12.9558214 C42.6878052,12.7275249 42.368915,12.6133767 41.958525,12.6133767 C41.445764,12.6133767 41.0697997,12.7732748 40.8419563,13.092618 C40.6634864,13.3304268 40.5629273,13.663359 40.5393729,14.0755609 C40.5331254,14.1835126 40.443669,14.2678004 40.3355368,14.2676198 L39.5364994,14.2676198 C39.4803856,14.2678172 39.4266612,14.2449243 39.3879361,14.2043144 C39.3492111,14.1637045 39.3288953,14.1089535 39.3317574,14.0529124 C39.3702597,13.3222733 39.6080685,12.7429259 40.055602,12.3053578 C40.5343903,11.8152452 41.1952721,11.5756246 42.0269233,11.5756246 C42.7675278,11.5756246 43.3600113,11.7694954 43.8161512,12.1798853 M41.9385944,19.771194 L41.636917,19.771194 C41.3867491,19.771194 41.1839479,19.5683928 41.1839479,19.3182249 L41.1839479,19.0160946 C41.1839479,18.7659266 41.3867491,18.5631255 41.636917,18.5631255 L41.9385944,18.5631255 C42.1887623,18.5631255 42.3915635,18.7659266 42.3915635,19.0160946 L42.3915635,19.3182249 C42.3915635,19.5683928 42.1887623,19.771194 41.9385944,19.771194" id="形状" fill="#FFFFFF" fill-rule="nonzero"></path>
            </g>
        </g>
    </g>
</svg>