<?xml version="1.0" encoding="UTF-8"?>
<svg width="64px" height="64px" viewBox="0 0 64 64" version="1.1" xmlns="http://www.w3.org/2000/svg" xmlns:xlink="http://www.w3.org/1999/xlink">
    <title>1、通用/1、图标/深色/64/无图表</title>
    <g id="1、通用/1、图标/深色/64/无图表" stroke="none" stroke-width="1" fill="none" fill-rule="evenodd">
        <g id="无图表">
            <rect id="矩形" fill-opacity="0" fill="#D8D8D8" x="0" y="0" width="64" height="64"></rect>
            <g id="zanwushuju" transform="translate(4.000000, 6.666667)">
                <path d="M13.118514,50.6666667 L16,43.267043 L12.3496871,32 L5.51795706,37.3333333 L13.118514,50.6666667 Z M41.9547883,50.6666667 L38.6666667,43.5248884 L42.3625154,32 L49.3333333,36.9521829 L41.9547883,50.6666667 Z" id="形状" fill="#232832" fill-rule="nonzero"></path>
                <polygon id="路径" fill="#2A2E3B" fill-rule="nonzero" points="16.5421505 46.71182 12.221358 31.9292113 43.4168777 31.9292113 40.2441814 49.2625447"></polygon>
                <path d="M55.0770255,18.8325429 L15.0849444,0.0925884408 C14.8369873,-0.0200041096 14.5544093,-0.029259108 14.2996162,0.0668673631 C14.0448231,0.162993834 13.8387766,0.35659352 13.726981,0.604910954 L0.462148092,30.0603707 C0.232106575,30.5785886 0.463761803,31.1853048 0.980643127,31.4183341 L19.1032814,39.5784593 L21.5723057,40.6710025 L41.0221047,50.1521161 C41.2708283,50.2643201 41.5540327,50.272684 41.8089445,50.1753541 C42.0638564,50.0780241 42.2694188,49.8830401 42.3800681,49.633621 L55.6449011,20.1843337 C55.8677884,19.6610463 55.624711,19.056115 55.1017157,18.8325429 L55.0770255,18.8325429 Z" id="路径" fill="#2B2F3C" fill-rule="nonzero"></path>
                <path d="M16.677465,7.11696253 C17.0422292,7.28741308 17.1997516,7.72129035 17.029301,8.08605455 L7.1872445,29.2592372 L10.1796957,30.6522965 L10.9493287,29.0110354 C11.1197793,28.6462712 11.5536565,28.4887489 11.9184207,28.6591994 C12.2831849,28.82965 12.4407073,29.2635272 12.2702567,29.6282914 L11.5016957,31.2672965 L13.1622445,32.0402372 L15.2516035,27.554311 C15.3618657,27.31835 15.5896359,27.1591371 15.8491152,27.1366464 C16.1085946,27.1141558 16.360362,27.2318041 16.5095792,27.4452745 C16.6587964,27.6587449 16.6827937,27.935606 16.5725315,28.1715671 L14.4842445,32.6562372 L16.2160841,33.4628591 C16.2132655,33.3550729 16.2344305,33.2450199 16.2824212,33.1404785 L20.2452052,24.6161721 C20.3267992,24.3702875 20.5333731,24.1866106 20.7871124,24.1343307 C21.0408518,24.0820509 21.3032076,24.1691107 21.4753529,24.3627155 C21.6474983,24.5563203 21.7032802,24.827057 21.6216862,25.0729416 C21.6033108,25.1271791 21.5784398,25.1789937 21.5476154,25.2272556 L17.6033492,33.751562 C17.5542093,33.8571511 17.4829256,33.9454825 17.397559,34.0135398 L19.1302445,34.8192372 L22.4364642,27.6962799 C22.6069148,27.3315157 23.0407921,27.1739934 23.4055563,27.344444 C23.7703204,27.5148945 23.9278428,27.9487718 23.7573922,28.313536 L20.4482445,35.4332372 L22.1136957,36.2082965 L25.010422,29.9986451 C25.1808726,29.6355854 25.6133681,29.4794448 25.9764278,29.6498954 C26.3394875,29.820346 26.495628,30.2528415 26.3251774,30.6159011 L23.4306957,36.8212965 L25.0846957,37.5912965 L28.818892,29.6282914 C28.9291542,29.393433 29.1563361,29.235239 29.4148606,29.2132996 C29.673385,29.1913602 29.923976,29.3090086 30.0722383,29.5219277 C30.2205006,29.7348467 30.2439096,30.0106891 30.1336474,30.2455475 L26.4216957,38.2142965 L28.0926957,38.9922965 L34.102604,26.0728965 C34.2128662,25.838038 34.4400481,25.679844 34.6985726,25.6579046 C34.957097,25.6359653 35.207688,25.7536136 35.3559503,25.9665327 C35.5042126,26.1794518 35.5276216,26.4552941 35.4173594,26.6901525 L29.3956957,39.5982965 L31.1562445,40.4182372 L33.2507906,35.9057857 C33.4212412,35.5376125 33.857882,35.3773267 34.2260552,35.5477772 C34.5942284,35.7182278 34.7545143,36.1548686 34.5840637,36.5230418 L32.4782445,41.0332372 L34.2070886,41.8384969 C34.2019583,41.726845 34.2227616,41.6144398 34.2692631,41.5104708 L38.2443922,32.9861645 C38.4148428,32.6231048 38.8473383,32.4669643 39.210398,32.6374148 C39.5734576,32.8078654 39.7295982,33.2403609 39.5591476,33.6034206 L35.6148813,42.1215543 C35.5652852,42.2297191 35.4900395,42.3227587 35.3969669,42.3934193 L37.9295916,43.5721061 C38.2926512,43.7425566 38.4487918,44.1750521 38.2783412,44.5381118 C38.1078907,44.9011715 37.6753952,45.0573121 37.3123355,44.8868615 L37.2999904,44.8868615 L6.03597039,30.3504811 L5.93602062,30.2944842 L5.93602062,30.2944842 L5.9125192,30.2764103 L5.9125192,30.2764103 C5.73766363,30.1959419 5.60216577,30.0490005 5.53610701,29.8682081 C5.47004825,29.6874157 5.47889499,29.487733 5.56068321,29.3134909 L15.708373,7.46879849 C15.8788236,7.1040343 16.3127008,6.94651198 16.677465,7.11696253 Z" id="形状结合" fill="#3F424E" fill-rule="nonzero"></path>
                <path d="M27.0844381,18.8695003 L33.2939985,21.7335863 L33.3467851,21.7962249 L44.7008907,20.9558436 C44.915902,20.8091949 45.1928167,20.7883931 45.4273238,20.9012739 C45.661831,21.0141548 45.8183033,21.243569 45.8377991,21.5030986 C45.857295,21.7626281 45.7368526,22.0128443 45.5218413,22.159493 L45.4354255,22.215046 L31.8557919,23.2335186 C31.647171,23.3461205 31.3974814,23.3529926 31.1829828,23.2520362 C31.0486259,23.188318 30.9351631,23.0877 30.855837,22.9619258 C30.7044169,22.6935414 30.7382828,22.3701276 30.9178189,22.1409347 L26.0412754,19.8941453 C25.9119016,19.751304 25.8449866,19.5626783 25.85542,19.3702404 C25.8658534,19.1778024 25.9527695,18.997517 26.0968284,18.8695003 C26.3769071,18.6151623 26.8043594,18.6151623 27.0844381,18.8695003 Z M22.9714074,18.333732 C23.1848778,18.4829492 23.3025262,18.7347167 23.2800355,18.994196 C23.2575448,19.2536754 23.098332,19.4814456 22.8623709,19.5917077 L17.9243223,21.8632101 C17.7299915,21.9601624 17.501397,21.9601624 17.3070662,21.8632101 C17.0501222,21.7437446 16.8857851,21.4861049 16.8857851,21.2027461 C16.8857851,20.9193873 17.0501222,20.6617475 17.3070662,20.5422821 L22.2451148,18.2707797 C22.4810759,18.1605176 22.7579371,18.1845148 22.9714074,18.333732 Z" id="形状结合" fill="#7882A0" fill-rule="nonzero"></path>
                <path d="M15.0232188,21.4064406 C14.8221241,21.74018 14.8237897,22.1581723 15.0275377,22.4902985 C15.2312857,22.8224247 15.603148,23.013314 15.9917802,22.9852763 C16.3804123,22.9572386 16.7210231,22.7149481 16.874987,22.3570149 L16.9120224,22.2829442 C17.1123026,21.7697709 16.879042,21.1893214 16.3793524,20.9574393 C15.8796628,20.7255572 15.2858008,20.9221785 15.0232188,21.4064406 L15.0232188,21.4064406 Z" id="路径" fill="#D0D8E2" fill-rule="nonzero"></path>
                <path d="M13.4800786,21.8446924 C13.4800786,23.2082968 14.5854984,24.3137166 15.9491028,24.3137166 C17.3127073,24.3137166 18.4181271,23.2082968 18.4181271,21.8446924 C18.4181271,20.481088 17.3127074,19.3756681 15.9491029,19.3756681 C15.294277,19.3756681 14.666271,19.6357967 14.2032391,20.0988285 C13.7402072,20.5618604 13.4800786,21.1898664 13.4800786,21.8446924 L13.4800786,21.8446924 Z" id="路径" fill="#7882A0" fill-rule="nonzero"></path>
                <path d="M14.9306304,21.8446924 C14.930535,22.2152369 15.1281633,22.557675 15.4490484,22.7429748 C15.7699335,22.9282746 16.1653077,22.9282746 16.4861928,22.7429748 C16.8070778,22.557675 17.0047062,22.2152369 17.0046108,21.8446924 C17.0047062,21.4741479 16.8070778,21.1317098 16.4861928,20.94641 C16.1653077,20.7611102 15.7699335,20.7611102 15.4490484,20.94641 C15.1281633,21.1317098 14.930535,21.4741479 14.9306304,21.8446924 L14.9306304,21.8446924 Z" id="路径" fill="#A7ADC1" fill-rule="nonzero"></path>
                <path d="M23.8561532,17.900426 C23.6124089,18.4203002 23.8362564,19.0393353 24.3561306,19.2830796 C24.8760048,19.5268239 25.4950399,19.3029764 25.7387842,18.7831023 C25.8582927,18.5338053 25.8726531,18.2469517 25.7786402,17.9869655 C25.6846273,17.7269793 25.4901216,17.5156532 25.2388068,17.4004486 C24.7188387,17.1587944 24.1013064,17.3820985 23.8561532,17.900426 L23.8561532,17.900426 Z" id="路径" fill="#D0D8E2" fill-rule="nonzero"></path>
                <path d="M22.3068405,18.3448504 C22.3068405,19.7203864 23.4219327,20.8354786 24.7974687,20.8354786 C26.1730047,20.8354786 27.2880969,19.7203864 27.2880969,18.3448504 C27.2880969,16.9693144 26.1730047,15.8542222 24.7974687,15.8542222 C23.4219327,15.8542222 22.3068405,16.9693144 22.3068405,18.3448504 Z" id="路径" fill="#7882A0" fill-rule="nonzero"></path>
                <path d="M23.7759099,18.3448504 C23.7758145,18.7153949 23.9734428,19.057833 24.2943279,19.2431328 C24.615213,19.4284326 25.0105872,19.4284326 25.3314723,19.2431328 C25.6523573,19.057833 25.8499857,18.7153949 25.8498903,18.3448504 C25.8497428,17.7722408 25.3855097,17.3081272 24.8129001,17.3081272 C24.2402905,17.3081272 23.7760574,17.7722408 23.7759099,18.3448504 L23.7759099,18.3448504 Z" id="路径" fill="#A7ADC1" fill-rule="nonzero"></path>
                <path d="M31.9545528,21.8940729 C31.7836465,22.2248594 31.802195,22.6216962 32.0032113,22.9350987 C32.2042277,23.2485013 32.5571727,23.4308562 32.9290954,23.4134722 C33.3010182,23.3960882 33.6354147,23.1816063 33.806321,22.8508198 L33.8433564,22.7705765 C33.9873061,22.2808597 33.7534721,21.7592148 33.2921099,21.5408367 C32.8307478,21.3224586 32.2790778,21.4722983 31.9915882,21.8940729 L31.9545528,21.8940729 Z" id="路径" fill="#D0D8E2" fill-rule="nonzero"></path>
                <path d="M46.1390974,19.4559114 C44.898963,18.9067608 43.4480419,19.4607486 42.8894814,20.6966733 C42.330921,21.932598 42.8738649,23.3876878 44.1055085,23.9556259 C45.3371521,24.523564 46.7963266,23.9916953 47.3736095,22.7644039 C47.6564815,22.163024 47.6849718,21.4730019 47.4526389,20.8503496 C47.220306,20.2276974 46.7467705,19.7249984 46.1390974,19.4559114 Z" id="路径" fill="#7882A0" fill-rule="nonzero"></path>
                <path d="M44.6515102,22.6532978 C44.1299315,22.4129625 43.9019387,21.7953092 44.142274,21.2737305 C44.3826093,20.7521518 45.0002626,20.5241589 45.5218413,20.7644942 C46.0398557,21.0097995 46.2652008,21.6253766 46.0279912,22.1471478 C45.785367,22.6646785 45.1697179,22.8882999 44.6515102,22.6471252 L44.6515102,22.6532978 Z" id="路径" fill="#D0D8E2" fill-rule="nonzero"></path>
                <path d="M30.4052401,22.3384972 C30.4052401,23.7140332 31.5203324,24.8291255 32.8958683,24.8291255 C34.2714043,24.8291255 35.3864966,23.7140332 35.3864966,22.3384972 C35.3864966,20.9629613 34.2714043,19.847869 32.8958683,19.847869 C31.5203324,19.847869 30.4052401,20.9629613 30.4052401,22.3384972 Z" id="路径" fill="#7882A0" fill-rule="nonzero"></path>
                <path d="M31.8557919,22.3384972 C31.8976855,22.881907 32.3508461,23.3014763 32.8958683,23.3014763 C33.4408906,23.3014763 33.8940512,22.881907 33.9359448,22.3384972 C33.9359448,22.0618333 33.8260405,21.7965007 33.6304096,21.6008698 C33.4347786,21.4052388 33.1694461,21.2953344 32.8927821,21.2953344 C32.3200682,21.2953344 31.8557919,21.7596108 31.8557919,22.3323247 L31.8557919,22.3384972 Z M44.1453602,21.2768168 C43.9641831,21.6551477 44.0287789,22.1053677 44.3090205,22.4174961 C44.589262,22.7296245 45.0299463,22.842177 45.4255399,22.7026596 C45.8211336,22.5631422 46.0937111,22.1990375 46.1161435,21.7801626 C46.1385758,21.3612876 45.9064442,20.9701539 45.5280138,20.7891845 C45.2792273,20.6709927 44.9936408,20.6566322 44.7342527,20.7492707 C44.4748646,20.8419093 44.2629876,21.0339354 44.1453602,21.2829893 L44.1453602,21.2768168 Z" id="形状" fill="#A7ADC1" fill-rule="nonzero"></path>
                <polygon id="路径" fill="#3F424E" fill-rule="nonzero" points="12.6472647 50.6666667 5.51795706 37.5537992 49.0400805 37.5537992 42.0959496 50.6666667"></polygon>
                <path d="M21.3333333,45.3333333 C22.069713,45.3333333 22.6666667,44.7363797 22.6666667,44 C22.6666667,43.2636203 22.069713,42.6666667 21.3333333,42.6666667 C20.5969537,42.6666667 20,43.2636203 20,44 C20,44.7363797 20.5969537,45.3333333 21.3333333,45.3333333 Z" id="椭圆形" fill="#7882A0"></path>
                <circle id="椭圆形" fill="#7882A0" cx="28" cy="44" r="1.33333333"></circle>
                <circle id="椭圆形" fill="#7882A0" cx="34.6666667" cy="44" r="1.33333333"></circle>
            </g>
        </g>
    </g>
</svg>