<?xml version="1.0" encoding="UTF-8"?>
<svg width="16px" height="16px" viewBox="0 0 16 16" version="1.1" xmlns="http://www.w3.org/2000/svg" xmlns:xlink="http://www.w3.org/1999/xlink">
    <title>形状结合</title>
    <g id="页面-1" stroke="none" stroke-width="1" fill="none" fill-rule="evenodd">
        <g id="浅色-3、采集点号配置" transform="translate(-674.000000, -740.000000)" fill="#3D7EFF" fill-rule="nonzero">
            <g id="编组-3" transform="translate(496.000000, 445.000000)">
                <g id="编组-19" transform="translate(0.000000, 280.000000)">
                    <path d="M186,23.8009627 C186.440915,23.8009627 186.799037,24.1590854 186.799037,24.6 L186.799037,30.1990373 C186.799037,30.6418773 186.440915,31 186,31 C185.559085,31 185.200963,30.6418773 185.200963,30.2009627 L185.200963,24.6 C185.200963,24.1590854 185.559085,23.8009627 186,23.8009627 Z M186,15 C190.411071,15 194,18.588929 194,23 C194,25.6397112 192.698436,28.1080626 190.516968,29.6040915 C190.378339,29.6984356 190.220457,29.744645 190.064501,29.744645 C189.810349,29.744645 189.558123,29.6233454 189.404091,29.3961492 C189.153791,29.0322503 189.246209,28.533574 189.612034,28.2832732 C191.356438,27.0876053 192.4,25.112154 192.4,23 C192.4,19.4707581 189.529242,16.6 186,16.6 C182.470758,16.6 179.6,19.4726835 179.6,23 C179.6,25.112154 180.641637,27.0876053 182.386041,28.2832732 C182.74994,28.533574 182.844284,29.0303249 182.593983,29.3961492 C182.345608,29.7600481 181.846931,29.8543923 181.481107,29.6040915 C179.301564,28.109988 178,25.6416366 178,23 C178,18.588929 181.588929,15 186,15 Z M189.009386,19.1780987 C190.1858,20.1080626 190.861613,21.5001203 190.861613,22.9980746 C190.861613,24.4787004 190.199278,25.8611312 189.045969,26.7891697 C188.899639,26.9104693 188.722503,26.968231 188.545367,26.968231 C188.310469,26.968231 188.079422,26.8661853 187.92154,26.6697954 C187.644284,26.3251504 187.70012,25.8226233 188.04284,25.545367 C188.816847,24.9215403 189.261613,23.9935018 189.261613,23 C189.261613,21.9949458 188.80722,21.0592058 188.01781,20.4353791 C187.671239,20.1619735 187.611552,19.6594465 187.884958,19.3109507 C188.158363,18.9643803 188.662816,18.9046931 189.009386,19.1780987 Z M184.018773,19.3610108 C184.301805,19.6998797 184.255596,20.2043321 183.914801,20.4873646 C183.163899,21.1111913 182.734537,22.0257521 182.734537,23 C182.734537,23.9703971 183.161974,24.8830325 183.9071,25.5068592 C184.245969,25.7898917 184.290253,26.2943442 184.00722,26.633213 C183.849338,26.8238267 183.622142,26.9200963 183.39302,26.9200963 C183.212034,26.9200963 183.031047,26.8584838 182.880866,26.7333333 C181.771841,25.8052948 181.134537,24.4440433 181.134537,23 C181.134537,21.5482551 181.775692,20.1850782 182.892419,19.2570397 C183.233213,18.9759326 183.737665,19.022142 184.018773,19.3610108 Z M185.550421,21.4222693 C185.828622,21.2616503 186.171378,21.2616503 186.449579,21.4222693 C186.727779,21.5828884 186.899158,21.8797246 186.899158,22.2009627 C186.899158,22.5222008 186.727779,22.819037 186.449579,22.9796561 C186.171378,23.1402751 185.828622,23.1402751 185.550421,22.9796561 C185.272221,22.819037 185.100842,22.5222008 185.100842,22.2009627 C185.100842,21.8797246 185.272221,21.5828884 185.550421,21.4222693 Z" id="形状结合"></path>
                </g>
            </g>
        </g>
    </g>
</svg>