<svg xmlns="http://www.w3.org/2000/svg" viewBox="0 0 526 526"><defs><style>.cls-1{fill:#024c8b;}.cls-2{fill:#e04d19;}.cls-3{fill:none;}.cls-4{fill:#4e4848;}</style></defs><title>资源 17</title><g id="图层_2" data-name="图层 2"><g id="图层_1-2" data-name="图层 1"><polygon class="cls-1" points="190.69 175.33 345 0 320 0 145.23 175.33 190.69 175.33"/><polygon class="cls-1" points="250.63 175.33 405 0 391 0 215.67 175.33 250.63 175.33"/><polygon class="cls-1" points="128.9 175.33 283 0 250 0 75.39 175.33 128.9 175.33"/><polygon class="cls-1" points="309.33 175.33 464 0 457 0 282.44 175.33 309.33 175.33"/><polygon class="cls-1" points="67.23 175.33 221 0 180 0 8 173 7.91 173 160 0 110 0 8 103 7.88 103 98 0 0 0 0 175.33 67.23 175.33"/><polygon class="cls-1" points="350.67 175.33 526 175.33 526 0 350.67 175.33"/><polygon class="cls-2" points="145.23 175.33 8 313 7.91 313 128.9 175.33 75.39 175.33 8 243 7.89 243 67.23 175.33 0 175.33 0 350.67 36.38 350.67 190.69 175.33 145.23 175.33"/><polygon class="cls-2" points="215.67 175.33 40.33 350.67 96.26 350.67 250.63 175.33 215.67 175.33"/><polygon class="cls-2" points="282.44 175.33 107.89 350.67 154.67 350.67 309.33 175.33 282.44 175.33"/><polygon class="cls-2" points="175.33 350.67 526 350.67 526 175.33 350.67 175.33 175.33 350.67"/><polygon class="cls-3" points="7.92 383 8 383 40.33 350.67 36.38 350.67 7.92 383"/><polygon class="cls-4" points="107.89 350.67 8 451 7.92 451 96.26 350.67 40.33 350.67 8 383 7.92 383 36.38 350.67 0 350.67 0 526 154.67 350.67 107.89 350.67"/><polygon class="cls-4" points="0 526 526 526 526 350.67 175.33 350.67 0 526"/></g></g></svg>