<svg width="200" height="30" viewBox="0 0 200 30" fill="none" xmlns="http://www.w3.org/2000/svg">
<g clip-path="url(#clip0)">
<path d="M170.996 12.7574C170.996 10.8299 169.161 9.26953 166.958 9.26953H158.33C158.146 9.26953 158.055 9.36132 158.055 9.54489V20.2838C158.055 20.5591 158.238 20.7427 158.514 20.7427H167.05C169.252 20.7427 171.088 19.1823 171.088 17.2548C171.088 16.4288 170.721 15.6027 170.17 14.9602C170.721 14.4095 170.996 13.5834 170.996 12.7574ZM168.518 17.2548C168.518 17.7138 167.876 18.2645 166.958 18.2645H160.533V16.1534H167.05C167.968 16.2452 168.518 16.7959 168.518 17.2548ZM160.533 13.767V11.6559H166.958C167.876 11.6559 168.518 12.2067 168.518 12.6656C168.518 13.1245 167.876 13.6752 166.958 13.6752H160.533V13.767Z" fill="black"/>
<path d="M200 9.54489V20.4673C200 20.6509 199.817 20.7427 199.725 20.7427H197.981C197.797 20.7427 197.706 20.5591 197.706 20.4673V13.4917C197.706 13.2163 197.339 13.0327 197.155 13.3081L195.227 15.2356L193.851 16.7041C193.759 16.7959 193.575 16.7959 193.392 16.7041L191.923 15.2356L189.996 13.3081C189.812 13.1245 189.445 13.2163 189.445 13.4917V20.4673C189.445 20.6509 189.261 20.7427 189.17 20.7427H187.426C187.242 20.7427 187.15 20.5591 187.15 20.4673V9.54489C187.15 9.36132 187.334 9.26953 187.426 9.26953H189.078H189.17C189.17 9.26953 189.261 9.26953 189.261 9.36132L193.3 13.3999C193.392 13.4917 193.575 13.4917 193.759 13.3999L197.797 9.36132C197.889 9.26953 197.981 9.26953 197.981 9.26953H199.725C199.909 9.26953 200 9.36132 200 9.54489Z" fill="black"/>
<path d="M185.865 20.7427H183.845C183.662 20.7427 183.57 20.6509 183.478 20.5591L178.981 13.6752C178.889 13.5834 178.797 13.4917 178.705 13.4917C178.614 13.4917 178.522 13.4917 178.43 13.6752L173.933 20.5591C173.841 20.6509 173.657 20.7427 173.565 20.7427H171.638C171.363 20.7427 171.271 20.4673 171.363 20.2838L178.338 9.4531C178.43 9.26953 178.614 9.26953 178.705 9.26953C178.797 9.26953 178.981 9.36132 179.073 9.4531L186.048 20.2838C186.232 20.4673 186.14 20.7427 185.865 20.7427Z" fill="black"/>
<path d="M142.358 2.47852H141.624V27.9948H142.358V2.47852Z" fill="black"/>
<path d="M4.31415 26.8005H1.92773V16.0616C1.92773 12.2984 4.95665 9.26953 8.71984 9.26953C12.483 9.26953 15.5119 12.2984 15.5119 16.0616V20.6509H4.31415V26.8005ZM4.31415 18.3563H13.0337V16.1534C13.0337 13.767 11.1063 11.7477 8.62806 11.7477C6.24164 11.7477 4.22237 13.6752 4.22237 16.1534V18.3563H4.31415Z" fill="black"/>
<path d="M9.91279 0L7.61816 0V7.34282H9.91279V0Z" fill="#074ACD"/>
<path d="M15.5855 0.943854L11.9141 7.30273L13.9012 8.45005L17.5726 2.09117L15.5855 0.943854Z" fill="#39B54A"/>
<path d="M1.97859 1.0326L-0.00878906 2.17969L3.66189 8.5393L5.64927 7.39222L1.97859 1.0326Z" fill="#FBB03B"/>
<path d="M17.0723 15.052C17.0723 13.4917 17.623 12.1149 18.8162 10.9217C19.9176 9.82024 21.3862 9.26953 23.0383 9.26953C23.7726 9.26953 24.5987 9.4531 25.2412 9.72846C25.9754 10.0038 26.6179 10.4627 27.1686 11.0135C27.7194 11.5642 28.1783 12.2067 28.4536 12.9409C28.729 13.5834 28.9126 14.3177 28.9126 15.1438C28.9126 15.8781 28.729 16.6123 28.4536 17.3466C28.1783 18.0809 27.7194 18.7234 27.1686 19.2741C26.6179 19.8248 25.9754 20.2838 25.2412 20.5591C24.5069 20.8345 23.7726 21.018 23.0383 21.018C21.3862 21.018 20.0094 20.4673 18.8162 19.3659C17.7148 17.9891 17.0723 16.6123 17.0723 15.052ZM19.4587 15.052C19.4587 16.0616 19.8258 16.9795 20.4683 17.7138C21.2026 18.4481 22.0287 18.8152 22.9465 18.8152C23.9562 18.8152 24.7822 18.4481 25.4247 17.7138C26.159 16.9795 26.4344 16.0616 26.4344 15.052C26.4344 14.0424 26.0672 13.1245 25.4247 12.482C24.6904 11.7477 23.8644 11.3806 22.9465 11.3806C21.9369 11.3806 21.1108 11.7477 20.4683 12.482C19.734 13.1245 19.4587 14.0424 19.4587 15.052Z" fill="black"/>
<path d="M34.3275 20.8345L29.2793 9.54492H31.6657L34.8782 16.8877L37.9989 9.54492H39.4675L42.6799 16.8877L45.8924 9.54492H48.2788L43.2306 20.8345H42.1292L38.7332 12.7574L35.4289 20.8345H34.3275Z" fill="black"/>
<path d="M59.11 19.4577C58.3757 19.9166 57.6415 20.2838 56.9072 20.4673C56.1729 20.7427 55.3468 20.8345 54.5208 20.8345C52.7768 20.8345 51.4001 20.2838 50.3904 19.2741C49.3808 18.1727 48.8301 16.7959 48.8301 14.9602C48.8301 13.3081 49.289 12.0231 50.2986 11.0135C51.3083 10.0038 52.5933 9.45312 54.1536 9.45312C55.714 9.45312 56.999 10.0038 57.9168 11.0135C58.8347 12.0231 59.2936 13.3999 59.2936 15.2356V15.5109H51.1247C51.2165 16.5206 51.4918 17.3467 52.1343 17.8974C52.7768 18.4481 53.6029 18.7234 54.6125 18.7234C55.3468 18.7234 55.9893 18.6316 56.8154 18.3563C57.5497 18.0809 58.3757 17.7138 59.11 17.1631V19.4577ZM51.1247 13.9506H56.9072C56.8154 13.1245 56.54 12.482 56.0811 12.0231C55.6222 11.5642 54.9797 11.2888 54.1536 11.2888C53.3276 11.2888 52.6851 11.4724 52.1343 11.9313C51.5836 12.3903 51.3083 13.0327 51.1247 13.9506Z" fill="black"/>
<path d="M69.8486 20.8361V6.70117H72.235V18.6332H76.4572V20.8361H69.8486Z" fill="black"/>
<path d="M85.4522 19.4577C84.9015 20.0084 84.3508 20.3756 83.8 20.6509C83.2493 20.9263 82.6068 21.0181 81.9643 21.0181C80.7711 21.0181 79.7615 20.6509 79.0272 19.9166C78.2929 19.1824 77.9258 18.2645 77.9258 16.9795V9.45311H80.2204V16.337C80.2204 17.2549 80.404 17.8974 80.7711 18.3563C81.1383 18.8152 81.7808 18.9988 82.6068 18.9988C83.1575 18.9988 83.7082 18.907 84.1672 18.6316C84.6261 18.4481 84.9932 17.9891 85.4522 17.5302V9.36133H87.7468V20.6509H85.4522V19.4577Z" fill="black"/>
<path d="M96.9258 20.2854C96.5586 20.469 96.1915 20.6526 95.8244 20.7443C95.4572 20.8361 94.9983 20.8361 94.5394 20.8361C93.2544 20.8361 92.3365 20.5608 91.8776 19.9183C91.3269 19.3676 91.1433 18.2661 91.1433 16.7058V11.474H89.2158V11.2905L93.1626 6.97656H93.4379V9.54655H97.0176V11.474H93.4379V16.5222C93.4379 17.4401 93.5297 18.0826 93.8051 18.2661C94.0804 18.5415 94.4476 18.6333 95.0901 18.6333C95.4572 18.6333 95.7326 18.6333 96.0997 18.5415C96.4668 18.4497 96.7422 18.3579 97.0176 18.1744V20.2854H96.9258Z" fill="black"/>
<path d="M98.6689 7.80257C98.6689 7.43543 98.7607 7.16007 99.0361 6.88472C99.3114 6.60936 99.5868 6.51758 99.9539 6.51758C100.321 6.51758 100.596 6.60936 100.872 6.88472C101.147 7.16007 101.239 7.43543 101.239 7.80257C101.239 8.16971 101.147 8.44507 100.872 8.72042C100.596 8.99578 100.321 9.08756 99.9539 9.08756C99.5868 9.08756 99.3114 8.99578 99.0361 8.72042C98.7607 8.44507 98.6689 8.16971 98.6689 7.80257Z" fill="black"/>
<path d="M101.147 9.54492H98.8525V20.8345H101.147V9.54492Z" fill="black"/>
<path d="M103.259 15.1438C103.259 13.5835 103.81 12.2067 104.911 11.1053C106.012 10.0038 107.389 9.45312 109.041 9.45312C109.776 9.45312 110.51 9.6367 111.244 9.91205C111.978 10.1874 112.529 10.6463 113.08 11.1053C113.631 11.656 114.089 12.2985 114.365 12.941C114.64 13.5835 114.824 14.3177 114.824 15.052C114.824 15.7863 114.64 16.5206 114.365 17.2549C114.089 17.9892 113.631 18.5399 113.08 19.0906C112.529 19.6413 111.887 20.0084 111.244 20.2838C110.602 20.5591 109.867 20.6509 109.041 20.6509C107.389 20.6509 106.104 20.1002 104.911 18.9988C103.81 18.0809 103.259 16.7042 103.259 15.1438ZM105.553 15.1438C105.553 16.1534 105.921 16.9795 106.563 17.7138C107.206 18.4481 108.032 18.8152 109.041 18.8152C109.959 18.8152 110.785 18.4481 111.519 17.7138C112.162 16.9795 112.529 16.1534 112.529 15.1438C112.529 14.1342 112.162 13.3081 111.519 12.5738C110.877 11.8395 110.051 11.4724 109.041 11.4724C108.032 11.4724 107.297 11.8395 106.563 12.5738C105.921 13.3081 105.553 14.1342 105.553 15.1438Z" fill="black"/>
<path d="M116.659 20.8345V9.5449H118.954V10.9217C119.505 10.371 120.055 10.0038 120.606 9.72847C121.157 9.45311 121.799 9.36133 122.442 9.36133C123.635 9.36133 124.645 9.72847 125.379 10.4628C126.113 11.197 126.48 12.1149 126.48 13.3999V20.9263H124.186V14.0424C124.186 13.1245 124.002 12.482 123.635 12.0231C123.268 11.5642 122.625 11.3806 121.799 11.3806C121.248 11.3806 120.698 11.4724 120.239 11.7477C119.78 11.9313 119.413 12.2985 118.954 12.8492V21.0181H116.659V20.8345Z" fill="black"/>
<path d="M68.1964 9.63668C67.7375 9.45311 67.3703 9.36133 66.9114 9.36133C66.3607 9.36133 65.81 9.5449 65.2593 9.91204C64.8003 10.2792 64.1578 11.0135 63.6071 12.0231V9.5449H61.3125V20.8345H63.6071V14.4095C63.7907 13.4917 64.1578 12.7574 64.6168 12.2067C65.0757 11.656 65.6264 11.4724 66.1771 11.4724C66.5443 11.4724 66.9114 11.5642 67.1867 11.656C67.4621 11.7477 67.8292 11.8395 68.1046 12.1149V9.63668H68.1964Z" fill="black"/>
<path d="M65.6269 24.5059V27.6266H67.5544V27.9019H65.168V24.5059H65.6269Z" fill="#999999"/>
<path d="M69.9411 25.791C70.1247 26.0663 70.2165 26.3417 70.2165 26.8006H68.289C68.289 27.076 68.3808 27.2595 68.4726 27.4431C68.5643 27.6267 68.8397 27.7184 69.0233 27.7184C69.2068 27.7184 69.3904 27.6267 69.4822 27.5349C69.574 27.4431 69.6658 27.3513 69.7576 27.1677H70.1247C70.0329 27.4431 69.9411 27.6267 69.7576 27.7184C69.574 27.902 69.2986 27.9938 68.9315 27.9938C68.5643 27.9938 68.289 27.902 68.1054 27.6267C67.9218 27.3513 67.7383 27.076 67.7383 26.617C67.7383 26.2499 67.8301 25.9745 68.0136 25.6992C68.1972 25.4238 68.4726 25.332 68.8397 25.332C69.3904 25.332 69.7576 25.5156 69.9411 25.791ZM68.4726 25.8827C68.3808 26.0663 68.289 26.2499 68.1972 26.4335H69.7576C69.7576 25.9745 69.4822 25.6992 69.0233 25.6992C68.8397 25.6992 68.6561 25.791 68.4726 25.8827Z" fill="#999999"/>
<path d="M72.5105 25.6995C72.694 25.883 72.694 26.0666 72.694 26.3419V27.9023H72.3269V27.5352C72.2351 27.6269 72.1433 27.8105 71.9598 27.9023C71.7762 27.9941 71.5926 28.0859 71.3173 28.0859C71.0419 28.0859 70.8583 27.9941 70.6748 27.9023C70.4912 27.8105 70.3994 27.6269 70.3994 27.4434C70.3994 27.168 70.4912 26.9844 70.7666 26.8009C70.9501 26.7091 71.2255 26.6173 71.5926 26.6173H72.2351V26.5255C72.2351 26.0666 72.0515 25.883 71.5926 25.883C71.4091 25.883 71.2255 25.883 71.1337 25.9748C71.0419 26.0666 70.9501 26.1584 70.8583 26.3419H70.4912C70.583 26.0666 70.6748 25.883 70.8583 25.7912C71.0419 25.6995 71.3173 25.6077 71.5926 25.6077C72.1433 25.3323 72.3269 25.4241 72.5105 25.6995ZM71.7762 26.7091C71.2255 26.7091 70.9501 26.8927 70.9501 27.2598C70.9501 27.3516 70.9501 27.4434 71.1337 27.5352C71.2255 27.6269 71.3173 27.6269 71.5008 27.6269C71.7762 27.6269 71.9598 27.5352 72.1433 27.3516C72.3269 27.168 72.4187 26.9844 72.4187 26.8009V26.6173L71.7762 26.7091Z" fill="#999999"/>
<path d="M75.6315 24.4141V27.9019H75.2644V27.5348C75.0808 27.8101 74.8055 27.9937 74.4383 27.9937C74.0712 27.9937 73.7958 27.9019 73.6123 27.6265C73.4287 27.3512 73.3369 27.0758 73.3369 26.7087C73.3369 26.3416 73.4287 26.0662 73.6123 25.7908C73.7958 25.5155 74.0712 25.4237 74.4383 25.4237C74.8055 25.4237 75.0808 25.6073 75.2644 25.9744V24.5058H75.6315V24.4141ZM73.8876 25.9744C73.7958 26.158 73.7041 26.3416 73.7041 26.7087C73.7041 26.984 73.7958 27.2594 73.8876 27.443C73.9794 27.6265 74.2548 27.7183 74.5301 27.7183C74.8055 27.7183 74.9891 27.6265 75.0808 27.443C75.1726 27.2594 75.2644 27.0758 75.2644 26.8005V26.7087C75.2644 26.4333 75.1726 26.158 75.0808 25.9744C74.8973 25.7908 74.7137 25.6991 74.5301 25.6991C74.163 25.6991 73.9794 25.7908 73.8876 25.9744Z" fill="#999999"/>
<path d="M78.4765 25.4237H79.1189V25.7909H78.4765V27.3512C78.4765 27.443 78.4765 27.5348 78.5682 27.5348C78.5682 27.5348 78.66 27.6266 78.7518 27.6266H79.0272V27.9937H78.66C78.4765 27.9937 78.2929 27.9019 78.2011 27.8101C78.1093 27.7184 78.1093 27.5348 78.1093 27.3512V25.7909H77.6504V25.4237H78.1093V24.7812L78.4765 24.5977V25.4237Z" fill="#999999"/>
<path d="M79.8535 24.4141V25.8826C79.9453 25.6991 80.0371 25.6073 80.2206 25.5155C80.3124 25.4237 80.496 25.4237 80.6796 25.4237C80.9549 25.4237 81.2303 25.5155 81.322 25.6991C81.5056 25.8826 81.5974 26.158 81.5974 26.4333V27.9937H81.2303V26.4333C81.2303 26.158 81.1385 26.0662 81.0467 25.8826C80.9549 25.7908 80.7713 25.6991 80.5878 25.6991C80.4042 25.6991 80.2206 25.7908 80.1288 25.9744C80.0371 26.158 79.9453 26.3416 79.9453 26.5251V27.9937H79.5781V24.5058H79.8535V24.4141Z" fill="#999999"/>
<path d="M84.1677 25.791C84.3513 26.0663 84.443 26.3417 84.443 26.8006H82.5156C82.5156 27.076 82.6073 27.2595 82.6991 27.4431C82.7909 27.6267 83.0663 27.7184 83.2498 27.7184C83.4334 27.7184 83.617 27.6267 83.7088 27.5349C83.8005 27.4431 83.8923 27.3513 83.9841 27.1677H84.3513C84.2595 27.4431 84.1677 27.6267 83.9841 27.7184C83.8005 27.902 83.5252 27.9938 83.158 27.9938C82.7909 27.9938 82.5156 27.902 82.332 27.6267C82.1484 27.3513 81.9648 27.076 81.9648 26.617C81.9648 26.2499 82.0566 25.9745 82.2402 25.6992C82.4238 25.4238 82.6991 25.332 83.0663 25.332C83.617 25.332 83.8923 25.5156 84.1677 25.791ZM82.6991 25.8827C82.6073 26.0663 82.5156 26.2499 82.4238 26.4335H83.9841C83.8923 25.8827 83.7088 25.6074 83.158 25.6074C82.9745 25.6992 82.7909 25.791 82.6991 25.8827Z" fill="#999999"/>
<path d="M88.9401 24.5059V24.873H86.9208V25.9744H88.8484V26.3416H86.9208V27.6266H89.0319V27.9019H86.5537V24.5059H88.9401Z" fill="#999999"/>
<path d="M91.6023 26.4334V27.9937H91.2351V26.5252C91.2351 26.0662 91.0516 25.7909 90.5926 25.7909C90.4091 25.7909 90.2255 25.8827 90.1337 25.9745C90.0419 26.0662 89.9502 26.2498 89.9502 26.5252V27.9937H89.583V25.5155H89.9502V25.8827C90.0419 25.6991 90.1337 25.6073 90.3173 25.6073C90.4091 25.5155 90.5926 25.5155 90.7762 25.5155C91.3269 25.332 91.6023 25.6991 91.6023 26.4334Z" fill="#999999"/>
<path d="M94.1726 25.791C94.3561 26.0663 94.4479 26.3417 94.4479 26.8006H92.5204C92.5204 27.076 92.6122 27.2595 92.704 27.4431C92.7958 27.6267 93.0712 27.7184 93.2547 27.7184C93.4383 27.7184 93.6219 27.6267 93.7137 27.5349C93.8054 27.4431 93.8972 27.3513 93.989 27.1677H94.3562C94.2644 27.4431 94.1726 27.6267 93.989 27.7184C93.8054 27.902 93.5301 27.9938 93.1629 27.9938C92.7958 27.9938 92.5204 27.902 92.3369 27.6267C92.1533 27.3513 91.9697 27.076 91.9697 26.617C91.9697 26.2499 92.0615 25.9745 92.2451 25.6992C92.4287 25.4238 92.704 25.332 93.0712 25.332C93.7137 25.332 93.989 25.5156 94.1726 25.791ZM92.704 25.8827C92.6122 26.0663 92.5204 26.2499 92.4287 26.4335H93.989C93.8972 25.8827 93.7137 25.6074 93.1629 25.6074C93.0712 25.6992 92.8876 25.791 92.704 25.8827Z" fill="#999999"/>
<path d="M96.3748 25.4238V25.7909C96.283 25.7909 96.0995 25.6992 96.0077 25.6992C95.8241 25.6992 95.6405 25.7909 95.5488 25.9745C95.457 26.1581 95.3652 26.3417 95.3652 26.5252V27.8102H94.998V25.332H95.3652V25.7909C95.457 25.6074 95.5488 25.5156 95.6405 25.4238C95.7323 25.332 95.9159 25.2402 96.0995 25.2402C96.1913 25.332 96.283 25.4238 96.3748 25.4238Z" fill="#999999"/>
<path d="M98.5779 25.8827V25.4238H98.945V27.7184C98.945 28.5445 98.5779 28.9116 97.8436 28.9116C97.4765 28.9116 97.2011 28.8198 97.1093 28.7281C96.9257 28.6363 96.834 28.3609 96.7422 28.0856H97.1093C97.1093 28.2691 97.2011 28.3609 97.2929 28.4527C97.3847 28.5445 97.5682 28.5445 97.8436 28.5445C98.3025 28.5445 98.5779 28.2691 98.5779 27.7184V27.2595C98.3943 27.6266 98.1189 27.7184 97.7518 27.7184C97.3847 27.7184 97.1093 27.6266 96.9257 27.3513C96.7422 27.0759 96.6504 26.8006 96.6504 26.4334C96.6504 26.0663 96.7422 25.7909 96.9257 25.5156C97.1093 25.2402 97.3847 25.1484 97.7518 25.1484C98.1189 25.332 98.3943 25.5156 98.5779 25.8827ZM97.2011 25.9745C97.1093 26.1581 97.0175 26.3416 97.0175 26.617C97.0175 26.8924 97.1093 27.0759 97.2011 27.2595C97.2929 27.4431 97.5682 27.5349 97.8436 27.5349C98.1189 27.5349 98.3025 27.4431 98.3943 27.2595C98.4861 27.0759 98.5779 26.8924 98.5779 26.617C98.5779 26.3416 98.4861 26.0663 98.3943 25.9745C98.2107 25.7909 98.0272 25.6991 97.8436 25.6991C97.4765 25.6991 97.2929 25.7909 97.2011 25.9745Z" fill="#999999"/>
<path d="M99.6796 25.4238L100.414 27.4431L101.148 25.4238H101.607L100.23 28.9117H99.7714L100.23 27.902L99.2207 25.4238H99.6796Z" fill="#999999"/>
<path d="M105.095 24.5059C105.462 24.5059 105.737 24.5976 105.921 24.7812C106.104 24.9648 106.196 25.1484 106.196 25.5155C106.196 25.6991 106.104 25.8826 106.012 26.0662C105.921 26.2498 105.737 26.3416 105.553 26.3416C105.921 26.4334 106.104 26.6169 106.104 26.9841L106.196 27.5348C106.196 27.7183 106.288 27.9019 106.38 28.0855H105.921C105.829 27.9937 105.829 27.8101 105.737 27.6266V27.1676C105.737 26.9841 105.645 26.8005 105.553 26.7087C105.462 26.6169 105.278 26.6169 105.095 26.6169H104.085V28.0855H103.718V24.5976H105.095V24.5059ZM103.993 26.158H105.003C105.278 26.158 105.462 26.0662 105.553 25.9744C105.645 25.8826 105.737 25.6991 105.737 25.5155C105.737 25.3319 105.645 25.1484 105.553 25.0566C105.462 24.9648 105.186 24.873 105.003 24.873H103.993V26.158Z" fill="#999999"/>
<path d="M108.766 25.791C108.95 26.0663 109.042 26.3417 109.042 26.8006H107.114C107.114 27.076 107.206 27.2595 107.298 27.4431C107.39 27.6267 107.665 27.7184 107.848 27.7184C108.032 27.7184 108.216 27.6267 108.307 27.5349C108.399 27.4431 108.491 27.3513 108.583 27.1677H108.95C108.858 27.4431 108.766 27.6267 108.583 27.7184C108.399 27.902 108.124 27.9938 107.757 27.9938C107.39 27.9938 107.114 27.902 106.931 27.6267C106.747 27.3513 106.563 27.076 106.563 26.617C106.563 26.2499 106.655 25.9745 106.839 25.6992C107.022 25.4238 107.298 25.332 107.665 25.332C108.216 25.332 108.491 25.5156 108.766 25.791ZM107.298 25.8827C107.206 26.0663 107.114 26.2499 107.022 26.4335H108.583C108.491 25.8827 108.307 25.6074 107.757 25.6074C107.573 25.6992 107.39 25.791 107.298 25.8827Z" fill="#999999"/>
<path d="M109.592 25.4238L110.326 27.4431L111.06 25.4238H111.427L110.51 27.902H110.142L109.225 25.4238H109.592Z" fill="#999999"/>
<path d="M113.814 25.7914C113.998 26.0668 114.09 26.3421 114.09 26.7093C114.09 27.0764 113.998 27.3518 113.814 27.6271C113.631 27.9025 113.263 27.9943 112.896 27.9943C112.529 27.9943 112.254 27.9025 111.978 27.6271C111.795 27.3518 111.703 27.0764 111.703 26.7093C111.703 26.3421 111.795 26.0668 111.978 25.7914C112.162 25.5161 112.529 25.4243 112.896 25.4243C113.263 25.3325 113.539 25.5161 113.814 25.7914ZM112.254 25.975C112.162 26.1585 112.07 26.3421 112.07 26.7093C112.07 26.9846 112.162 27.1682 112.254 27.3518C112.437 27.5353 112.621 27.6271 112.896 27.6271C113.172 27.6271 113.355 27.5353 113.539 27.3518C113.631 27.1682 113.722 26.8928 113.722 26.7093C113.722 26.4339 113.631 26.1585 113.539 25.975C113.355 25.7914 113.172 25.6996 112.896 25.6996C112.621 25.6996 112.437 25.7914 112.254 25.975Z" fill="#999999"/>
<path d="M115.1 24.4141H114.732V27.9019H115.1V24.4141Z" fill="#999999"/>
<path d="M116.108 25.4238V26.9842C116.108 27.2595 116.2 27.4431 116.292 27.5349C116.384 27.6267 116.567 27.7185 116.751 27.7185C116.934 27.7185 117.026 27.6267 117.21 27.5349C117.302 27.4431 117.393 27.2595 117.485 26.9842V25.4238H117.852V27.902H117.485V27.5349C117.302 27.8102 117.026 27.9938 116.659 27.9938C116.017 27.9938 115.741 27.6267 115.741 26.9842V25.4238H116.108Z" fill="#999999"/>
<path d="M119.138 25.4237H119.78V25.7909H119.138V27.3512C119.138 27.443 119.138 27.5348 119.229 27.5348C119.229 27.5348 119.321 27.6266 119.413 27.6266H119.688V27.9937H119.321C119.138 27.9937 118.954 27.9019 118.862 27.8101C118.77 27.7184 118.77 27.5348 118.77 27.3512V25.7909H118.312V25.4237H118.77V24.7812L119.138 24.5977V25.4237Z" fill="#999999"/>
<path d="M120.698 24.5976C120.79 24.6894 120.79 24.6894 120.79 24.7812C120.79 24.873 120.79 24.9648 120.698 24.9648C120.606 25.0566 120.606 25.0566 120.515 25.0566C120.423 25.0566 120.331 25.0566 120.331 24.9648C120.239 24.873 120.239 24.873 120.239 24.7812C120.239 24.6894 120.239 24.5976 120.331 24.5976C120.423 24.5059 120.423 24.5059 120.515 24.5059C120.606 24.5059 120.606 24.5059 120.698 24.5976ZM120.698 27.9019H120.331V25.4237H120.698V27.9019Z" fill="#999999"/>
<path d="M123.452 25.7914C123.635 26.0668 123.727 26.3421 123.727 26.7093C123.727 27.0764 123.635 27.3518 123.452 27.6271C123.268 27.9025 122.901 27.9943 122.534 27.9943C122.167 27.9943 121.892 27.9025 121.616 27.6271C121.433 27.3518 121.341 27.0764 121.341 26.7093C121.341 26.3421 121.433 26.0668 121.616 25.7914C121.8 25.5161 122.167 25.4243 122.534 25.4243C122.901 25.3325 123.177 25.5161 123.452 25.7914ZM121.892 25.975C121.8 26.1585 121.708 26.3421 121.708 26.7093C121.708 26.9846 121.8 27.1682 121.892 27.3518C122.075 27.5353 122.259 27.6271 122.534 27.6271C122.809 27.6271 122.993 27.5353 123.177 27.3518C123.268 27.1682 123.36 26.8928 123.36 26.7093C123.36 26.4339 123.268 26.1585 123.177 25.975C122.993 25.7914 122.809 25.6996 122.534 25.6996C122.259 25.6996 122.075 25.7914 121.892 25.975Z" fill="#999999"/>
<path d="M126.297 26.4334V27.9937H125.929V26.5252C125.929 26.0662 125.746 25.7909 125.287 25.7909C125.103 25.7909 124.92 25.8827 124.828 25.9745C124.736 26.0662 124.644 26.2498 124.644 26.5252V27.9937H124.277V25.5155H124.644V25.8827C124.736 25.6991 124.828 25.6073 125.012 25.6073C125.103 25.5155 125.287 25.5155 125.471 25.5155C126.021 25.332 126.297 25.6991 126.297 26.4334Z" fill="#999999"/>
</g>
<defs>
<clipPath id="clip0">
<rect width="200" height="29.0041" fill="white"/>
</clipPath>
</defs>
</svg>
