<svg xmlns="http://www.w3.org/2000/svg" viewBox="0 0 220.23 50.47"><defs><style>.cls-1{fill:#fff;}.cls-2{fill:#1e4e9e;}.cls-3{fill:#3da94a;}.cls-4{fill:#eea83f;}</style></defs><title>资源 1</title><g id="图层_2" data-name="图层 2"><g id="图层_1-2" data-name="图层 1"><path class="cls-1" d="M7.47,46.73H3.32V28a11.78,11.78,0,0,1,23.56,0v8H7.47Zm0-14.81H22.73V28A7.63,7.63,0,0,0,7.47,28Z"/><rect class="cls-2" x="13.29" width="4.03" height="12.78"/><rect class="cls-3" x="19.28" y="6.25" width="12.78" height="4.03" transform="translate(5.68 26.37) rotate(-60)"/><rect class="cls-4" x="2.93" y="1.87" width="4.03" height="12.78" transform="translate(-3.47 3.58) rotate(-30)"/><path class="cls-1" d="M29.83,26.22a9.59,9.59,0,0,1,3-7.12,10,10,0,0,1,7.29-2.93,10.19,10.19,0,0,1,3.87.76,10.43,10.43,0,0,1,3.32,2.19,10.7,10.7,0,0,1,2.25,3.3,9.42,9.42,0,0,1,.77,3.8,10.07,10.07,0,0,1-3,7.14A10,10,0,0,1,44,35.54a10.56,10.56,0,0,1-3.9.73,10,10,0,0,1-7.29-2.93,9.59,9.59,0,0,1-3-7.12m4,0a6.43,6.43,0,0,0,1.82,4.6,6,6,0,0,0,8.76,0,6.42,6.42,0,0,0,1.83-4.59,6.3,6.3,0,0,0-1.82-4.55,6,6,0,0,0-8.77,0,6.34,6.34,0,0,0-1.82,4.55"/><polygon class="cls-1" points="59.8 36.27 51.08 16.6 55.21 16.6 60.84 29.4 66.25 16.6 68.83 16.6 74.33 29.36 79.96 16.6 84.12 16.6 75.34 36.27 73.42 36.27 67.58 22.3 61.71 36.27 59.8 36.27"/><path class="cls-1" d="M103,33.84a15.62,15.62,0,0,1-3.9,1.82,14.15,14.15,0,0,1-4.16.61,9.56,9.56,0,0,1-7.2-2.79A10.3,10.3,0,0,1,85.09,26a9.52,9.52,0,0,1,2.58-6.92,9,9,0,0,1,6.75-2.66,8.33,8.33,0,0,1,6.53,2.7,10.58,10.58,0,0,1,2.41,7.29V27H89.1a5.64,5.64,0,0,0,6.08,5.73A11.88,11.88,0,0,0,99,32.06,19,19,0,0,0,103,30ZM89.1,24.3H99.18A5.09,5.09,0,0,0,97.67,21a4.6,4.6,0,0,0-3.29-1.25,5.18,5.18,0,0,0-3.53,1.16A5.78,5.78,0,0,0,89.1,24.3"/><polygon class="cls-1" points="121.73 36.29 121.73 11.61 125.95 11.61 125.95 32.46 133.28 32.46 133.28 36.29 121.73 36.29"/><path class="cls-1" d="M148.92,33.89a10.59,10.59,0,0,1-2.93,2,7.52,7.52,0,0,1-3.14.65,6.89,6.89,0,0,1-5.08-1.85,6.89,6.89,0,0,1-1.85-5.08V16.6h4V28.66a5.24,5.24,0,0,0,1,3.53A4,4,0,0,0,144,33.33a5.6,5.6,0,0,0,2.65-.59,7.15,7.15,0,0,0,2.23-2V16.6h3.92V36.29h-3.92Z"/><path class="cls-1" d="M168.91,35.28a7.43,7.43,0,0,1-2,.75,10.2,10.2,0,0,1-2.27.24q-3.33,0-4.68-1.55c-.9-1-1.35-2.92-1.35-5.66V19.88h-3.35V19.5L162.18,12h.44v4.51h6.16v3.36h-6.16v8.88a5.31,5.31,0,0,0,.61,3.12,2.92,2.92,0,0,0,2.27.7,6.55,6.55,0,0,0,3.41-.94Z"/><path class="cls-1" d="M172,13.6a2.19,2.19,0,1,1,.64,1.58A2.17,2.17,0,0,1,172,13.6"/><rect class="cls-1" x="172.21" y="16.6" width="3.92" height="19.7"/><path class="cls-1" d="M180,26.42a9.39,9.39,0,0,1,2.93-7,10.21,10.21,0,0,1,10.94-2.12,10.1,10.1,0,0,1,3.24,2.14,10.4,10.4,0,0,1,2.21,3.23,9.2,9.2,0,0,1,.76,3.72,10,10,0,0,1-6.19,9.13,10.18,10.18,0,0,1-3.82.72,9.82,9.82,0,0,1-7.14-2.87,9.4,9.4,0,0,1-2.93-7m3.95,0a6.32,6.32,0,0,0,1.78,4.51,5.88,5.88,0,0,0,8.59,0,6.51,6.51,0,0,0,0-9,5.9,5.9,0,0,0-8.6,0,6.26,6.26,0,0,0-1.78,4.46"/><path class="cls-1" d="M203.35,36.29V16.6h3.92V19A10.43,10.43,0,0,1,210.2,17a7.72,7.72,0,0,1,3.15-.65,6.81,6.81,0,0,1,5,1.85,6.92,6.92,0,0,1,1.84,5.1v13h-3.92v-12a5.24,5.24,0,0,0-1-3.53,4,4,0,0,0-3.15-1.14,5.72,5.72,0,0,0-2.65.59,7.19,7.19,0,0,0-2.23,1.93V36.29Z"/><path class="cls-1" d="M118.84,16.73h0a5.33,5.33,0,0,0-2.16-.47,4.57,4.57,0,0,0-2.85,1,14.75,14.75,0,0,0-2.95,3.6V16.6H107V36.29h3.92V25.17a8.44,8.44,0,0,1,1.71-3.83A3.63,3.63,0,0,1,115.37,20a4.57,4.57,0,0,1,1.83.37,5.89,5.89,0,0,1,1.64.83Z"/><path class="cls-1" d="M114.31,42.69v5.4h3.47v.6h-4.15v-6Z"/><path class="cls-1" d="M121.86,44.93a3,3,0,0,1,.5,1.78h-3.43a1.89,1.89,0,0,0,.4,1.13,1.22,1.22,0,0,0,1,.41,1.39,1.39,0,0,0,.87-.27,1.53,1.53,0,0,0,.44-.69h.67a1.9,1.9,0,0,1-.59,1,2,2,0,0,1-1.39.49,1.92,1.92,0,0,1-1.49-.62,2.66,2.66,0,0,1,0-3.28,1.82,1.82,0,0,1,1.5-.68A1.84,1.84,0,0,1,121.86,44.93Zm-2.5.24a1.69,1.69,0,0,0-.41,1h2.72c-.09-.93-.55-1.39-1.37-1.39A1.21,1.21,0,0,0,119.36,45.17Z"/><path class="cls-1" d="M126.43,44.71a1.75,1.75,0,0,1,.38,1.19v2.79h-.63V48a2.06,2.06,0,0,1-.66.58,2.18,2.18,0,0,1-1.09.27,1.54,1.54,0,0,1-1-.33,1.1,1.1,0,0,1-.41-.87,1.23,1.23,0,0,1,.6-1.12,2.79,2.79,0,0,1,1.52-.37l1,0v-.23c0-.73-.38-1.09-1.14-1.09a1.41,1.41,0,0,0-.78.19,1,1,0,0,0-.44.63l-.66-.05a1.49,1.49,0,0,1,.67-1,2.33,2.33,0,0,1,1.26-.3A1.78,1.78,0,0,1,126.43,44.71Zm-1.29,1.91c-1,0-1.47.34-1.47,1a.62.62,0,0,0,.25.5,1.11,1.11,0,0,0,.65.19,1.69,1.69,0,0,0,1.1-.4,1.19,1.19,0,0,0,.47-.9v-.37Z"/><path class="cls-1" d="M131.74,42.57v6.12h-.63V48a1.55,1.55,0,0,1-1.45.83,1.81,1.81,0,0,1-1.49-.69,2.54,2.54,0,0,1-.49-1.62,2.48,2.48,0,0,1,.49-1.58,1.72,1.72,0,0,1,1.46-.69,1.58,1.58,0,0,1,1.44.91V42.57Zm-3.05,2.71a2.08,2.08,0,0,0-.32,1.22,2.13,2.13,0,0,0,.32,1.24,1.19,1.19,0,0,0,1.06.51,1.16,1.16,0,0,0,1-.5,2,2,0,0,0,.32-1.19v-.08a2,2,0,0,0-.36-1.23,1.13,1.13,0,0,0-.95-.47A1.25,1.25,0,0,0,128.69,45.28Z"/><path class="cls-1" d="M136.74,44.34h1.08v.57h-1.08v2.76a.54.54,0,0,0,.09.35.41.41,0,0,0,.32.11h.56v.56h-.66a.92.92,0,0,1-.76-.28,1.06,1.06,0,0,1-.21-.74V44.91h-.88v-.57h.88V43.22l.66-.28Z"/><path class="cls-1" d="M139.24,42.57v2.49a1.52,1.52,0,0,1,1.39-.83,1.49,1.49,0,0,1,1.17.44,1.84,1.84,0,0,1,.41,1.28v2.74h-.68V46.05a1.43,1.43,0,0,0-.28-.93,1.08,1.08,0,0,0-.84-.33,1,1,0,0,0-.84.4,1.58,1.58,0,0,0-.33,1v2.48h-.68V42.57Z"/><path class="cls-1" d="M146.61,44.93a3,3,0,0,1,.51,1.78h-3.44a1.89,1.89,0,0,0,.4,1.13,1.24,1.24,0,0,0,1,.41,1.38,1.38,0,0,0,.86-.27,1.53,1.53,0,0,0,.44-.69H147a1.9,1.9,0,0,1-.59,1,2,2,0,0,1-1.38.49,1.92,1.92,0,0,1-1.5-.62,2.7,2.7,0,0,1,0-3.28,1.82,1.82,0,0,1,1.5-.68A1.84,1.84,0,0,1,146.61,44.93Zm-2.5.24a1.69,1.69,0,0,0-.41,1h2.72c-.09-.93-.55-1.39-1.37-1.39A1.21,1.21,0,0,0,144.11,45.17Z"/><path class="cls-1" d="M155,42.69v.59h-3.56v2h3.36v.6h-3.36v2.2h3.71v.6h-4.4v-6Z"/><path class="cls-1" d="M159.72,46v2.67h-.67V46.07c0-.85-.39-1.27-1.15-1.27a1.1,1.1,0,0,0-.78.32,1.42,1.42,0,0,0-.39,1v2.62h-.67V44.34h.67V45a1.6,1.6,0,0,1,1.37-.75C159.17,44.23,159.72,44.82,159.72,46Z"/><path class="cls-1" d="M164.13,44.93a3,3,0,0,1,.51,1.78h-3.43a1.89,1.89,0,0,0,.39,1.13,1.24,1.24,0,0,0,1,.41,1.38,1.38,0,0,0,.86-.27,1.53,1.53,0,0,0,.44-.69h.67a1.9,1.9,0,0,1-.59,1,2,2,0,0,1-1.38.49,1.92,1.92,0,0,1-1.5-.62,2.7,2.7,0,0,1,0-3.28,1.82,1.82,0,0,1,1.5-.68A1.84,1.84,0,0,1,164.13,44.93Zm-2.5.24a1.69,1.69,0,0,0-.41,1h2.72c-.08-.93-.55-1.39-1.37-1.39A1.21,1.21,0,0,0,161.63,45.17Z"/><path class="cls-1" d="M167.93,44.33V45a2.06,2.06,0,0,0-.64-.09,1,1,0,0,0-.85.44,1.56,1.56,0,0,0-.35,1v2.3h-.66V44.34h.66v.76a1.75,1.75,0,0,1,.45-.6,1.25,1.25,0,0,1,.8-.27A1.49,1.49,0,0,1,167.93,44.33Z"/><path class="cls-1" d="M171.75,45.09v-.75h.67v4c0,1.39-.66,2.08-2,2.08a2.17,2.17,0,0,1-1.35-.35,1.59,1.59,0,0,1-.58-1.06h.67a1,1,0,0,0,.37.65,1.53,1.53,0,0,0,.89.22c.87,0,1.31-.49,1.31-1.45v-.76a1.57,1.57,0,0,1-1.46.87,1.8,1.8,0,0,1-1.44-.62,2.59,2.59,0,0,1,0-3.11,1.75,1.75,0,0,1,1.44-.63A1.56,1.56,0,0,1,171.75,45.09Zm-2.38.16a1.78,1.78,0,0,0-.35,1.17,1.88,1.88,0,0,0,.31,1.12,1.21,1.21,0,0,0,1,.49,1.26,1.26,0,0,0,1-.46,1.81,1.81,0,0,0,.35-1.15,1.83,1.83,0,0,0-.35-1.17,1.23,1.23,0,0,0-1-.47A1.19,1.19,0,0,0,169.37,45.25Z"/><path class="cls-1" d="M173.72,44.34l1.33,3.43,1.28-3.43h.74l-2.38,6H174l.75-1.77L173,44.34Z"/><path class="cls-1" d="M183.11,42.69a2.15,2.15,0,0,1,1.41.41,1.53,1.53,0,0,1,.54,1.26,1.45,1.45,0,0,1-.28.89,1.36,1.36,0,0,1-.81.52v0a1.15,1.15,0,0,1,1,1.09l.09.93a1.55,1.55,0,0,0,.32.88h-.75a1.52,1.52,0,0,1-.24-.8l-.08-.8a1,1,0,0,0-.38-.76,1.43,1.43,0,0,0-.87-.22h-1.81v2.58h-.69v-6Zm-1.9,2.82H183a1.53,1.53,0,0,0,1-.31,1.22,1.22,0,0,0,0-1.64,1.6,1.6,0,0,0-1-.28h-1.81Z"/><path class="cls-1" d="M189.49,44.93a3,3,0,0,1,.51,1.78h-3.44a1.89,1.89,0,0,0,.4,1.13,1.22,1.22,0,0,0,1,.41,1.39,1.39,0,0,0,.87-.27,1.53,1.53,0,0,0,.44-.69h.67a1.9,1.9,0,0,1-.59,1,2,2,0,0,1-1.39.49,1.92,1.92,0,0,1-1.49-.62,2.7,2.7,0,0,1,0-3.28,1.82,1.82,0,0,1,1.5-.68A1.84,1.84,0,0,1,189.49,44.93Zm-2.5.24a1.69,1.69,0,0,0-.41,1h2.72c-.09-.93-.55-1.39-1.37-1.39A1.21,1.21,0,0,0,187,45.17Z"/><path class="cls-1" d="M191,44.34l1.25,3.51,1.24-3.51h.74l-1.64,4.35h-.69l-1.64-4.35Z"/><path class="cls-1" d="M198.34,44.9a2.39,2.39,0,0,1,.55,1.62,2.35,2.35,0,0,1-.55,1.61,2.13,2.13,0,0,1-3.12,0,2.35,2.35,0,0,1-.55-1.61,2.39,2.39,0,0,1,.55-1.62,2.15,2.15,0,0,1,3.12,0Zm-2.64.42a2,2,0,0,0-.34,1.2,2,2,0,0,0,.34,1.2,1.37,1.37,0,0,0,2.16,0,2,2,0,0,0,.35-1.2,2,2,0,0,0-.35-1.2,1.37,1.37,0,0,0-2.16,0Z"/><path class="cls-1" d="M200.56,42.57v6.12h-.66V42.57Z"/><path class="cls-1" d="M202.41,44.34V47a1.45,1.45,0,0,0,.26.93,1.11,1.11,0,0,0,.86.31,1.07,1.07,0,0,0,.77-.34,1.53,1.53,0,0,0,.43-.91V44.34h.68v4.35h-.68V48a1.63,1.63,0,0,1-1.41.79c-1.06,0-1.58-.6-1.58-1.78V44.34Z"/><path class="cls-1" d="M207.61,44.34h1.07v.57h-1.07v2.76a.49.49,0,0,0,.09.35.41.41,0,0,0,.32.11h.56v.56h-.66a1,1,0,0,1-.77-.28,1.11,1.11,0,0,1-.21-.74V44.91h-.87v-.57h.87V43.22l.67-.28Z"/><path class="cls-1" d="M210.35,42.85a.43.43,0,0,1,.15.35.49.49,0,0,1-.15.36.52.52,0,0,1-.36.14.51.51,0,0,1-.36-.14.46.46,0,0,1-.15-.36.4.4,0,0,1,.15-.35.44.44,0,0,1,.36-.15A.46.46,0,0,1,210.35,42.85Zm0,1.49v4.35h-.67V44.34Z"/><path class="cls-1" d="M215.08,44.9a2.63,2.63,0,0,1,0,3.23,2.13,2.13,0,0,1-3.12,0,2.35,2.35,0,0,1-.55-1.61A2.39,2.39,0,0,1,212,44.9a1.91,1.91,0,0,1,1.56-.67A1.89,1.89,0,0,1,215.08,44.9Zm-2.63.42a2,2,0,0,0-.34,1.2,2,2,0,0,0,.34,1.2,1.25,1.25,0,0,0,1.08.53,1.3,1.3,0,0,0,1.08-.53,2,2,0,0,0,.35-1.2,2,2,0,0,0-.35-1.2,1.3,1.3,0,0,0-1.08-.53A1.25,1.25,0,0,0,212.45,45.32Z"/><path class="cls-1" d="M220.17,46v2.67h-.67V46.07c0-.85-.39-1.27-1.15-1.27a1.1,1.1,0,0,0-.78.32,1.47,1.47,0,0,0-.39,1v2.62h-.67V44.34h.67V45a1.6,1.6,0,0,1,.58-.55,1.52,1.52,0,0,1,.79-.2C219.62,44.23,220.17,44.82,220.17,46Z"/></g></g></svg>