<svg xmlns="http://www.w3.org/2000/svg" viewBox="0 0 193.45 42.56"><defs><style>.cls-1{fill:#fff;}.cls-2{fill:#074acd;}.cls-3{fill:#39b54a;}.cls-4{fill:#fbb03b;}</style></defs><title>资源 2@4x-2</title><g id="图层_2" data-name="图层 2"><g id="图层_1-2" data-name="图层 1"><path class="cls-1" d="M108.83,35.06c-1,0-1.53.38-1.57,1.09,0,.53.52.91,1.63,1.15,1.75.32,2.58,1,2.5,2S110.49,41,109,41s-2.49-.6-2.75-1.92l.74-.25a1.69,1.69,0,0,0,2,1.59c1,0,1.59-.42,1.63-1.21.11-.6-.49-1-1.79-1.28-1.62-.32-2.39-.93-2.3-1.82.08-1.09.83-1.67,2.24-1.73a2.2,2.2,0,0,1,2.46,1.76l-.77.22a1.57,1.57,0,0,0-1.63-1.34"/><path class="cls-1" d="M118.71,37.87v3H118V38c0-.89-.3-1.33-1-1.31s-1.12.51-1.18,1.35v2.84h-.67V38c0-.89-.29-1.33-.93-1.31A1.26,1.26,0,0,0,113.08,38v2.91h-.67V36.27h.67V37a1.48,1.48,0,0,1,1.28-.83,1.3,1.3,0,0,1,1.44,1,1.54,1.54,0,0,1,1.38-1c1,0,1.55.55,1.53,1.72"/><path class="cls-1" d="M120.38,37.71l-.68-.19a1.79,1.79,0,0,1,2.08-1.37c1.26,0,1.87.57,1.83,1.79v1.88a1.48,1.48,0,0,0,.25,1.09h-.67a.92.92,0,0,1-.22-.64,2.16,2.16,0,0,1-1.83.77c-1,0-1.5-.45-1.56-1.22s.58-1.39,1.69-1.5A3.91,3.91,0,0,0,122.9,38c.07-.85-.32-1.26-1.15-1.22s-1.27.28-1.37,1m2.52,1.41v-.61c-.08.17-.54.29-1.37.36s-1.27.4-1.25.89.37.7,1.06.7c1-.06,1.48-.51,1.56-1.34"/><path class="cls-1" d="M126.48,36.85a1,1,0,0,0-.73.45,1.77,1.77,0,0,0-.29,1.12v2.52h-.67V36.27h.67v.84h0a1.19,1.19,0,0,1,1.86-.71l-.29.64a1,1,0,0,0-.58-.19"/><path class="cls-1" d="M129.59,40.53l.13.35A1.83,1.83,0,0,1,129,41c-.66,0-1-.32-1-1V36.85h-.64v-.58h.64V35l.67-.35v1.59h.87v.58h-.87V40c0,.41.15.6.52.58a2,2,0,0,0,.35,0"/><polygon class="cls-1" points="133.49 40.37 137.55 40.37 137.55 40.95 132.75 40.95 132.75 34.55 137.36 34.55 137.36 35.16 133.49 35.16 133.49 37.33 137.13 37.33 137.13 37.97 133.49 37.97 133.49 40.37"/><path class="cls-1" d="M142.38,37.94v3h-.67V38c0-.85-.38-1.29-1.09-1.31a1.41,1.41,0,0,0-1.37,1.35v2.84l-.68,0V36.27h.68V37a1.82,1.82,0,0,1,1.53-.83c1.07,0,1.6.59,1.6,1.79"/><path class="cls-1" d="M146.89,39.47l.7.2a1.82,1.82,0,0,1-2,1.37,2.12,2.12,0,0,1-2.21-2.37c.06-1.6.79-2.43,2.18-2.49s2.06.87,2.11,2.49v.16h-3.55c0,1.05.52,1.6,1.44,1.67a1.29,1.29,0,0,0,1.37-1m-2.78-1.21h2.78a1.33,1.33,0,0,0-1.37-1.47,1.41,1.41,0,0,0-1.41,1.47"/><path class="cls-1" d="M150.25,36.85a1,1,0,0,0-.74.45,1.77,1.77,0,0,0-.28,1.12v2.52h-.68V36.27h.68v.84h0a1.19,1.19,0,0,1,1.85-.71l-.29.64a1,1,0,0,0-.57-.19"/><path class="cls-1" d="M153.51,41.23c-.32,1-.8,1.42-1.44,1.31a1.59,1.59,0,0,1-.67-.19l.1-.41a1.42,1.42,0,0,0,.44.06c.34,0,.61-.18.8-.61.07-.15.15-.36.26-.64l-1.79-4.48H152c.78,2.27,1.2,3.44,1.24,3.52a.34.34,0,0,0,0,.13,2.08,2.08,0,0,1,.06.26h0a.55.55,0,0,1,.1-.32l1.31-3.59h.73q-1.69,4.29-2,5"/><path class="cls-1" d="M163.91,36.43c0-.1,0-.42.09-1,0-.18,0-.29,0-.36l0,0a4.63,4.63,0,0,1-.22.83l-2.05,5h-.41l-2-5c-.09-.34-.15-.61-.19-.8l0,0q.06.84.06,1.35v4.47h-.67V34.55h1l1.85,4.64c.09.25.17.55.26.89h0a5.74,5.74,0,0,1,.26-.86l1.85-4.67h1v6.39h-.73Z"/><path class="cls-1" d="M166.4,37.71l-.67-.19a1.78,1.78,0,0,1,2.08-1.37c1.26,0,1.86.57,1.82,1.79v1.88a1.48,1.48,0,0,0,.26,1.09h-.67a.93.93,0,0,1-.23-.64,2.13,2.13,0,0,1-1.82.77c-1,0-1.5-.45-1.57-1.22s.59-1.39,1.7-1.5a4,4,0,0,0,1.63-.35c.06-.85-.32-1.26-1.15-1.22s-1.27.28-1.38,1m2.53,1.41v-.61q-.13.26-1.38.36c-.85.1-1.27.4-1.25.89s.38.7,1.06.7c1-.06,1.48-.51,1.57-1.34"/><path class="cls-1" d="M174.62,37.94v3H174V38c0-.85-.39-1.29-1.09-1.31a1.41,1.41,0,0,0-1.37,1.35v2.84l-.68,0V36.27h.68V37a1.82,1.82,0,0,1,1.53-.83c1.07,0,1.6.59,1.6,1.79"/><path class="cls-1" d="M176.38,37.71l-.67-.19a1.78,1.78,0,0,1,2.08-1.37c1.25,0,1.86.57,1.82,1.79v1.88a1.48,1.48,0,0,0,.26,1.09h-.68a.92.92,0,0,1-.22-.64,2.13,2.13,0,0,1-1.82.77c-1,0-1.51-.45-1.57-1.22s.59-1.39,1.69-1.5a4,4,0,0,0,1.64-.35c.06-.85-.32-1.26-1.16-1.22s-1.26.28-1.37,1m2.53,1.41v-.61q-.14.26-1.38.36c-.85.1-1.27.4-1.25.89s.38.7,1.06.7c1-.06,1.48-.51,1.57-1.34"/><path class="cls-1" d="M184.63,36.27v4.07c.09,1.53-.65,2.27-2.21,2.2a2.13,2.13,0,0,1-1.72-.67l.29-.35a2.54,2.54,0,0,0,1.4.48c1.05,0,1.56-.47,1.54-1.47v-.48c-.22.51-.74.76-1.57.73-1.19-.06-1.81-.81-1.85-2.23s.73-2.31,2-2.37a1.65,1.65,0,0,1,1.41.77v-.68Zm-.7,2.5v-.7a1.3,1.3,0,0,0-1.28-1.35c-.94.05-1.43.65-1.47,1.83s.5,1.69,1.37,1.75,1.36-.53,1.38-1.53"/><path class="cls-1" d="M189.11,39.47l.7.2a1.83,1.83,0,0,1-2,1.37,2.12,2.12,0,0,1-2.21-2.37c.06-1.6.79-2.43,2.17-2.49s2.07.87,2.11,2.49v.16h-3.55c.05,1.05.53,1.6,1.44,1.67a1.29,1.29,0,0,0,1.38-1m-2.78-1.21h2.78a1.33,1.33,0,0,0-1.38-1.47,1.41,1.41,0,0,0-1.4,1.47"/><path class="cls-1" d="M192.47,36.85a1,1,0,0,0-.74.45,1.77,1.77,0,0,0-.29,1.12v2.52h-.67V36.27h.67v.84h0a1.19,1.19,0,0,1,1.85-.71L193,37a1,1,0,0,0-.57-.19"/><path class="cls-1" d="M6.56,41.05H2.92V24.63a10.35,10.35,0,0,1,20.69,0v7.05h-17Zm0-13H20V24.63a6.71,6.71,0,0,0-13.41,0Z"/><rect class="cls-2" x="11.68" width="3.54" height="11.23"/><rect class="cls-3" x="16.94" y="5.49" width="11.23" height="3.54" transform="translate(4.99 23.16) rotate(-60)"/><rect class="cls-4" x="2.57" y="1.64" width="3.54" height="11.23" transform="translate(-3.05 3.14) rotate(-30)"/><path class="cls-1" d="M26.2,23a8.44,8.44,0,0,1,2.63-6.26,8.81,8.81,0,0,1,6.4-2.57,9,9,0,0,1,3.41.67,9.32,9.32,0,0,1,2.91,1.92,9.72,9.72,0,0,1,2,2.9A8.42,8.42,0,0,1,44.21,23a8.87,8.87,0,0,1-2.66,6.28,8.86,8.86,0,0,1-2.9,1.91,9.28,9.28,0,0,1-3.42.64,8.81,8.81,0,0,1-6.4-2.57A8.43,8.43,0,0,1,26.2,23m3.55,0a5.64,5.64,0,0,0,1.59,4,5.26,5.26,0,0,0,7.7,0,5.82,5.82,0,0,0,0-8,5.28,5.28,0,0,0-7.71,0,5.6,5.6,0,0,0-1.59,4"/><polygon class="cls-1" points="52.52 31.86 44.87 14.58 48.5 14.58 53.44 25.82 58.2 14.58 60.47 14.58 65.3 25.79 70.24 14.58 73.89 14.58 66.17 31.86 64.49 31.86 59.36 19.59 54.21 31.86 52.52 31.86"/><path class="cls-1" d="M90.5,29.72a13.15,13.15,0,0,1-3.43,1.6,12.34,12.34,0,0,1-3.64.54,8.4,8.4,0,0,1-6.33-2.45,9.07,9.07,0,0,1-2.36-6.54A8.35,8.35,0,0,1,77,16.79a7.9,7.9,0,0,1,5.93-2.34,7.29,7.29,0,0,1,5.73,2.37,9.28,9.28,0,0,1,2.12,6.41v.49H78.27a5,5,0,0,0,5.34,5,10.35,10.35,0,0,0,3.32-.59,16.48,16.48,0,0,0,3.57-1.78ZM78.27,21.35h8.85a4.48,4.48,0,0,0-1.32-2.94,4.07,4.07,0,0,0-2.9-1.1,4.53,4.53,0,0,0-3.09,1,5,5,0,0,0-1.54,3"/><polygon class="cls-1" points="106.93 31.88 106.93 10.19 110.64 10.19 110.64 28.51 117.08 28.51 117.08 31.88 106.93 31.88"/><path class="cls-1" d="M130.81,29.76a9.13,9.13,0,0,1-2.57,1.81,6.75,6.75,0,0,1-2.76.57,5.63,5.63,0,0,1-6.09-6.08V14.58h3.48v10.6a4.59,4.59,0,0,0,.89,3.1,3.55,3.55,0,0,0,2.76,1,5,5,0,0,0,2.34-.52,6.16,6.16,0,0,0,1.95-1.71V14.58h3.45v17.3h-3.45Z"/><path class="cls-1" d="M148.37,31a6.33,6.33,0,0,1-1.73.66,9,9,0,0,1-2,.21c-2,0-3.32-.46-4.11-1.36s-1.19-2.57-1.19-5V17.46h-2.94v-.33l6.05-6.58h.39v4h5.41v3h-5.41v7.81a4.65,4.65,0,0,0,.53,2.73,2.58,2.58,0,0,0,2,.62,5.67,5.67,0,0,0,3-.83Z"/><path class="cls-1" d="M151.05,12A1.91,1.91,0,0,1,153,10,1.91,1.91,0,0,1,154.94,12,1.91,1.91,0,0,1,153,13.89,1.91,1.91,0,0,1,151.05,12"/><rect class="cls-1" x="151.27" y="14.58" width="3.45" height="17.3"/><path class="cls-1" d="M158.11,23.21a8.23,8.23,0,0,1,2.57-6.13,9,9,0,0,1,9.61-1.86,9,9,0,0,1,2.85,1.88,9.33,9.33,0,0,1,1.94,2.84,8.24,8.24,0,0,1,.66,3.27,8.73,8.73,0,0,1-5.44,8,8.87,8.87,0,0,1-3.35.63,8.61,8.61,0,0,1-6.27-2.52,8.23,8.23,0,0,1-2.57-6.13m3.47,0a5.53,5.53,0,0,0,1.56,4,5.16,5.16,0,0,0,7.54,0,5.73,5.73,0,0,0,0-7.87,5.19,5.19,0,0,0-7.55,0,5.48,5.48,0,0,0-1.56,3.92"/><path class="cls-1" d="M178.62,31.88V14.58h3.45V16.7a9.13,9.13,0,0,1,2.57-1.81,6.77,6.77,0,0,1,2.77-.57A5.93,5.93,0,0,1,191.83,16a6,6,0,0,1,1.62,4.47V31.88H190V21.3a4.59,4.59,0,0,0-.89-3.1,3.49,3.49,0,0,0-2.76-1,4.91,4.91,0,0,0-2.33.52,6.22,6.22,0,0,0-2,1.69V31.88Z"/><path class="cls-1" d="M104.39,14.69h0a4.86,4.86,0,0,0-1.9-.41,4,4,0,0,0-2.5.9,13,13,0,0,0-2.59,3.16V14.58H93.94v17.3h3.45V22.11a7.37,7.37,0,0,1,1.5-3.36,3.17,3.17,0,0,1,2.45-1.18,4.2,4.2,0,0,1,1.61.32,5.15,5.15,0,0,1,1.44.73Z"/></g></g></svg>