<?xml version="1.0" encoding="UTF-8"?>
<svg width="16px" height="16px" viewBox="0 0 16 16" version="1.1" xmlns="http://www.w3.org/2000/svg" xmlns:xlink="http://www.w3.org/1999/xlink">
    <title>编组 3</title>
    <g id="调频监测" stroke="none" stroke-width="1" fill="none" fill-rule="evenodd" fill-opacity="0.85">
        <g id="9、调频监测" transform="translate(-996.000000, -1884.000000)" fill="#3D7EFF">
            <g id="编组-24" transform="translate(744.000000, 1520.000000)">
                <g id="编组-7" transform="translate(0.000000, 352.000000)">
                    <g id="编组-5" transform="translate(244.000000, 4.000000)">
                        <g id="编组-3" transform="translate(8.000000, 8.000000)">
                            <path d="M16,4.86222222 L16,14.0444444 L3.10222222,14.0444444 L3.10222222,12.4622222 L0,12.4622222 L0,1.77777778 L14.3111111,1.77777778 L14.3111111,4.86222222 L16,4.86222222 Z M6.63111111,7.17333333 L4.34666667,9.45777778 L6.62222222,11.7333333 L7.44,10.9155556 L5.98222222,9.45777778 L7.44888889,7.99111111 L6.63111111,7.17333333 Z M12.4622222,7.17333333 L11.6444444,7.99111111 L13.12,9.46666667 L11.6622222,10.9155556 L12.48,11.7333333 L14.7466667,9.45777778 L12.4622222,7.17333333 Z M10.56,7.19111111 L9.42222222,7.19111111 L8.70222222,11.6177778 L9.84,11.6177778 L10.56,7.19111111 Z M12.9866667,3.10222222 L1.32444444,3.10222222 L1.32444444,11.1377778 L3.10222222,11.1377778 L3.10222222,4.86222222 L12.9866667,4.86222222 L12.9866667,3.10222222 Z" id="形状结合"></path>
                        </g>
                    </g>
                </g>
            </g>
        </g>
    </g>
</svg>