<?xml version="1.0" encoding="UTF-8"?>
<svg width="16px" height="16px" viewBox="0 0 16 16" version="1.1" xmlns="http://www.w3.org/2000/svg" xmlns:xlink="http://www.w3.org/1999/xlink">
    <title>编组 3</title>
    <g id="调频监测" stroke="none" stroke-width="1" fill="none" fill-rule="evenodd" fill-opacity="0.45">
        <g id="9、调频监测" transform="translate(-996.000000, -1972.000000)" fill="#050A19">
            <g id="编组-24" transform="translate(744.000000, 1520.000000)">
                <g id="编组-7" transform="translate(0.000000, 440.000000)">
                    <g id="编组-5" transform="translate(244.000000, 4.000000)">
                        <g id="编组-3" transform="translate(8.000000, 8.000000)">
                            <path d="M12.1119676,6.03988809 L14.4847954,4.89693499 L15.2757744,5.70513783 L12.9028372,6.8482004 L12.1119676,6.03988809 Z M10.5302283,4.42326347 L13.6940352,1.19023316 L14.4847954,1.998436 L11.3209885,5.23168526 L10.5302283,4.42326347 Z M8.94839791,2.80685778 L10.0668291,0.381683645 L10.8579176,1.19023315 L9.73903034,3.61506062 L8.94839791,2.80685778 Z M10.1480398,12.8610062 L10.7753384,13.6250732 C11.2289399,14.0873413 11.9606029,14.0850606 12.4105552,13.6187967 L13.638131,12.3559707 C14.0880833,11.8908563 14.0845437,11.1340875 13.6315079,10.6741001 L13.0028225,9.90981423 C12.6817564,9.58292778 12.2194883,9.41572598 11.8157335,9.55521286 L10.5420697,8.23650081 C11.4435618,7.30603486 12.910555,7.30182014 13.8155867,8.22590017 L15.2659218,9.82849401 C16.1721031,10.7545081 16.1765367,12.2594885 15.2753913,13.1911039 L13.2353068,15.3006673 C12.3351831,16.2289803 10.8689744,16.2343262 9.96144302,15.3093339 L8.51156405,13.7066123 C7.60653233,12.7794488 7.60242709,11.2756179 8.50107289,10.3452614 L9.77873255,11.6378641 C9.67402159,12.0354701 9.84157005,12.5479316 10.1480398,12.8610062 Z M6.18560896,4.29848247 C6.3144952,3.89220984 6.15641615,3.42685825 5.84184542,3.10546371 L5.37034511,2.33238347 C4.92256395,1.87776024 4.20389179,1.87991322 3.7623871,2.33785712 L2.55977121,3.58004752 C2.11768265,4.03775423 2.11963492,4.77410628 2.56444205,5.22975126 L3.03594236,6.0040722 L3.97850509,6.67244151 C4.27743943,6.97708669 3.82611865,6.47570023 4.2067381,6.36848966 L5.45040637,7.64523704 C4.56566364,8.55962871 3.12720636,8.56373395 2.2368805,7.65481594 L0.960133114,6.05939258 C0.0683293815,5.15047455 0.0647897431,3.67333681 0.950207552,2.76020408 L2.95257866,0.687916196 C3.83890875,-0.224304262 5.27851549,-0.230690186 6.16668838,0.67718784 L7.4467382,2.27567644 C8.33580511,3.18253272 8.3388886,4.66184168 7.45494868,5.57417161 L6.18560896,4.29848247 Z M3.16380686,9.94265611 L0.790979079,11.0857187 L0,10.2774064 L2.37293726,9.1343438 L3.16380686,9.94265611 Z M4.74554608,11.3510265 L1.58184868,14.5844035 L0.790979079,13.7762007 L3.95478594,10.5428237 L4.74554608,11.3510265 Z M6.32737652,12.9677607 L5.26505031,15.3926976 L4.4744179,14.5843853 L5.53616025,12.1593206 L6.32737652,12.9677607 Z" id="形状"></path>
                        </g>
                    </g>
                </g>
            </g>
        </g>
    </g>
</svg>