<?xml version="1.0" encoding="UTF-8"?>
<svg width="16px" height="16px" viewBox="0 0 16 16" version="1.1" xmlns="http://www.w3.org/2000/svg" xmlns:xlink="http://www.w3.org/1999/xlink">
    <title>编组 3</title>
    <g id="调频监测" stroke="none" stroke-width="1" fill="none" fill-rule="evenodd" fill-opacity="0.9">
        <g id="9、调频监测" transform="translate(-1730.000000, -242.000000)" fill="#FAAD14">
            <g id="编组-7" transform="translate(1444.000000, 230.000000)">
                <g id="编组-5" transform="translate(278.000000, 4.000000)">
                    <g id="编组-3" transform="translate(8.000000, 8.000000)">
                        <path d="M3.88294164,14.9410349 C3.88294164,15.5263538 4.35885025,16 4.94696496,16 L11.5942089,16 C12.1823236,16 12.6582322,15.5263538 12.6582322,14.9410349 L12.6582322,5.41419976 C12.6582322,4.82888087 12.1823236,4.35523466 11.5942089,4.35523466 L10.265147,4.35523466 L10.265147,3.87966306 C10.265147,3.55619735 10.0039776,3.29819495 9.68090147,3.29819495 L6.86027236,3.29819495 C6.5352616,3.29819495 6.27602683,3.55812274 6.27602683,3.87966306 L6.27602683,4.35523466 L4.94696496,4.35523466 C4.35885025,4.35523466 3.88294164,4.82888087 3.88294164,5.41419976 L3.88294164,14.9410349 Z M5.79624904,12.5593261 L10.7410556,12.5593261 C11.0660664,12.5593261 11.3253012,12.8192539 11.3253012,13.1407942 L11.3253012,14.0938628 C11.3253012,14.4173285 11.0641318,14.6753309 10.7410556,14.6753309 L5.79624904,14.6753309 C5.47123828,14.6753309 5.2120035,14.4154031 5.2120035,14.0938628 L5.2120035,13.1407942 C5.2120035,12.8192539 5.47317286,12.5593261 5.79624904,12.5593261 Z M8.22028763,0 C7.86045429,0 7.56833152,0.290734055 7.56833152,0.648856799 L7.56833152,1.84452467 C7.56833152,2.20264741 7.86045429,2.49338147 8.22028763,2.49338147 C8.58012098,2.49338147 8.87224375,2.20264741 8.87224375,1.84452467 L8.87224375,0.648856799 C8.87224375,0.290734055 8.58012098,0 8.22028763,0 L8.22028763,0 Z M3.88100705,0.852948255 C3.5695384,1.03200963 3.46313607,1.42864019 3.64305274,1.73862816 L4.24470957,2.77448857 C4.42462624,3.08447653 4.82315134,3.19037304 5.13461999,3.01131167 C5.44608863,2.8322503 5.55249097,2.43561974 5.37257429,2.12563177 L4.77091747,1.08977136 C4.5910008,0.779783394 4.1924757,0.673886883 3.88100705,0.852948255 Z M12.5634374,0.852948255 C12.874906,1.03200963 12.9813084,1.42864019 12.8013917,1.73862816 L12.1997349,2.77448857 C12.0198182,3.08447653 11.6212931,3.19037304 11.3098245,3.01131167 C10.9983558,2.8322503 10.8919535,2.43561974 11.0718701,2.12563177 L11.673527,1.08977136 C11.8534436,0.779783394 12.2519687,0.673886883 12.5634374,0.852948255 Z" id="形状"></path>
                    </g>
                </g>
            </g>
        </g>
    </g>
</svg>