<?xml version="1.0" encoding="UTF-8"?>
<svg width="16px" height="16px" viewBox="0 0 16 16" version="1.1" xmlns="http://www.w3.org/2000/svg" xmlns:xlink="http://www.w3.org/1999/xlink">
    <title>编组 3</title>
    <g id="调频监测" stroke="none" stroke-width="1" fill="none" fill-rule="evenodd" fill-opacity="0.9">
        <g id="9、调频监测" transform="translate(-996.000000, -1796.000000)" fill="#F5222D">
            <g id="编组-24" transform="translate(744.000000, 1520.000000)">
                <g id="编组-7" transform="translate(0.000000, 264.000000)">
                    <g id="编组-5" transform="translate(244.000000, 4.000000)">
                        <g id="编组-3" transform="translate(8.000000, 8.000000)">
                            <path d="M15.4070029,15.7335123 L0.59299706,15.7335123 C0.436215575,15.7343745 0.285540699,15.6727782 0.174268652,15.5623258 C0.0629966058,15.4518734 0.000287921251,15.3016581 0,15.1448745 C0.000577562984,14.9882803 0.0634139222,14.8383458 0.174654415,14.7281296 C0.285894907,14.6179134 0.436404293,14.5564667 0.59299706,14.5573378 L2.50740563,14.5573378 L6.2368439,0.880182623 C6.27356219,0.746772389 6.35685977,0.630930624 6.47164017,0.553652006 L6.49129752,0.539455031 C6.52622916,0.51649107 6.56358523,0.497446798 6.60268923,0.482667086 L6.64200395,0.471746342 C6.66844265,0.463289562 6.69544841,0.45672059 6.72281755,0.452088973 L6.74247492,0.450996891 C6.76635405,0.447424025 6.79041995,0.445236218 6.81455191,0.444444444 L9.18435601,0.444444444 C9.20886068,0.445735902 9.23328266,0.448287452 9.25752508,0.452088973 L9.2749983,0.453181055 C9.30339226,0.458641434 9.33069416,0.464101814 9.35799605,0.473930491 L9.39403454,0.484851235 C9.41268841,0.492202628 9.43091796,0.500588221 9.44863832,0.509968984 C9.46813884,0.518656117 9.48710204,0.528502397 9.50542625,0.539455031 C9.51416286,0.543823329 9.52180739,0.55037579 9.530544,0.555836155 C9.64346764,0.63286791 9.72548349,0.747380615 9.76206403,0.879090541 L13.4925944,14.5573378 L15.4070029,14.5573378 C15.7346256,14.5573378 16,14.820528 16,15.1448745 C15.9997121,15.3016581 15.9370034,15.4518734 15.8257313,15.5623258 C15.7144593,15.6727782 15.5637844,15.7343745 15.4070029,15.7335123 Z M8.73442086,1.6206099 L7.26557914,1.6206099 L6.89864173,2.96386292 L8.91788957,2.29769679 L8.73223671,1.6206099 L8.73442086,1.6206099 Z M9.64630401,4.96782169 L6.09705823,5.90700673 L5.4527336,8.27462668 L10.208723,7.03184462 L9.64630401,4.96782169 L9.64630401,4.96782169 Z M4.49935158,11.7681766 L3.83646167,14.199137 L11.7212477,12.5763126 L11.1031329,10.3113477 L4.49935158,11.7692687 L4.49935158,11.7681766 Z" id="形状"></path>
                        </g>
                    </g>
                </g>
            </g>
        </g>
    </g>
</svg>