<?xml version="1.0" encoding="UTF-8"?>
<svg width="16px" height="16px" viewBox="0 0 16 16" version="1.1" xmlns="http://www.w3.org/2000/svg" xmlns:xlink="http://www.w3.org/1999/xlink">
    <title>编组 3</title>
    <g id="调频监测" stroke="none" stroke-width="1" fill="none" fill-rule="evenodd" fill-opacity="0.9">
        <g id="9、调频监测" transform="translate(-996.000000, -1708.000000)" fill="#3D7EFF">
            <g id="编组-24" transform="translate(744.000000, 1520.000000)">
                <g id="编组-7" transform="translate(0.000000, 176.000000)">
                    <g id="编组-5" transform="translate(244.000000, 4.000000)">
                        <g id="编组-3" transform="translate(8.000000, 8.000000)">
                            <path d="M12.5333333,1.77777777 L10.8148148,1.77777777 L10.8148148,0.592592583 C10.8148148,0.266666667 10.5481482,0 10.1925926,0 L6.6962963,0 C6.34074074,0 6.07407407,0.266666667 6.07407407,0.622222229 L6.07407407,1.80740742 L4.35555555,1.80740742 C3.67407407,1.80740742 3.11111111,2.34074075 3.11111111,2.96296296 L3.11111111,14.8444444 C3.11111111,15.4962963 3.67407407,16 4.35555555,16 L12.5037037,16 C13.1851852,16 13.7481481,15.4666667 13.7481482,14.8444444 L13.7481482,2.93333333 C13.7777778,2.3111111 13.2148148,1.77777777 12.5333333,1.77777777 L12.5333333,1.77777777 Z M11.4074074,14.2222222 L5.48148149,14.2222222 C5.15555557,14.2222222 4.88888888,13.9555556 4.88888888,13.6296296 C4.88888888,13.3037037 5.15555555,13.037037 5.48148149,13.037037 L11.4074074,13.037037 C11.7333333,13.037037 12,13.3037037 12,13.6296296 C12,13.9555555 11.7333333,14.2222222 11.4074074,14.2222222 Z M11.4074074,11.2592592 L5.48148149,11.2592592 C5.15555557,11.2592592 4.88888888,10.9925926 4.88888888,10.6666667 C4.88888888,10.3407407 5.15555555,10.0740741 5.48148149,10.0740741 L11.4074074,10.0740741 C11.7333333,10.0740741 12,10.3407407 12,10.6666667 C12,10.9925926 11.7333333,11.2592592 11.4074074,11.2592592 Z M11.4074074,8.14814814 L5.48148149,8.14814814 C5.15555557,8.14814814 4.88888888,7.88148147 4.88888888,7.55555556 C4.88888888,7.22962964 5.15555555,6.96296297 5.48148149,6.96296297 L11.4074074,6.96296297 C11.7333333,6.96296297 12,7.22962964 12,7.55555556 C12,7.88148147 11.7333333,8.14814814 11.4074074,8.14814814 Z M11.4074074,4.81481481 L5.48148149,4.81481481 C5.15555557,4.81481481 4.88888888,4.54814814 4.88888888,4.22222222 C4.88888888,3.89629631 5.15555555,3.62962964 5.48148149,3.62962964 L11.4074074,3.62962964 C11.7333333,3.62962964 12,3.89629631 12,4.22222222 C12,4.54814814 11.7333333,4.81481481 11.4074074,4.81481481 Z" id="形状"></path>
                        </g>
                    </g>
                </g>
            </g>
        </g>
    </g>
</svg>