<?xml version="1.0" encoding="UTF-8"?>
<svg width="26px" height="26px" viewBox="0 0 26 26" version="1.1" xmlns="http://www.w3.org/2000/svg" xmlns:xlink="http://www.w3.org/1999/xlink">
    <title>晴天</title>
    <g id="页面-2" stroke="none" stroke-width="1" fill="none" fill-rule="evenodd">
        <g id="晴天" transform="translate(0.625000, 0.864175)" fill="#FFCD00" fill-rule="nonzero">
            <path d="M23.0307938,12.9230769 L20.1461662,12.9230769 C19.6154092,12.9230769 19.1769108,12.5077169 19.1769108,12 C19.1769108,11.4922831 19.6154092,11.0769231 20.1461662,11.0769231 L23.0307938,11.0769231 C23.5615508,11.0769231 24,11.4922831 24,12 C23.9769108,12.5077169 23.5615508,12.9230769 23.0307938,12.9230769 Z M19.2461785,6.78464 C18.8769477,7.15387077 18.2538338,7.15387077 17.8846031,6.78464 C17.5153723,6.41540923 17.5153723,5.83847385 17.8846031,5.46924308 L19.9153723,3.50769231 C20.2846031,3.13846154 20.9076677,3.13846154 21.2768985,3.50769231 C21.6461292,3.87692308 21.6461292,4.45385846 21.2768985,4.82308923 L19.2461785,6.78464 Z M12,17.2615385 C9.09228308,17.2615385 6.71537231,14.9077169 6.71537231,11.9769108 C6.71537231,9.06924308 9.06924308,6.69233231 12,6.69233231 C14.9307569,6.69233231 17.2615385,9.06924308 17.2615385,12 C17.2615385,14.9077169 14.9077169,17.2615385 12,17.2615385 Z M12.4615385,4.61538462 C11.9307815,4.61538462 11.4922831,4.20002462 11.4922831,3.69230769 L11.4922831,0.923076923 C11.4922831,0.415384615 11.9307815,0 12.4615385,0 C12.9922954,0 13.4307446,0.415384615 13.4307446,0.923076923 L13.4307446,3.69230769 C13.4307446,4.20002462 12.9922954,4.61538462 12.4615385,4.61538462 Z M5.69998769,6.78464 L3.66921846,4.82308923 C3.29998769,4.45385846 3.29998769,3.87692308 3.66921846,3.50769231 C4.03844923,3.13846154 4.66151385,3.13846154 5.03074462,3.50769231 L7.06151385,5.46924308 C7.43074462,5.83847385 7.43074462,6.41540923 7.06151385,6.78464 C6.69228308,7.15387077 6.06921846,7.15387077 5.69998769,6.78464 L5.69998769,6.78464 Z M4.82308923,12 C4.82308923,12.5077169 4.38464,12.9230769 3.85383385,12.9230769 L0.969230769,12.9230769 C0.438464,12.9230769 1.8189894e-12,12.5077169 1.8189894e-12,12 C1.8189894e-12,11.4922831 0.438464,11.0769231 0.969230769,11.0769231 L3.85383385,11.0769231 C4.38464,11.0769231 4.82308923,11.4922831 4.82308923,12 Z M5.69998769,17.21536 C6.06921846,16.8461292 6.69228308,16.8461292 7.06151385,17.21536 C7.43074462,17.5845908 7.43074462,18.1615262 7.06151385,18.5307569 L5.03074462,20.4923077 C4.66151385,20.8615385 4.03844923,20.8615385 3.66921846,20.4923077 C3.29998769,20.1230769 3.29998769,19.5461415 3.66921846,19.1769108 L5.69998769,17.21536 L5.69998769,17.21536 Z M12.4846277,19.3846154 C13.0153846,19.3846154 13.4538338,19.7999754 13.4538338,20.3076923 L13.4538338,23.0769231 C13.4538338,23.58464 13.0153846,24 12.4846277,24 C11.9538215,24 11.5153723,23.58464 11.5153723,23.0769231 L11.5153723,20.3076923 C11.5384615,19.7999754 11.9538215,19.3846154 12.4846277,19.3846154 Z M19.2692185,17.21536 L21.2999877,19.1769108 C21.6692185,19.5461415 21.6692185,20.1230769 21.2999877,20.4923077 C20.9307569,20.8615385 20.3076923,20.8615385 19.9384615,20.4923077 L17.9076923,18.5307569 C17.5384615,18.1615262 17.5384615,17.5845908 17.9076923,17.21536 C18.2769231,16.8461292 18.8768985,16.8461292 19.2692185,17.21536 Z" id="形状"></path>
        </g>
    </g>
</svg>