<?xml version="1.0" encoding="UTF-8"?>
<svg width="24px" height="24px" viewBox="0 0 24 24" version="1.1" xmlns="http://www.w3.org/2000/svg" xmlns:xlink="http://www.w3.org/1999/xlink">
    <title>多云</title>
    <g id="页面-2" stroke="none" stroke-width="1" fill="none" fill-rule="evenodd">
        <g id="多云" fill-rule="nonzero">
            <g id="duoyun" transform="translate(0.500000, 3.000000)">
                <path d="M16.7535691,10.6945245 L18.0238482,10.6945245 C20.084523,10.6945245 21.75,12.3382565 21.75,14.3472622 C21.75,16.370317 20.084523,18 18.0238482,18 L4.96820247,18 L4.96820247,17.985951 C2.18770279,17.8314121 0,15.5695245 0,12.8159222 C0,10.5821326 1.43964958,8.68551873 3.45798183,7.95497118 C4.36129137,5.28566282 6.93007787,3.375 9.95051914,3.375 C13.7331278,3.375 16.7959117,6.38148415 16.7959117,10.0763689 C16.7817975,10.2871037 16.7676833,10.4978386 16.7535691,10.6945245 L16.7535691,10.6945245 Z" id="路径" fill="#D3EBFF"></path>
                <path d="M14.5332045,3.29891059 C15.2165462,2.76362533 16.0532911,2.46780979 16.9179275,2.46780979 C19.0795186,2.46780979 20.8366829,4.25678947 20.8366829,6.46836278 C20.8366829,7.58119266 20.3764732,8.65176318 19.5676198,9.42651816 C19.1910846,9.29974007 18.7866579,9.2293078 18.3961769,9.2293078 L17.7546725,9.2293078 C17.5873235,6.87686995 16.4019348,4.70755601 14.5332045,3.29891059 L14.5332045,3.29891059 Z M17.5733777,0.00268031428 C17.838347,0.0308532226 18.0335874,0.270322944 18.0056959,0.552052027 L17.9080757,1.56627673 C17.8801842,1.83391936 17.6431065,2.03112972 17.3781372,2.00295681 C17.113168,1.9747839 16.9179275,1.73531418 16.945819,1.45358509 L17.0434393,0.439360394 C17.057385,0.171717764 17.2944628,-0.0254925941 17.5733777,0.00268031428 Z M21.4781874,1.94661099 C21.6734279,2.14382135 21.6594821,2.45372334 21.4781874,2.6509337 L20.7669542,3.35525641 C20.5717137,3.53838031 20.2649072,3.53838031 20.0836125,3.34116995 L20.0696668,3.3270835 C19.888372,3.12987314 19.888372,2.81997115 20.0836125,2.63684724 L20.7948457,1.93252454 C20.9761404,1.74940063 21.2829469,1.74940063 21.4781874,1.94661099 L21.4781874,1.94661099 Z M23.2492975,6.01759625 C23.2632432,6.29932533 23.0680027,6.53879505 22.8030335,6.5528815 L21.8268311,6.62331378 C21.5618619,6.63740023 21.3247841,6.44018987 21.3108384,6.17254724 L21.3108384,6.15846079 C21.2968926,5.89081816 21.4921331,5.65134844 21.7710481,5.63726198 L22.7472505,5.56682971 C22.998274,5.5386568 23.221406,5.73586716 23.2492975,6.01759625 Z M22.0499631,10.2857919 C21.8826141,10.5111751 21.5897534,10.5675209 21.3666214,10.4125699 L20.5717137,9.82093887 C20.3625275,9.66598788 20.3067445,9.35608588 20.4601477,9.13070262 L20.4601477,9.11661616 C20.613551,8.8912329 20.9203574,8.84897353 21.1434894,9.00392453 L21.9383971,9.59555561 C22.1615291,9.76459306 22.2173121,10.074495 22.0499631,10.2857919 L22.0499631,10.2857919 Z M13.3338701,1.07325083 C13.5570021,0.918299836 13.8638086,0.974645652 14.0172118,1.20002892 L14.5750418,2.04521617 C14.728445,2.27059944 14.6587162,2.58050143 14.44953,2.72136597 C14.226398,2.87631697 13.9195916,2.81997115 13.7801341,2.59458788 L13.2223041,1.74940063 C13.0549551,1.53810382 13.1107381,1.22820183 13.3338701,1.07325083 L13.3338701,1.07325083 Z" id="形状" fill="#FFC303"></path>
            </g>
        </g>
    </g>
</svg>