<?xml version="1.0" encoding="UTF-8"?>
<svg width="24px" height="24px" viewBox="0 0 24 24" version="1.1" xmlns="http://www.w3.org/2000/svg" xmlns:xlink="http://www.w3.org/1999/xlink">
    <title>雾</title>
    <g id="页面-2" stroke="none" stroke-width="1" fill="none" fill-rule="evenodd">
        <g id="雾" fill-rule="nonzero">
            <g id="duoyun" transform="translate(0.500000, 1.375000)">
                <path d="M16.7535691,7.3195245 L18.0238482,7.3195245 C20.084523,7.3195245 21.75,8.96325648 21.75,10.9722622 C21.75,12.995317 20.084523,14.625 18.0238482,14.625 L4.96820247,14.625 L4.96820247,14.610951 C2.18770279,14.4564121 0,12.1945245 0,9.44092219 C0,7.20713256 1.43964958,5.31051873 3.45798183,4.57997118 C4.36129137,1.91066282 6.93007787,0 9.95051914,0 C13.7331278,0 16.7959117,3.00648415 16.7959117,6.70136888 C16.7817975,6.91210375 16.7676833,7.12283862 16.7535691,7.3195245 L16.7535691,7.3195245 Z" id="路径" fill="#D3EBFF"></path>
                <path d="M9.38888889,18.625 C9.40348444,18.625 9.41792889,18.63792 9.43141333,18.66308 C9.44488889,18.6882 9.45713778,18.725 9.46745778,18.77144 C9.47777778,18.81788 9.48595556,18.873 9.49153778,18.93364 C9.49712889,18.99432 9.5,19.05932 9.5,19.125 C9.5,19.19068 9.49712889,19.25568 9.49153778,19.31636 C9.48595556,19.377 9.47777778,19.43212 9.46745778,19.47856 C9.45713778,19.525 9.44488889,19.5618 9.43141333,19.58696 C9.41792889,19.61208 9.40348444,19.625 9.38888889,19.625 L9.38888889,19.625 L5.61111111,19.625 C5.58164267,19.625 5.55338133,19.57232 5.532544,19.47856 C5.51170667,19.3848 5.5,19.2576 5.5,19.125 C5.5,18.9924 5.51170667,18.8652 5.532544,18.77144 C5.55338133,18.67768 5.58164267,18.625 5.61111111,18.625 L5.61111111,18.625 Z M16.3888889,18.625 C16.4034844,18.625 16.4179289,18.63792 16.4314133,18.66308 C16.4448889,18.6882 16.4571378,18.725 16.4674578,18.77144 C16.4777778,18.81788 16.4859556,18.873 16.4915378,18.93364 C16.4971289,18.99432 16.5,19.05932 16.5,19.125 C16.5,19.19068 16.4971289,19.25568 16.4915378,19.31636 C16.4859556,19.377 16.4777778,19.43212 16.4674578,19.47856 C16.4571378,19.525 16.4448889,19.5618 16.4314133,19.58696 C16.4179289,19.61208 16.4034844,19.625 16.3888889,19.625 L16.3888889,19.625 L12.6111111,19.625 C12.5816427,19.625 12.5533813,19.57232 12.532544,19.47856 C12.5117067,19.3848 12.5,19.2576 12.5,19.125 C12.5,18.9924 12.5117067,18.8652 12.532544,18.77144 C12.5533813,18.67768 12.5816427,18.625 12.6111111,18.625 L12.6111111,18.625 Z M9.38888889,16.625 C9.40348444,16.625 9.41792889,16.63792 9.43141333,16.66308 C9.44488889,16.6882 9.45713778,16.725 9.46745778,16.77144 C9.47777778,16.81788 9.48595556,16.873 9.49153778,16.93364 C9.49712889,16.99432 9.5,17.05932 9.5,17.125 C9.5,17.19068 9.49712889,17.25568 9.49153778,17.31636 C9.48595556,17.377 9.47777778,17.43212 9.46745778,17.47856 C9.45713778,17.525 9.44488889,17.5618 9.43141333,17.58696 C9.41792889,17.61208 9.40348444,17.625 9.38888889,17.625 L9.38888889,17.625 L5.61111111,17.625 C5.58164267,17.625 5.55338133,17.57232 5.532544,17.47856 C5.51170667,17.3848 5.5,17.2576 5.5,17.125 C5.5,16.9924 5.51170667,16.8652 5.532544,16.77144 C5.55338133,16.67768 5.58164267,16.625 5.61111111,16.625 L5.61111111,16.625 Z M16.3888889,16.625 C16.4034844,16.625 16.4179289,16.63792 16.4314133,16.66308 C16.4448889,16.6882 16.4571378,16.725 16.4674578,16.77144 C16.4777778,16.81788 16.4859556,16.873 16.4915378,16.93364 C16.4971289,16.99432 16.5,17.05932 16.5,17.125 C16.5,17.19068 16.4971289,17.25568 16.4915378,17.31636 C16.4859556,17.377 16.4777778,17.43212 16.4674578,17.47856 C16.4571378,17.525 16.4448889,17.5618 16.4314133,17.58696 C16.4179289,17.61208 16.4034844,17.625 16.3888889,17.625 L16.3888889,17.625 L12.6111111,17.625 C12.5816427,17.625 12.5533813,17.57232 12.532544,17.47856 C12.5117067,17.3848 12.5,17.2576 12.5,17.125 C12.5,16.9924 12.5117067,16.8652 12.532544,16.77144 C12.5533813,16.67768 12.5816427,16.625 12.6111111,16.625 L12.6111111,16.625 Z" id="形状结合" fill="#FFC303"></path>
            </g>
        </g>
    </g>
</svg>