<?xml version="1.0" encoding="UTF-8"?>
<svg width="24px" height="24px" viewBox="0 0 24 24" version="1.1" xmlns="http://www.w3.org/2000/svg" xmlns:xlink="http://www.w3.org/1999/xlink">
    <title>薄雾</title>
    <g id="页面-2" stroke="none" stroke-width="1" fill="none" fill-rule="evenodd">
        <g id="薄雾" fill-rule="nonzero">
            <g id="duoyun" transform="translate(0.500000, 1.375000)">
                <path d="M16.7535691,7.3195245 L18.0238482,7.3195245 C20.084523,7.3195245 21.75,8.96325648 21.75,10.9722622 C21.75,12.995317 20.084523,14.625 18.0238482,14.625 L4.96820247,14.625 L4.96820247,14.610951 C2.18770279,14.4564121 0,12.1945245 0,9.44092219 C0,7.20713256 1.43964958,5.31051873 3.45798183,4.57997118 C4.36129137,1.91066282 6.93007787,0 9.95051914,0 C13.7331278,0 16.7959117,3.00648415 16.7959117,6.70136888 C16.7817975,6.91210375 16.7676833,7.12283862 16.7535691,7.3195245 L16.7535691,7.3195245 Z" id="路径" fill="#D3EBFF"></path>
                <path d="M18.5,17.125 C18.5,17.05932 18.4885156,16.99432 18.4661511,16.93364 C18.4438222,16.873 18.4111111,16.81788 18.3698311,16.77144 C18.3285511,16.725 18.2795556,16.6882 18.2256533,16.66308 C18.1717156,16.63792 18.1139378,16.625 18.0555556,16.625 L2.94444444,16.625 C2.82657067,16.625 2.71352533,16.67768 2.630176,16.77144 C2.54682667,16.8652 2.5,16.9924 2.5,17.125 C2.5,17.2576 2.54682667,17.3848 2.630176,17.47856 C2.71352533,17.57232 2.82657067,17.625 2.94444444,17.625 L18.0555556,17.625 C18.1139378,17.625 18.1717156,17.61208 18.2256533,17.58696 C18.2795556,17.5618 18.3285511,17.525 18.3698311,17.47856 C18.4111111,17.43212 18.4438222,17.377 18.4661511,17.31636 C18.4885156,17.25568 18.5,17.19068 18.5,17.125 L18.5,17.125 Z M17.8333333,20.125 C17.8333333,20.05932 17.8204133,19.99432 17.7952533,19.93364 C17.7701333,19.873 17.7333333,19.81788 17.6868933,19.77144 C17.6404533,19.725 17.5853333,19.6882 17.5246933,19.66304 C17.4640133,19.63792 17.3990133,19.625 17.3333333,19.625 L16.3333333,19.625 C16.2007333,19.625 16.0735333,19.67768 15.9797733,19.77144 C15.8860133,19.8652 15.8333333,19.9924 15.8333333,20.125 C15.8333333,20.2576 15.8860133,20.3848 15.9797733,20.47856 C16.0735333,20.57232 16.2007333,20.625 16.3333333,20.625 L17.3333333,20.625 C17.4659333,20.625 17.5931333,20.57232 17.6868933,20.47856 C17.7806533,20.3848 17.8333333,20.2576 17.8333333,20.125 L17.8333333,20.125 Z M15.1666667,20.125 C15.1666667,20.05932 15.1554117,19.99432 15.1335291,19.93364 C15.1116116,19.873 15.0795542,19.81788 15.0390992,19.77144 C14.9986441,19.725 14.9506277,19.6882 14.8978027,19.66304 C14.8449429,19.63792 14.7883198,19.625 14.7311043,19.625 L4.26889572,19.625 C4.15338458,19.625 4.0425775,19.67768 3.96090085,19.77144 C3.87922419,19.8652 3.83333333,19.9924 3.83333333,20.125 C3.83333333,20.2576 3.87922419,20.3848 3.96090085,20.47856 C4.0425775,20.57232 4.15338458,20.625 4.26889572,20.625 L14.7311043,20.625 C14.8466154,20.625 14.9574225,20.57232 15.0390992,20.47856 C15.1207758,20.3848 15.1666667,20.2576 15.1666667,20.125 L15.1666667,20.125 Z" id="形状" fill="#FFC303"></path>
            </g>
        </g>
    </g>
</svg>