<?xml version="1.0" encoding="UTF-8"?>
<svg width="24px" height="24px" viewBox="0 0 24 24" version="1.1" xmlns="http://www.w3.org/2000/svg" xmlns:xlink="http://www.w3.org/1999/xlink">
    <title>雨</title>
    <g id="页面-2" stroke="none" stroke-width="1" fill="none" fill-rule="evenodd">
        <g id="雨" fill-rule="nonzero">
            <g id="duoyun" transform="translate(0.500000, 1.375000)">
                <path d="M16.7535691,7.3195245 L18.0238482,7.3195245 C20.084523,7.3195245 21.75,8.96325648 21.75,10.9722622 C21.75,12.995317 20.084523,14.625 18.0238482,14.625 L4.96820247,14.625 L4.96820247,14.610951 C2.18770279,14.4564121 0,12.1945245 0,9.44092219 C0,7.20713256 1.43964958,5.31051873 3.45798183,4.57997118 C4.36129137,1.91066282 6.93007787,0 9.95051914,0 C13.7331278,0 16.7959117,3.00648415 16.7959117,6.70136888 C16.7817975,6.91210375 16.7676833,7.12283862 16.7535691,7.3195245 L16.7535691,7.3195245 Z" id="路径" fill="#D3EBFF" transform="translate(10.875000, 7.312500) scale(-1, 1) translate(-10.875000, -7.312500) "></path>
                <path d="M7.5,19.6712734 C7.5,19.9241876 7.39466667,20.1667874 7.20711111,20.3456288 C7.01959259,20.5245055 6.76522222,20.625 6.5,20.625 C6.23477778,20.625 5.98044444,20.5245055 5.79288889,20.3456288 C5.60537037,20.1667874 5.5,19.9241876 5.5,19.6712734 C5.5,19.1626192 6.5,17.625 6.5,17.625 C6.5,17.625 7.5,19.1628312 7.5,19.6712734 Z M8.5,15.625 C8.5,15.625 9.5,16.6612409 9.5,17.0040164 C9.482125,17.1726131 9.36895833,17.3304625 9.18341667,17.4457115 C8.99783333,17.5609327 8.753625,17.625 8.5,17.625 C8.246375,17.625 8.00216667,17.5609327 7.816625,17.4457115 C7.63104167,17.3304625 7.51791667,17.1726131 7.5,17.0040164 C7.5,16.6612409 8.5,15.625 8.5,15.625 L8.5,15.625 Z M11.5,19.6712734 C11.5,19.9241876 11.3946667,20.1667874 11.2071111,20.3456288 C11.0195926,20.5245055 10.7652222,20.625 10.5,20.625 C10.2347778,20.625 9.98044444,20.5245055 9.79288889,20.3456288 C9.60537037,20.1667874 9.5,19.9241876 9.5,19.6712734 C9.5,19.1626192 10.5,17.625 10.5,17.625 C10.5,17.625 11.5,19.1628312 11.5,19.6712734 Z M12.5,15.625 C12.5,15.625 13.5,16.6612409 13.5,17.0040164 C13.482125,17.1726131 13.3689583,17.3304625 13.1834167,17.4457115 C12.9978333,17.5609327 12.753625,17.625 12.5,17.625 C12.246375,17.625 12.0021667,17.5609327 11.816625,17.4457115 C11.6310417,17.3304625 11.5179167,17.1726131 11.5,17.0040164 C11.5,16.6612409 12.5,15.625 12.5,15.625 Z M15.5,19.6712734 C15.5,19.9241876 15.3946667,20.1667874 15.2071111,20.3456288 C15.0195926,20.5245055 14.7652222,20.625 14.5,20.625 C14.2347778,20.625 13.9804444,20.5245055 13.7928889,20.3456288 C13.6053704,20.1667874 13.5,19.9241876 13.5,19.6712734 C13.5,19.1626192 14.5,17.625 14.5,17.625 C14.5,17.625 15.5,19.1628312 15.5,19.6712734 L15.5,19.6712734 Z M16.5,15.625 C16.5,15.625 17.5,16.6612409 17.5,17.0040164 C17.482125,17.1726131 17.3689583,17.3304625 17.1834167,17.4457115 C16.9978333,17.5609327 16.753625,17.625 16.5,17.625 C16.246375,17.625 16.0021667,17.5609327 15.816625,17.4457115 C15.6310417,17.3304625 15.5179167,17.1726131 15.5,17.0040164 C15.5,16.6612409 16.5,15.625 16.5,15.625 L16.5,15.625 Z" id="形状" fill="#FFC303"></path>
            </g>
        </g>
    </g>
</svg>