<?xml version="1.0" encoding="UTF-8"?>
<svg width="24px" height="24px" viewBox="0 0 24 24" version="1.1" xmlns="http://www.w3.org/2000/svg" xmlns:xlink="http://www.w3.org/1999/xlink">
    <title>沙尘</title>
    <g id="页面-2" stroke="none" stroke-width="1" fill="none" fill-rule="evenodd">
        <g id="沙尘" fill-rule="nonzero">
            <path d="M7.75813783,19.3184974 C4.03605616,19.3184974 1.14454215,18.9186043 0.990737126,18.8878433 C0.437039027,18.7955603 0.0371459554,18.3033842 0.129428972,17.7189251 C0.221711988,17.165227 0.713888076,16.7653339 1.29834718,16.8576169 C1.35986919,16.8576169 5.42030141,17.442076 9.97293022,17.195988 C14.0026219,17.011422 19.2012319,16.1501138 21.3237413,13.1970573 L21.3545023,13.1662963 C21.7851563,12.5203151 22.0004834,11.782051 22.0004834,11.0437869 C22.0004834,8.92127751 20.2778671,7.16790019 18.1245967,7.16790019 C16.0020873,7.16790019 14.24871,8.8905165 14.24871,11.0437869 C14.24871,11.597485 13.7872949,12.0589001 13.2335968,12.0589001 C12.6798987,12.0589001 12.2184836,11.597485 12.2184836,11.0437869 C12.2184836,9.4749756 12.8337037,7.96768634 13.9410999,6.86029014 C15.0484961,5.75289394 16.5557854,5.10691282 18.1245967,5.13767383 C19.724169,5.13767383 21.2006972,5.75289394 22.3080934,6.86029014 C23.3847286,7.96768634 23.9999487,9.4749756 23.9999487,11.0437869 C23.9999487,12.1511831 23.6923387,13.2585793 23.1078796,14.1814094 L23.1078796,14.2121705 L23.0155966,14.3352145 C21.8466783,15.9963088 19.939496,17.25751 17.2940495,18.0880571 C15.2945842,18.7340383 12.8337037,19.1031703 10.0344522,19.2569754 C9.2654271,19.2877364 8.52716297,19.3184974 7.75813783,19.3184974 L7.75813783,19.3184974 Z" id="路径" fill="#D3EBFF"></path>
            <path d="M4.74345675,16.1193015 C3.35921151,16.1193015 2.06724927,15.9654965 1.20592574,15.8732135 C1.08288172,15.8732135 0.990598701,15.8424525 0.898315685,15.8424525 C0.344617586,15.7809305 -0.0552754856,15.2579934 0.0062465254,14.7042953 C0.0677685364,14.1505972 0.59070563,13.7507041 1.14440373,13.8122261 C1.23668675,13.8122261 1.32896976,13.8429871 1.45201378,13.8429871 C3.23616748,14.0583142 7.91184032,14.6120123 9.32684657,12.6125469 L9.35760758,12.5510249 C9.4806516,12.3664589 9.54217361,12.1818928 9.54217361,11.9665658 C9.54217361,11.3821067 9.08075853,10.9206916 8.49629942,10.9206916 C7.91184032,10.9206916 7.45042524,11.3821067 7.45042524,11.9665658 C7.45042524,12.5202639 6.98901015,12.981679 6.43531206,12.981679 C5.88161396,12.981679 5.42019887,12.5202639 5.42019887,11.9665658 C5.42019887,10.2439495 6.80444412,8.85970423 8.52706043,8.85970423 C10.2496767,8.85970423 11.633922,10.2439495 11.633922,11.9665658 C11.633922,12.5202639 11.480117,13.073962 11.2032679,13.5353771 L11.0802239,13.6584211 C10.1573937,15.0734273 8.46553842,15.8732135 6.03541898,16.0885405 C5.60476491,16.1193015 5.17411083,16.1193015 4.74345675,16.1193015 L4.74345675,16.1193015 Z" id="路径" fill="#D3EBFF"></path>
            <path d="M2.46729615,11.8127608 C2.46729615,12.2434148 2.80566721,12.5817859 3.23632129,12.5817859 C3.66697537,12.5817859 4.00534643,12.2434148 4.00534643,11.8127608 C4.00534643,11.3821067 3.66697537,11.0437356 3.23632129,11.0437356 C2.80566721,11.0437356 2.46729615,11.3821067 2.46729615,11.8127608 Z M18.0323649,3.04587419 C18.0323649,3.63033329 18.49378,4.12250938 19.0782391,4.12250938 C19.6626982,4.12250938 20.1548743,3.6610943 20.1548743,3.07663519 L20.1548743,3.04587419 C20.1548743,2.46141508 19.6626982,2 19.0782391,2 C18.524541,2 18.0631259,2.46141508 18.0323649,3.04587419 L18.0323649,3.04587419 Z M6.83535893,5.41447161 C6.83535893,6.30654077 7.54286206,7.0448049 8.43493122,7.0448049 C9.32700038,7.0448049 10.0652645,6.33730178 10.0652645,5.44523262 L10.0652645,5.3837106 C10.0652645,4.49164145 9.32700038,3.78413832 8.43493122,3.78413832 C7.54286206,3.84566033 6.83535893,4.55316346 6.83535893,5.41447161 Z M19.6319372,19.4107291 C19.6319372,19.9951882 20.0933523,20.4566033 20.6778114,20.4566033 C21.2622705,20.4566033 21.7236856,19.9951882 21.7236856,19.4107291 C21.7236856,18.82627 21.2622705,18.3648549 20.6778114,18.3648549 C20.0933523,18.3648549 19.6319372,18.857031 19.6319372,19.4107291 Z M12.3723399,4.2147924 C12.3723399,4.61468547 12.67995,4.92229552 13.079843,4.92229552 C13.4797361,4.92229552 13.7873462,4.61468547 13.7873462,4.2147924 C13.7873462,3.81489932 13.4797361,3.50728927 13.079843,3.50728927 C12.710711,3.50728927 12.3723399,3.84566033 12.3723399,4.2147924 Z M22.2158617,16.5191946 C22.2158617,16.7652826 22.3389057,17.0113707 22.5849937,17.1344147 C22.5849937,17.5343078 22.8926038,17.8419178 23.2924969,17.8419178 C23.6923899,17.8419178 24,17.5343078 24,17.1344147 C24,16.8883267 23.876956,16.6422386 23.6308679,16.5191946 C23.6308679,16.1193015 23.3232579,15.8116915 22.9233648,15.8116915 C22.8003208,15.8116915 22.6772768,15.8424525 22.5542327,15.9039745 C22.3389057,16.0270185 22.2158617,16.2731066 22.2158617,16.5191946 Z M17.1710568,12.1511318 C17.1710568,12.6740689 17.6017109,13.104723 18.1246479,13.104723 C18.647585,13.104723 19.0782391,12.6740689 19.0782391,12.1511318 C19.0782391,11.6281947 18.647585,11.1975406 18.1246479,11.1975406 C17.6324719,11.1667796 17.1710568,11.5974337 17.1710568,12.1511318 Z M11.4187488,15.1041883 C11.4187488,15.5040814 11.7263588,15.8116915 12.1262519,15.8424525 C12.5261449,15.8732135 12.833755,15.5348424 12.864516,15.1349493 L12.864516,15.1041883 C12.864516,14.7042953 12.556906,14.3966852 12.1570129,14.3966852 C11.7571198,14.3966852 11.4187488,14.7042953 11.4187488,15.1041883 L11.4187488,15.1041883 Z" id="形状" fill="#FFC303"></path>
        </g>
    </g>
</svg>