<?xml version="1.0" encoding="UTF-8"?>
<svg width="25px" height="25px" viewBox="0 0 25 25" version="1.1" xmlns="http://www.w3.org/2000/svg" xmlns:xlink="http://www.w3.org/1999/xlink">
    <title>雪</title>
    <g id="页面-1" stroke="none" stroke-width="1" fill="none" fill-rule="evenodd">
        <g id="Apple-TV" transform="translate(-1320.000000, -599.000000)" fill-rule="nonzero">
            <g id="雪" transform="translate(1320.892556, 599.000000)">
                <path d="M18.5941412,8.00768492 L19.9958284,8.00768492 C22.2696765,8.00768492 24.1074442,9.80595583 24.1074442,12.0038424 C24.1074442,14.2170989 22.2696765,16 19.9958284,16 L5.58959867,16 L5.58959867,15.9846302 C2.52146109,15.815562 0.107444218,13.3410183 0.107444218,10.3285303 C0.107444218,7.88472626 1.69602307,5.80979827 3.92314831,5.01056676 C4.91990366,2.09029779 7.7544267,0 11.0873274,0 C15.2612404,0 18.640864,3.28914505 18.640864,7.33141213 C18.6252897,7.5619596 18.6097154,7.79250719 18.5941412,8.00768492 L18.5941412,8.00768492 Z" id="路径" fill="#D3EBFF"></path>
                <path d="M0.107444218,19.2403916 C0.107371368,19.6835163 0.341925082,20.0930119 0.722734193,20.3145954 C1.1035433,20.536179 1.57274051,20.536179 1.95354962,20.3145954 C2.33435873,20.0930119 2.56891245,19.6835163 2.5688396,19.2403916 C2.56891245,18.7972668 2.33435873,18.3877713 1.95354962,18.1661877 C1.57274051,17.9446041 1.1035433,17.9446041 0.722734193,18.1661877 C0.341925082,18.3877713 0.107371368,18.7972668 0.107444218,19.2403916 L0.107444218,19.2403916 Z" id="路径" fill-opacity="0.6" fill="#5ECEBE"></path>
                <path d="M4.41516513,22.6511823 C4.41516513,22.9835888 4.59111895,23.2907452 4.87674652,23.4569485 C5.16237409,23.6231518 5.51428176,23.6231518 5.79990933,23.4569485 C6.0855369,23.2907452 6.26149072,22.9835888 6.26149072,22.6511823 C6.26149072,22.3187757 6.08553691,22.0116194 5.79990934,21.8454161 C5.51428177,21.6792128 5.16237408,21.6792128 4.87674651,21.8454161 C4.59111894,22.0116194 4.41516513,22.3187757 4.41516513,22.6511823 L4.41516513,22.6511823 Z" id="路径" fill-opacity="0.7" fill="#5ECEBE"></path>
                <path d="M14.2613047,19.2403916 C14.2612318,19.6835163 14.4957855,20.0930119 14.8765946,20.3145954 C15.2574038,20.536179 15.726601,20.536179 16.1074101,20.3145954 C16.4882192,20.0930119 16.7227729,19.6835163 16.7227,19.2403916 C16.7227729,18.7972668 16.4882192,18.3877713 16.1074101,18.1661877 C15.726601,17.9446041 15.2574038,17.9446041 14.8765946,18.1661877 C14.4957855,18.3877713 14.2612318,18.7972668 14.2613047,19.2403916 L14.2613047,19.2403916 Z" id="路径" fill="#5ECEBE"></path>
                <path d="M18.5690256,22.6511823 C18.5690256,23.1650383 18.9823397,23.5816009 19.4921884,23.5816009 C20.0020371,23.5816009 20.4153512,23.1650383 20.4153512,22.6511823 C20.4153512,22.1373263 20.0020371,21.7207637 19.4921884,21.7207637 C18.9823397,21.7207637 18.5690256,22.1373263 18.5690256,22.6511823 L18.5690256,22.6511823 Z" id="路径" fill-opacity="0.7" fill="#5ECEBE"></path>
                <path d="M7.49218839,19.2403916 C7.49211554,19.6835163 7.72666925,20.0930119 8.10747837,20.3145954 C8.48828748,20.536179 8.95748468,20.536179 9.3382938,20.3145954 C9.71910291,20.0930119 9.95365662,19.6835163 9.95358377,19.2403916 C9.95365662,18.7972668 9.71910291,18.3877713 9.3382938,18.1661877 C8.95748468,17.9446041 8.48828748,17.9446041 8.10747837,18.1661877 C7.72666925,18.3877713 7.49211554,18.7972668 7.49218839,19.2403916 L7.49218839,19.2403916 Z" id="路径" fill-opacity="0.2" fill="#5ECEBE"></path>
                <path d="M11.7999093,22.6511823 C11.7999093,23.1650383 12.2132234,23.5816009 12.7230721,23.5816009 C13.2329208,23.5816009 13.6462349,23.1650383 13.6462349,22.6511823 C13.6462349,22.1373263 13.2329208,21.7207637 12.7230721,21.7207637 C12.2132234,21.7207637 11.7999093,22.1373263 11.7999093,22.6511823 Z" id="路径" fill-opacity="0.7" fill="#5ECEBE"></path>
                <path d="M21.6460488,19.2403916 C21.645976,19.6835163 21.8805297,20.0930119 22.2613388,20.3145954 C22.6421479,20.536179 23.1113451,20.536179 23.4921542,20.3145954 C23.8729634,20.0930119 24.1075171,19.6835163 24.1074442,19.2403916 C24.1075171,18.7972668 23.8729634,18.3877713 23.4921542,18.1661877 C23.1113451,17.9446041 22.6421479,17.9446041 22.2613388,18.1661877 C21.8805297,18.3877713 21.645976,18.7972668 21.6460488,19.2403916 L21.6460488,19.2403916 Z" id="路径" fill-opacity="0.6" fill="#5ECEBE"></path>
            </g>
        </g>
    </g>
</svg>