<?xml version="1.0" encoding="UTF-8"?>
<svg width="25px" height="25px" viewBox="0 0 25 25" version="1.1" xmlns="http://www.w3.org/2000/svg" xmlns:xlink="http://www.w3.org/1999/xlink">
    <title>飓风</title>
    <g id="页面-2" stroke="none" stroke-width="1" fill="none" fill-rule="evenodd">
        <g id="飓风" fill-rule="nonzero">
            <path d="M12.3692545,6.40308929 C13.1885238,6.83944917 13.913192,7.43383195 14.5013996,8.15197067 C15.0896073,8.87005877 15.5296621,9.69757849 15.7961549,10.586799 C15.8237912,10.6984578 15.8737998,10.8033846 15.9431942,10.8951512 C16.0125886,10.9869685 16.0998505,11.0637023 16.1997663,11.120797 C16.2996821,11.1778412 16.4101261,11.2140822 16.5244675,11.2271917 C16.6387582,11.2403518 16.7545674,11.230178 16.8648089,11.1972271 C16.9750504,11.1643267 17.077497,11.1094084 17.1658724,11.0357623 C17.2542985,10.9620655 17.3268311,10.8712605 17.3791173,10.7687633 C17.431353,10.666266 17.4622793,10.5542024 17.4700235,10.4394055 C17.4777171,10.3246085 17.4620262,10.2094573 17.423963,10.1008862 C16.7369531,7.89307022 15.2054671,6.0461458 13.1630134,4.96230704 C11.1206103,3.87846828 8.73265226,3.64543257 6.51921795,4.31406892 C4.30583425,4.98265464 2.44620523,6.49865216 1.34535446,8.53199502 C0.244513812,10.5653379 -0.00838358562,12.9512206 0.641737453,15.1701721 C0.693947778,15.3452526 0.801187734,15.4989225 0.947568984,15.6083035 C1.09395023,15.7177352 1.27167792,15.777057 1.45442671,15.7775638 C1.53677882,15.7775638 1.61868551,15.7653647 1.69738314,15.7411197 C1.91320438,15.675977 2.09432334,15.5277736 2.20092047,15.3291567 C2.3075176,15.1304892 2.33090216,14.897656 2.26591132,14.6818297 C1.85965779,13.3433928 1.85975396,11.9145053 2.2661644,10.5761697 C2.67261026,9.23778345 3.46707779,8.05013143 4.54894253,7.16364415 C5.63085788,6.27715688 6.95152855,5.73161846 8.34366889,5.59622086 C9.73580924,5.46082327 11.1368074,5.74164041 12.3692545,6.40308929 L12.3692545,6.40308929 Z" id="路径" fill="#D3EBFF"></path>
            <path d="M14.8882065,22.5268422 C13.0943276,23.0693943 11.1583698,22.8771044 9.50626603,21.9922874 C7.85411169,21.1074199 6.62115842,19.6025579 6.07860634,17.8086283 C5.53605426,16.0147494 5.72834415,14.0787916 6.61321172,12.4266878 C7.49802867,10.7745335 9.00294129,9.54158022 10.7968202,8.99902814 C10.9085296,8.97139185 11.0134564,8.92138331 11.105223,8.85198888 C11.1970403,8.78259445 11.2737741,8.6953326 11.3308688,8.59541677 C11.387913,8.49550094 11.424154,8.38505699 11.4372635,8.27071562 C11.4504236,8.15642487 11.4401992,8.04066625 11.4072989,7.93037416 C11.3743985,7.82013268 11.3194296,7.71768605 11.2457835,7.62931065 C11.1721373,7.54088463 11.0813323,7.46835201 10.9788351,7.41611638 C10.8763378,7.36383013 10.7642742,7.3329038 10.6494773,7.32515956 C10.5346804,7.31746594 10.4194785,7.33315688 10.3109074,7.37122005 C9.20510129,7.70123587 8.17526972,8.24626813 7.28053205,8.97513742 C6.38584499,9.70400672 5.64381556,10.6023381 5.09706236,11.6186046 C4.55030916,12.6349217 4.20961338,13.7491301 4.09441154,14.8974029 C3.97926031,16.0456757 4.09193136,17.2053371 4.42599645,18.309979 C4.76001093,19.4146209 5.30883938,20.4423773 6.04099871,21.3344323 C6.77315803,22.2264873 7.6742227,22.9651761 8.69251384,23.5081837 C9.71080498,24.0511913 10.8262787,24.3878378 11.9749564,24.4987373 C13.1236342,24.6096874 14.2828907,24.4927647 15.3862672,24.1546503 C15.5993096,24.087078 15.7771234,23.9383178 15.8813415,23.7405614 C15.9855091,23.5428556 16.0076789,23.3120976 15.9429917,23.0981441 C15.8783552,22.8842412 15.7320752,22.7043522 15.5358373,22.5974514 C15.3395487,22.4905 15.1090944,22.465192 14.8942804,22.5268422 L14.8882065,22.5268422 Z" id="路径" fill="#D3EBFF"></path>
            <path d="M23.895968,9.49587404 C23.8636245,9.38750535 23.8099716,9.28667843 23.7381982,9.19926473 C23.6664248,9.11190165 23.5778976,9.03967273 23.4778805,8.98693093 C23.3778128,8.93413853 23.26828,8.90189618 23.1556089,8.89197546 C23.0429379,8.88205474 22.929457,8.89475934 22.8217463,8.92922878 C22.7140356,8.96374884 22.6142716,9.01937574 22.5283258,9.09292068 C22.44238,9.166415 22.3719732,9.25635949 22.321256,9.35743949 C22.2704883,9.45851949 22.2403718,9.56865974 22.2327288,9.68153325 C22.2250858,9.79435614 22.2400175,9.90758396 22.2766634,10.014586 C22.5697296,10.9007696 22.6842734,11.8362025 22.6138161,12.7669281 C22.5433081,13.697603 22.2891149,14.6051465 21.8659152,15.4370699 C21.4427155,16.2689932 20.8589114,17.0088461 20.1482132,17.6138582 C19.4374644,18.218921 18.6139434,18.6771469 17.7251278,18.9621146 C16.8363122,19.2470822 15.899867,19.3531732 14.96985,19.2742124 C14.039833,19.1952515 13.1346685,18.9328586 12.306592,18.5021171 C11.4785661,18.0713756 10.7440784,17.4808902 10.1454945,16.7646749 C9.54696123,16.0485102 9.09622644,15.2208386 8.81930672,14.3294922 C8.75036784,14.1147795 8.59892499,13.9362065 8.39833409,13.8331019 C8.19774319,13.7300479 7.9644544,13.7108644 7.74969104,13.7798033 C7.53497829,13.8487422 7.35640531,14.000185 7.2533513,14.2007759 C7.15024666,14.4013668 7.13106323,14.6347062 7.20000211,14.849419 C7.92745416,17.0417465 9.49067633,18.8584532 11.5499852,19.9046843 C13.6093446,20.9509154 15.9983656,21.142193 18.1979311,20.4369107 C20.3974967,19.7316285 22.2298437,18.1867799 23.2967767,16.1381004 C24.3637098,14.0894209 24.5790299,11.7024246 23.895968,9.49587404 L23.895968,9.49587404 Z" id="路径" fill="#D3EBFF"></path>
            <path d="M9.56715699,2.4137447 C11.3463067,1.8610745 13.2716858,2.03334073 14.9244475,2.89307749 C16.5772093,3.75278895 17.8236264,5.2304702 18.3924481,7.00450769 C18.9612698,8.77854518 18.8064864,10.7054428 17.9618078,12.3659487 C17.1171293,14.0264547 15.6508366,15.2861838 13.8820632,15.8711014 C13.7736945,15.903445 13.6728676,15.9570979 13.5854539,16.0288712 C13.4980908,16.1006952 13.4258619,16.1891719 13.3731201,16.2892395 C13.3203277,16.3892566 13.2880853,16.4987895 13.2781646,16.6114605 C13.2682439,16.7241315 13.2809485,16.8376631 13.3154179,16.9453737 C13.349938,17.0530844 13.4055649,17.1527978 13.4791098,17.2387436 C13.5526042,17.3246895 13.6425486,17.3950962 13.7436286,17.445864 C13.844658,17.4966318 13.9548489,17.5266976 14.0677224,17.5343406 C14.1805453,17.5419836 14.2937731,17.5270519 14.4007752,17.490406 C16.6152724,16.7805177 18.4570846,15.2199275 19.5209807,13.1520646 C20.5848768,11.0841511 20.7837468,8.67832565 20.0738078,6.4638284 C19.3638689,4.24933115 17.8033294,2.40756956 15.7354158,1.34364816 C13.6675529,0.279747015 11.2617275,0.0808821145 9.04723022,0.790805867 C8.83251748,0.859754877 8.6539445,1.01118253 8.55083987,1.21177344 C8.44778585,1.41236434 8.42860241,1.64568856 8.4975413,1.86042155 C8.56648019,2.07515961 8.71792303,2.25370728 8.91851393,2.35680179 C9.11910484,2.45985581 9.35244424,2.47903924 9.56715699,2.41010035 L9.56715699,2.4137447 Z" id="路径" fill="#D3EBFF"></path>
            <path d="M10.4958073,12.4672312 C10.4958073,12.7003175 10.541716,12.9311261 10.6309012,13.1464463 C10.7200865,13.3617664 10.8508274,13.5573969 11.0156329,13.7222024 C11.1804383,13.8870078 11.3760688,14.0177488 11.591389,14.106934 C11.8067597,14.1961193 12.0375177,14.2420279 12.2706041,14.2420279 C12.5036398,14.2420279 12.7344484,14.1961193 12.9497685,14.106934 C13.1650886,14.0177488 13.3607698,13.8870078 13.5255752,13.7222024 C13.6903807,13.5573969 13.8211216,13.3617664 13.9103069,13.1464463 C13.9994921,12.9311261 14.0454008,12.7003175 14.0454008,12.4672312 C14.0454008,11.9965537 13.8584256,11.5451103 13.5255752,11.21226 C13.1927249,10.8794603 12.7412815,10.6924345 12.2706041,10.6924345 C11.799876,10.6924345 11.3484832,10.8794603 11.0156329,11.21226 C10.6827825,11.5451103 10.4958073,11.9965537 10.4958073,12.4672312 Z" id="路径" fill="#FFC303"></path>
        </g>
    </g>
</svg>