<?xml version="1.0" encoding="UTF-8"?>
<svg width="24px" height="24px" viewBox="0 0 24 24" version="1.1" xmlns="http://www.w3.org/2000/svg" xmlns:xlink="http://www.w3.org/1999/xlink">
    <title>雷雨</title>
    <g id="页面-2" stroke="none" stroke-width="1" fill="none" fill-rule="evenodd">
        <g id="雷雨" fill-rule="nonzero">
            <g id="duoyun" transform="translate(0.500000, 1.375000)">
                <path d="M16.7535691,7.3195245 L18.0238482,7.3195245 C20.084523,7.3195245 21.75,8.96325648 21.75,10.9722622 C21.75,12.995317 20.084523,14.625 18.0238482,14.625 L4.96820247,14.625 L4.96820247,14.610951 C2.18770279,14.4564121 0,12.1945245 0,9.44092219 C0,7.20713256 1.43964958,5.31051873 3.45798183,4.57997118 C4.36129137,1.91066282 6.93007787,0 9.95051914,0 C13.7331278,0 16.7959117,3.00648415 16.7959117,6.70136888 C16.7817975,6.91210375 16.7676833,7.12283862 16.7535691,7.3195245 L16.7535691,7.3195245 Z" id="路径" fill="#D3EBFF" transform="translate(10.875000, 7.312500) scale(-1, 1) translate(-10.875000, -7.312500) "></path>
                <polygon id="路径" fill="#FFC303" points="12.5454545 15 11.1818182 16.3636364 13 16.3636364 8 20 9.70454545 17.2727273 8 17.2727273 10.2727273 15"></polygon>
            </g>
        </g>
    </g>
</svg>