<?xml version="1.0" encoding="UTF-8"?>
<svg width="24px" height="24px" viewBox="0 0 24 24" version="1.1" xmlns="http://www.w3.org/2000/svg" xmlns:xlink="http://www.w3.org/1999/xlink">
    <title>龙卷风</title>
    <g id="页面-2" stroke="none" stroke-width="1" fill="none" fill-rule="evenodd">
        <g id="龙卷风" fill-rule="nonzero">
            <g id="duoyun" transform="translate(0.500000, 1.375000)">
                <path d="M16.7535691,7.3195245 L18.0238482,7.3195245 C20.084523,7.3195245 21.75,8.96325648 21.75,10.9722622 C21.75,12.995317 20.084523,14.625 18.0238482,14.625 L4.96820247,14.625 L4.96820247,14.610951 C2.18770279,14.4564121 0,12.1945245 0,9.44092219 C0,7.20713256 1.43964958,5.31051873 3.45798183,4.57997118 C4.36129137,1.91066282 6.93007787,0 9.95051914,0 C13.7331278,0 16.7959117,3.00648415 16.7959117,6.70136888 C16.7817975,6.91210375 16.7676833,7.12283862 16.7535691,7.3195245 L16.7535691,7.3195245 Z" id="路径" fill="#D3EBFF"></path>
                <path d="M6.56508868,12.1738554 L12.7627332,12.1738554 C13.0404026,12.1738554 13.3266517,12.1551361 13.6035412,12.1738554 C13.8822756,12.1818535 14.1048056,12.4088013 14.1073233,12.6876391 C14.109841,12.9664769 13.8914454,13.197406 13.6129009,13.210436 C12.6402778,13.288433 11.6341161,13.210436 10.6591531,13.210436 C9.58357398,13.210436 8.08525091,12.9421262 7.41681631,14.0177053 C6.87551688,14.894392 7.28110147,16.0744872 8.22564558,16.4590126 C8.68270821,16.6454255 9.22400764,16.5861477 9.70758926,16.5861477 L11.609157,16.5861477 C11.9991422,16.5861477 12.5700805,16.5471492 12.5700805,17.104828 C12.5700805,17.7787224 11.6660948,17.6235083 11.2339913,17.6235083 C10.5476173,17.6235083 9.85188378,17.5579908 9.29654488,18.051712 C8.60107132,18.6820581 8.5482933,19.7568572 9.17876936,20.4523308 C9.22751751,20.5060188 9.27964554,20.5567169 9.33476343,20.6037751 C9.78948615,20.9805007 10.3066065,21 10.8580455,21 L14.714999,21 C15.4676704,21 15.4692303,19.8300445 14.714999,19.8300445 L11.6972937,19.8300445 C11.2800095,19.8300445 10.8518058,19.8581234 10.4345216,19.8300445 C9.75360751,19.7840262 9.73722814,18.8480618 10.4204822,18.7934638 C10.9235631,18.7529054 11.4422433,18.7981437 11.9468842,18.7934638 C12.8415102,18.7848842 13.6230405,18.2155058 13.7267765,17.288901 C13.8398722,16.2749396 13.0411826,15.4551907 12.0514002,15.4169722 C11.6107169,15.3998128 11.1661338,15.4169722 10.7254506,15.4169722 L8.98767662,15.4169722 C8.80282364,15.4169722 8.63357008,15.4052726 8.49239544,15.2609781 C8.38372803,15.1509968 8.32959401,14.9983888 8.34466496,14.8445144 C8.35973592,14.6906399 8.442451,14.5514354 8.57039248,14.4646283 C8.8223229,14.2953748 9.29186506,14.3764917 9.5749943,14.3764917 L13.2088762,14.3764917 C13.7470558,14.3764917 14.2540365,14.3460728 14.6908199,13.9802667 C15.4043628,13.3717599 15.4895096,12.3000806 14.8811327,11.5865377 C14.8228326,11.5181626 14.759195,11.454525 14.6908199,11.3962249 C14.2891352,11.0631776 13.820373,11 13.3235319,11 L6.56508868,11 C5.81241728,11 5.81085734,12.1699555 6.56508868,12.1699555 L6.56508868,12.1738554 L6.56508868,12.1738554 Z" id="路径" fill="#FFCD00"></path>
            </g>
        </g>
    </g>
</svg>