<?xml version="1.0" encoding="UTF-8"?>
<svg width="124px" height="136px" viewBox="0 0 124 136" version="1.1" xmlns="http://www.w3.org/2000/svg" xmlns:xlink="http://www.w3.org/1999/xlink">
    <title>编组 3</title>
    <defs>
        <filter x="-19.5%" y="-33.4%" width="138.9%" height="166.8%" filterUnits="objectBoundingBox" id="filter-1">
            <feGaussianBlur stdDeviation="5" in="SourceGraphic"></feGaussianBlur>
        </filter>
        <linearGradient x1="100%" y1="50%" x2="0%" y2="50%" id="linearGradient-2">
            <stop stop-color="#70B5FF" offset="0%"></stop>
            <stop stop-color="#579AFF" offset="50.0606641%"></stop>
            <stop stop-color="#70B5FF" offset="50.0834516%"></stop>
            <stop stop-color="#518BFF" offset="100%"></stop>
        </linearGradient>
        <filter x="-47.7%" y="-81.7%" width="195.3%" height="263.4%" filterUnits="objectBoundingBox" id="filter-3">
            <feGaussianBlur stdDeviation="10" in="SourceGraphic"></feGaussianBlur>
        </filter>
        <polygon id="path-4" points="51.375 1.28342246 95.8670551 26.9518717 95.8670551 78.2887701 51.375 103.957219 6.88294488 78.2887701 6.88294488 26.9518717"></polygon>
        <mask id="mask-5" maskContentUnits="userSpaceOnUse" maskUnits="objectBoundingBox" x="0" y="0" width="102.75" height="102.673797" fill="white">
            <use xlink:href="#path-4"></use>
        </mask>
        <linearGradient x1="50%" y1="0%" x2="50%" y2="100%" id="linearGradient-6">
            <stop stop-color="#61E4FF" stop-opacity="0.45" offset="0%"></stop>
            <stop stop-color="#32C5FF" stop-opacity="0.75" offset="100%"></stop>
        </linearGradient>
        <linearGradient x1="100%" y1="0%" x2="-2.19268986%" y2="0%" id="linearGradient-7">
            <stop stop-color="#E2E2E2" offset="0%"></stop>
            <stop stop-color="#FFFFFF" offset="48.2526997%"></stop>
            <stop stop-color="#E2E2E2" offset="100%"></stop>
        </linearGradient>
        <linearGradient x1="50%" y1="0%" x2="50%" y2="100%" id="linearGradient-8">
            <stop stop-color="#FFFFFF" offset="0%"></stop>
            <stop stop-color="#3D7EFF" offset="100%"></stop>
        </linearGradient>
    </defs>
    <g id="页面-1" stroke="none" stroke-width="1" fill="none" fill-rule="evenodd">
        <g id="1、效率分析" transform="translate(-336.000000, -682.000000)">
            <g id="编组-26" transform="translate(240.000000, 180.500000)">
                <g id="编组-3" transform="translate(107.000000, 502.000000)">
                    <polygon id="矩形" fill="#0091FF" opacity="0.149618459" filter="url(#filter-1)" points="51.375 75.0802139 89.90625 97.675653 51.375 120 12.84375 97.675653"></polygon>
                    <polygon id="矩形" fill="url(#linearGradient-2)" points="0.461069881 81.4973262 102.28893 81.4973262 102.28893 84.0641711 51.375 113.582888 0.461069881 84.0641711"></polygon>
                    <polygon id="矩形" fill="#3D7EFF" points="51.5561176 51.3368984 102.470048 81.2140709 51.5561176 110.732787 0.6421875 81.2140709"></polygon>
                    <polygon id="矩形" fill="#2D5FBE" filter="url(#filter-3)" points="51.375 62.8877005 82.8421875 81.353189 51.375 99.5971349 19.9078125 81.353189"></polygon>
                    <line x1="51.6960938" y1="1.60427807" x2="51.6960938" y2="94.6524064" id="直线" stroke="#3D7EFF" opacity="0.15" stroke-linecap="square" stroke-dasharray="2,3"></line>
                    <use id="多边形" stroke="#3D7EFF" mask="url(#mask-5)" stroke-width="2" stroke-dasharray="2,3" xlink:href="#path-4"></use>
                    <path d="M51.375,25.6039812 L74.7894796,39.1123116 L74.7894796,66.1283301 L51.375,79.6366605 L27.9605204,66.1283301 L27.9605204,39.1123116 L51.375,25.6039812 Z" id="多边形" stroke="#32C5FF" fill="url(#linearGradient-6)"></path>
                    <path d="M57.0404052,42.5656679 C57.8575619,42.1117677 58.5261447,42.4084816 58.5261447,43.2250323 L58.5261447,53.5284171 C58.5261447,54.3449678 57.8575619,55.3844277 57.0404052,55.838328 L56.1712476,56.3211128 C56.1712476,57.1896258 55.4655214,58.2794102 54.6037925,58.7580687 L47.5762448,62.6616112 C46.7070872,63.144396 46.0087897,62.8270716 46.0087897,61.9659818 L45.1544895,62.4405139 C44.3373328,62.8944142 43.66875,62.5977002 43.66875,61.7811495 L43.66875,51.4777647 C43.66875,50.661214 44.3373328,49.6217541 45.1544895,49.1678539 L57.0404052,42.5656679 Z M45.5704965,49.6865193 C44.9539146,50.0290077 44.4561919,50.8028279 44.4561919,51.4189525 L44.4561919,60.9057866 C44.4561919,61.5219112 44.9539146,61.7427983 45.5704965,61.4003099 L56.6392555,55.2520243 C57.2558374,54.9095359 57.7535601,54.1357157 57.7535601,53.5195911 L57.7531474,53.5272436 L57.7461314,53.5311407 L57.7461314,44.0368833 C57.7461314,43.4207587 57.2484087,43.1998717 56.6318268,43.5423601 L45.5704965,49.6865193 Z M56.2158198,51.6197462 C56.6318268,51.3886697 56.9661182,51.5370267 56.9661182,51.945302 L56.9661182,53.5784034 C56.9661182,53.9866787 56.6318268,54.5064086 56.2232485,54.7333588 L45.9865036,60.4194914 C45.5779252,60.6464415 45.2436338,60.4980846 45.2436338,60.0898092 L45.2436338,58.4567079 C45.2436338,58.0484325 45.5779252,57.5287026 45.9865036,57.3017525 L56.2158198,51.6197462 Z M49.5225635,56.1170369 C49.31456,56.2325751 49.1511286,56.4866653 49.1511286,56.6945146 L49.1511286,57.5184885 C49.1511286,57.7263377 49.31456,57.7988678 49.5225635,57.6833295 L50.3397202,57.2294293 C50.5477237,57.113891 50.7111551,56.8598008 50.7111551,56.6519516 L50.7185838,56.6478252 L50.7185838,55.8238513 C50.7185838,55.6160021 50.5551524,55.543472 50.3471489,55.6590102 L49.5225635,56.1170369 Z M51.8551745,54.8213579 C51.6471709,54.9368962 51.4837396,55.1909864 51.4837396,55.3988356 L51.4837396,56.2228095 C51.4837396,56.4306587 51.6471709,56.5031888 51.8551745,56.3876506 L55.8072414,54.1924237 C56.015245,54.0768855 56.1786763,53.8227953 56.1786763,53.614946 L56.1786763,52.7909722 C56.1786763,52.5831229 56.015245,52.5105928 55.8072414,52.6261311 L51.8551745,54.8213579 Z M46.7962316,57.6314133 C46.3653671,57.8707425 46.0162184,58.4135716 46.0162184,58.8441165 C46.0162184,59.2746614 46.3653671,59.429612 46.7962316,59.1902828 C47.227096,58.9509535 47.5762448,58.4081245 47.5762448,57.9775796 C47.5762448,57.5470347 47.227096,57.392084 46.7962316,57.6314133 Z M56.2158198,44.5825641 C56.6318268,44.3514875 56.9661182,44.4998445 56.9661182,44.915543 L56.9661182,49.6663833 C56.9661182,50.0746587 56.6318268,50.5943886 56.2232485,50.8213387 L45.9865036,56.5074714 C45.5779252,56.7344215 45.2436338,56.5860645 45.2436338,56.1777892 L45.2436338,51.4195257 C45.2436338,51.0112504 45.5779252,50.4915205 45.9865036,50.2645703 L56.2158198,44.5825641 Z M51.1271621,48.9902639 L50.443722,52.3911271 L50.7482986,52.296178 L51.4168813,48.9035675 L51.1271621,48.9902639 Z M50.295148,49.8013068 L49.3814182,50.3088498 C48.6088337,50.7379919 48.2373989,51.3525856 48.2373989,52.161713 C48.2373989,52.9708405 48.6162624,53.1686712 49.3814182,52.7436555 L50.295148,52.2361124 L50.295148,51.8872226 L49.3814182,52.3947656 C49.1436999,52.5268093 48.9654112,52.5738798 48.846552,52.5434002 C48.6608346,52.5203652 48.5716902,52.3249164 48.5716902,51.9686034 C48.5716902,51.6048672 48.6608346,51.3103856 48.846552,51.073609 C48.9579825,50.9226353 49.1362712,50.7790634 49.3814182,50.6428933 L50.295148,50.1353502 L50.295148,49.8013068 Z M56.4683955,46.3722965 L55.5546657,46.8798395 C54.7895099,47.3048552 54.4106463,47.9235752 54.4106463,48.7327027 C54.4106463,49.5418302 54.7895099,49.7396609 55.5546657,49.3146451 L56.4683955,48.8071021 L56.4683955,48.4582123 L55.5546657,48.9657553 C55.3169474,49.097799 55.1386587,49.1448695 55.0197995,49.1143899 C54.8340821,49.0913549 54.7449377,48.8959061 54.7449377,48.5395931 C54.7449377,48.1758568 54.8340821,47.8813753 55.0197995,47.6445987 C55.13123,47.493625 55.3095187,47.3500531 55.5546657,47.213883 L56.4683955,46.7063399 L56.4683955,46.3722965 Z M45.7339279,52.3200493 L45.7339279,54.7622781 L46.8482325,54.1433232 C47.6133883,53.7183074 47.9922518,53.0921642 47.9922518,52.2830367 C47.9922518,51.4739093 47.6133883,51.2760786 46.8482325,51.7010943 L45.7339279,52.3200493 Z M52.5609007,48.5279187 L51.5431692,51.5354597 L51.9294614,51.3208887 L52.159751,50.6139627 L53.5563461,49.8382058 L53.8163505,50.2727917 L54.1803567,50.0705997 L53.2814843,48.4913974 C53.2294835,48.3866646 53.1700539,48.3305973 53.1106243,48.3116459 C53.043766,48.2893977 52.947193,48.3133477 52.8209051,48.3834959 L52.5609007,48.5279187 Z M46.8482325,52.042561 C47.1008082,51.9022645 47.2790969,51.8477709 47.3979561,51.8708272 C47.5762448,51.9054118 47.6653892,52.1082838 47.6653892,52.4497505 C47.6653892,52.8134867 47.5762448,53.1005451 47.4053848,53.3216457 C47.2790969,53.4957186 47.1008082,53.6392905 46.8556612,53.7754606 L46.0830766,54.2046027 L46.0830766,52.4675767 L46.8482325,52.042561 Z M52.8209051,48.7175394 C52.8654773,48.6927812 52.9100495,48.6977157 52.9323356,48.7521453 L53.4003435,49.5685465 L52.3008963,50.1792487 L52.7911903,48.7340448 L52.8209051,48.7175394 Z" id="形状结合" fill="#FFFFFF" fill-rule="nonzero"></path>
                    <path d="M95.8670551,28.8770053 L51.375,54.5454545 L6.88294488,28.8770053" id="多边形" stroke="url(#linearGradient-7)" stroke-dasharray="2,3"></path>
                    <line x1="51.6960938" y1="54.2245989" x2="51.6960937" y2="96.5775401" id="直线" stroke="url(#linearGradient-8)" stroke-linecap="square" stroke-dasharray="2,3"></line>
                    <rect id="矩形" stroke="#3D7EFF" fill="#FFFFFF" x="50.590625" y="0.5" width="2.2109375" height="2.20855615"></rect>
                    <rect id="矩形" stroke="#3D7EFF" fill="#FFFFFF" x="50.590625" y="53.1203209" width="2.2109375" height="2.20855615"></rect>
                    <rect id="矩形" stroke="#3D7EFF" fill="#FFFFFF" x="6.2796875" y="26.1684492" width="2.2109375" height="2.20855615"></rect>
                    <rect id="矩形" stroke="#3D7EFF" fill="#FFFFFF" x="94.259375" y="26.1684492" width="2.2109375" height="2.20855615"></rect>
                </g>
            </g>
        </g>
    </g>
</svg>