<?xml version="1.0" encoding="UTF-8"?>
<svg width="124px" height="136px" viewBox="0 0 124 136" version="1.1" xmlns="http://www.w3.org/2000/svg" xmlns:xlink="http://www.w3.org/1999/xlink">
    <title>编组 3</title>
    <defs>
        <filter x="-19.5%" y="-33.4%" width="138.9%" height="166.8%" filterUnits="objectBoundingBox" id="filter-1">
            <feGaussianBlur stdDeviation="5" in="SourceGraphic"></feGaussianBlur>
        </filter>
        <linearGradient x1="100%" y1="50%" x2="0%" y2="50%" id="linearGradient-2">
            <stop stop-color="#70B5FF" offset="0%"></stop>
            <stop stop-color="#579AFF" offset="50.0606641%"></stop>
            <stop stop-color="#70B5FF" offset="50.0834516%"></stop>
            <stop stop-color="#518BFF" offset="100%"></stop>
        </linearGradient>
        <filter x="-47.7%" y="-81.7%" width="195.3%" height="263.4%" filterUnits="objectBoundingBox" id="filter-3">
            <feGaussianBlur stdDeviation="10" in="SourceGraphic"></feGaussianBlur>
        </filter>
        <polygon id="path-4" points="51.375 1.28342246 95.8670551 26.9518717 95.8670551 78.2887701 51.375 103.957219 6.88294488 78.2887701 6.88294488 26.9518717"></polygon>
        <mask id="mask-5" maskContentUnits="userSpaceOnUse" maskUnits="objectBoundingBox" x="0" y="0" width="102.75" height="102.673797" fill="white">
            <use xlink:href="#path-4"></use>
        </mask>
        <linearGradient x1="50%" y1="0%" x2="50%" y2="100%" id="linearGradient-6">
            <stop stop-color="#61E4FF" stop-opacity="0.45" offset="0%"></stop>
            <stop stop-color="#32C5FF" stop-opacity="0.75" offset="100%"></stop>
        </linearGradient>
        <linearGradient x1="100%" y1="0%" x2="-2.19268986%" y2="0%" id="linearGradient-7">
            <stop stop-color="#E2E2E2" offset="0%"></stop>
            <stop stop-color="#FFFFFF" offset="48.2526997%"></stop>
            <stop stop-color="#E2E2E2" offset="100%"></stop>
        </linearGradient>
        <linearGradient x1="50%" y1="0%" x2="50%" y2="100%" id="linearGradient-8">
            <stop stop-color="#FFFFFF" offset="0%"></stop>
            <stop stop-color="#3D7EFF" offset="100%"></stop>
        </linearGradient>
    </defs>
    <g id="页面-1" stroke="none" stroke-width="1" fill="none" fill-rule="evenodd">
        <g id="1、效率分析" transform="translate(-336.000000, -273.000000)">
            <g id="编组-26" transform="translate(240.000000, 180.500000)">
                <g id="编组-3" transform="translate(107.000000, 93.000000)">
                    <polygon id="矩形" fill="#0091FF" opacity="0.149618459" filter="url(#filter-1)" points="51.375 75.0802139 89.90625 97.675653 51.375 120 12.84375 97.675653"></polygon>
                    <polygon id="矩形" fill="url(#linearGradient-2)" points="0.461069881 81.4973262 102.28893 81.4973262 102.28893 84.0641711 51.375 113.582888 0.461069881 84.0641711"></polygon>
                    <polygon id="矩形" fill="#3D7EFF" points="51.5561176 51.3368984 102.470048 81.2140709 51.5561176 110.732787 0.6421875 81.2140709"></polygon>
                    <polygon id="矩形" fill="#2D5FBE" filter="url(#filter-3)" points="51.375 62.8877005 82.8421875 81.353189 51.375 99.5971349 19.9078125 81.353189"></polygon>
                    <line x1="51.6960938" y1="1.60427807" x2="51.6960938" y2="94.6524064" id="直线" stroke="#3D7EFF" opacity="0.15" stroke-linecap="square" stroke-dasharray="2,3"></line>
                    <use id="多边形" stroke="#3D7EFF" mask="url(#mask-5)" stroke-width="2" stroke-dasharray="2,3" xlink:href="#path-4"></use>
                    <g id="电脑" transform="translate(45.749588, 10.909091)">
                        <path d="M0.5,0.853528392 L42.372287,24.328246 L42.372287,69.4837641 L0.5,44.1092309 L0.5,0.853528392 Z" id="矩形" stroke="#32C5FF" fill="url(#linearGradient-6)"></path>
                        <path d="M21.6337672,40.8174538 L21.6337672,42.1001428 L23.5577833,43.256071 C23.7386206,43.3647161 23.8969503,43.6842545 23.8969503,43.9416723 C23.8920619,44.2013137 23.7430374,44.3230078 23.5577833,44.2186378 L16.7659057,40.1381509 C16.5803485,40.0203168 16.4308691,39.7191235 16.4259625,39.4531833 C16.4259625,39.1957654 16.5850683,39.0669389 16.7659057,39.175584 L18.463293,40.1953561 L18.463293,38.912667 L15.0685184,36.8731229 C14.8186715,36.7218074 14.6164626,36.3132212 14.616037,35.9588324 L14.616037,25.3705971 C14.616037,25.0185726 14.8201581,24.8518863 15.0685184,25.0010985 L25.0293179,30.9854397 C25.2776782,31.1346518 25.4817993,31.5466057 25.4817993,31.8986301 L25.4817993,42.4868655 C25.4817993,42.83999 25.2784543,43.0071426 25.0293179,42.8574641 L21.6337672,40.8174538 Z M24.8026892,31.8118504 L15.2951471,26.0998214 L15.2951471,35.4042676 L24.8026892,41.1162965 L24.8026892,31.8118504 Z M24.123579,39.7457276 L15.9742573,34.8497028 L15.9742573,27.4703903 L24.123579,32.3664152 L24.123579,39.7457276 Z" id="形状" fill="#FFFFFF" fill-rule="nonzero"></path>
                    </g>
                    <g id="照明" transform="translate(36.116776, 15.401070)">
                        <path d="M0.5,0.853528392 L42.372287,24.328246 L42.372287,69.4837641 L0.5,44.1092309 L0.5,0.853528392 Z" id="矩形" stroke="#32C5FF" fill="url(#linearGradient-6)"></path>
                        <path d="M21.2666641,27.90563 C24.7088335,30.147193 27.3412262,35.3423188 27.3437668,39.899018 C27.3439982,40.1117917 27.2800661,40.2820797 27.1660521,40.3723711 C27.052038,40.4626624 26.8972949,40.4655502 26.7359093,40.3803982 L24.2496895,39.0674162 C23.9580574,41.2276977 22.4388561,42.1222165 20.6584426,41.1819734 C18.878029,40.2417303 17.3588277,37.7426197 17.0671956,35.2743142 L14.5817065,33.9617181 C14.4203387,33.876346 14.2656295,33.7100108 14.151628,33.4993202 C14.0376265,33.2886296 13.9736757,33.0508508 13.9738495,32.838315 C13.9765267,28.2844408 16.6088478,25.8697336 20.0509516,27.2636076 L20.0509516,25.6191618 C20.0509516,25.1768106 20.3230981,24.9619357 20.6588079,25.1392253 C20.9945176,25.3165149 21.2666641,25.818833 21.2666641,26.2611842 L21.2666641,27.90563 Z M23.0142509,38.4154578 L18.304826,35.9283928 C18.581888,37.4897721 19.5497245,38.9903991 20.6588079,39.5782334 C21.7680121,40.1611359 22.7359626,39.6833025 23.0142509,38.4154578 Z M20.6588079,41.9849272 C20.8201346,42.0700732 20.9748564,42.236257 21.0888768,42.4468562 C21.2028972,42.6574553 21.2668581,42.8951851 21.266665,43.1076565 L21.266665,43.9106259 C21.266665,44.3529771 20.9945176,44.5678518 20.6588079,44.3905622 C20.3230981,44.2132726 20.0509507,43.7109543 20.0509507,43.2686031 L20.0509507,42.4656337 C20.0507576,42.2529579 20.1147185,42.0827841 20.2287389,41.9926141 C20.3427593,41.9024442 20.4974811,41.8996787 20.6588079,41.9849272 Z M19.0434591,41.6131943 C19.0427852,41.615318 19.041797,41.6171073 19.0405367,41.618486 L18.7709466,42.1956196 C18.7001661,42.3486304 18.5748633,42.4279775 18.4226258,42.4161914 C18.2703883,42.4044054 18.1036978,42.3024524 17.9592539,42.1327791 C17.958348,42.1315412 17.9573638,42.1304378 17.9563315,42.129503 C17.6557857,41.7726049 17.5333247,41.2269452 17.6823579,40.9087355 L17.9526786,40.3320839 C18.0240533,40.1794138 18.1499953,40.1008218 18.3026983,40.1136601 C18.4554013,40.1264985 18.6223063,40.2297111 18.766563,40.4005102 C19.066825,40.7536275 19.1904337,41.2959806 19.0434591,41.6131943 Z M16.4198872,37.3746849 C16.5470378,37.313227 16.7078186,37.3415337 16.8667051,37.4533506 C17.0255915,37.5651676 17.1695052,37.7512908 17.2666485,37.9705964 L17.271032,37.9795539 C17.474069,38.439222 17.4220843,38.9143043 17.1548672,39.0411701 L16.6704818,39.2690136 C16.5426174,39.3298216 16.3812625,39.3006532 16.2220024,39.1879412 C16.0627422,39.0752292 15.9186589,38.888232 15.8215287,38.6681901 C15.8213169,38.6668915 15.8208008,38.6655648 15.8200675,38.6644342 C15.617014,38.205752 15.6679815,37.7310079 15.9340405,37.6028156 C15.9347711,37.6032014 15.9347711,37.6025276 15.9355017,37.6025283 L16.4198872,37.3746849 Z M23.6330661,44.0541186 C23.7310211,44.3623207 23.7172546,44.6609999 23.5969865,44.8369093 C23.4767183,45.0128188 23.268363,45.0390244 23.0509203,44.9055902 C22.8334776,44.772156 22.6402408,44.4995124 22.5444773,44.1910346 L22.2748872,43.3291579 C22.1760539,43.0204186 22.1891813,42.7206814 22.3092816,42.5438333 C22.4293819,42.3669852 22.6380201,42.340172 22.8559226,42.4735816 C23.0738252,42.6069911 23.2675446,42.8801454 23.363476,43.1892576 L23.6330661,44.0541186 Z M24.8977286,41.8518648 L25.382114,42.5890093 C25.5105913,42.7854335 25.5949658,43.020639 25.6166219,43.2427321 C25.6382781,43.4648251 25.5954361,43.6555539 25.4975483,43.7728377 C25.4006751,43.8913793 25.256433,43.9269816 25.0967954,43.8717528 C24.9371577,43.816524 24.7753121,43.6750266 24.647134,43.4786255 L24.1627485,42.7390743 C23.8960877,42.3305115 23.8441309,41.8014966 24.0465837,41.5563041 C24.1440395,41.4372644 24.2878722,41.4018665 24.4470327,41.4568733 C24.6061932,41.5118802 24.7675806,41.652764 24.8955368,41.8483969 L24.8977286,41.8518648 Z" id="形状" fill="#FFFFFF" fill-rule="nonzero"></path>
                    </g>
                    <g id="空调" transform="translate(26.483963, 20.534759)">
                        <path d="M0.5,0.853528392 L42.372287,24.328246 L42.372287,69.4837641 L0.5,44.1092309 L0.5,0.853528392 Z" id="矩形" stroke="#32C5FF" fill="url(#linearGradient-6)"></path>
                        <path d="M26.892783,43.661002 L26.892783,40.747665 L13.6177089,33.1249471 L13.6177089,36.0382841 C13.0283044,35.6964442 12.4640747,35.0636064 12.0491469,34.2789912 C11.6342191,33.494376 11.4025828,32.6222567 11.4050527,31.8544628 L11.4050527,24.7379633 C11.4012732,23.9653697 11.6323302,23.3572842 12.0473996,23.0478738 C12.4624691,22.7384633 13.0274478,22.7531498 13.6177089,23.0886936 L26.892783,30.7114114 C27.4830442,31.0537388 28.0480229,31.6878883 28.4630923,32.4739751 C28.8781617,33.260062 29.1092188,34.1334993 29.1054392,34.9016498 L29.1054392,42.0181492 C29.1079091,42.7888823 28.8762728,43.3949845 28.461345,43.703086 C28.0464172,44.0111874 27.4821875,43.9960493 26.892783,43.661002 Z M25.7865268,43.0257755 L14.7239651,36.6735106 L14.7239651,35.2168421 L25.7865268,41.569107 L25.7865268,43.0257755 Z M16.9364775,42.3203861 L15.8302213,41.6851596 L14.7239651,38.1622643 L15.8302213,38.7974908 L16.9364775,42.3203861 Z M18.0427336,40.0679438 L19.1489898,43.6229243 L18.0427336,42.9876978 L16.9364775,39.4327173 L18.0427336,40.0679438 Z M20.255246,41.3383967 L21.3615021,44.8933773 L20.255246,44.2581508 L19.1489898,40.7031703 L20.255246,41.3383967 Z M22.4677583,42.6088497 L23.5740145,46.1638303 L22.4677583,45.5286038 L21.3615021,41.9736232 L22.4677583,42.6088497 Z M24.6802707,43.8793027 L25.7865268,47.4342833 L24.6802707,46.7990568 L23.5740145,43.2440762 L24.6802707,43.8793027 Z" id="形状" fill="#FFFFFF" fill-rule="nonzero"></path>
                    </g>
                    <g id="摄像头" transform="translate(16.208963, 25.668449)">
                        <path d="M0.5,0.853528392 L42.372287,24.328246 L42.372287,69.4837641 L0.5,44.1092309 L0.5,0.853528392 Z" id="矩形" stroke="#32C5FF" fill="url(#linearGradient-6)"></path>
                        <path d="M14.3132157,34.0221386 C14.2279753,33.9630173 14.1398885,33.9495487 14.0738772,33.9855435 C14.0078658,34.0215382 13.9711101,34.1030811 13.9740089,34.2071017 L13.9740089,41.7606025 L15.5026229,41.8130677 L15.5026229,39.37965 C15.5026229,39.1866993 15.6300074,39.0900738 15.7865083,39.1629103 L17.826844,40.1124947 C17.9183045,40.1540182 18.0037069,40.1405067 18.0561361,40.0762184 L19.1312613,38.7745668 C19.1796048,38.7154526 19.1968809,38.6216632 19.1789033,38.5159261 C19.1609257,38.4101891 19.1093349,38.3021541 19.0366328,38.218001 L17.8596,36.8889252 C17.7848858,36.8047172 17.695176,36.7566491 17.6160352,36.7584189 C17.5368943,36.7601886 17.4770019,36.8116021 17.4534255,36.8980081 L17.1549818,37.878052 C17.1186897,38.0024719 17.0090019,38.0484244 16.8841988,37.9914935 L15.7865083,37.4806219 C15.709669,37.4432752 15.6365103,37.3715777 15.5831324,37.281308 C15.5297545,37.1910382 15.5005317,37.0895937 15.501895,36.9992995 L15.501895,35.1473179 C15.5033788,34.9839221 15.4073349,34.7964342 15.271875,34.6982946 L14.3132157,34.0221386 Z M28.4041247,40.5723791 L17.523305,26.6791662 L16.8710963,25.9259805 C16.7442226,25.7796729 16.581907,25.7481954 16.4998615,25.8539879 L14.0373372,28.933878 C13.9918558,28.9908782 13.9745803,29.0792348 13.9893352,29.1793864 C14.0040902,29.2795381 14.0496585,29.3832228 14.1159517,29.4674858 L14.4456955,29.8793666 L24.3256371,41.9078727 C24.7242286,42.1892669 25.1386331,42.2820023 25.4735534,42.1647532 L28.4048526,41.1550153 C28.4847131,41.1253407 28.5321899,41.0388839 28.5321899,40.9231301 C28.5321899,40.8073763 28.4847131,40.6767275 28.4048526,40.5727178 L28.4041247,40.5723791 Z M14.6291292,32.0639373 C14.5361174,32.1760377 14.562365,32.4026467 14.6888179,32.5792618 L14.7062878,32.6020359 L24.5658479,44.8010861 C24.688137,44.9527528 24.8475496,44.99938 24.9436339,44.9131674 L26.2145672,43.7698343 C26.3175509,43.6748811 26.3144293,43.4621328 26.2072881,43.2737333 L26.1774437,43.2202198 C26.0748985,43.0376989 25.9010298,42.940865 25.7821878,43.0000871 L24.9043267,43.4244863 C24.8050846,43.4729977 24.6650616,43.4141358 24.5600246,43.279751 L15.4334713,31.6578665 C15.3073483,31.4966778 15.1349512,31.4537807 15.0476783,31.5618707 L14.6291292,32.0639373 Z" id="形状" fill="#FFFFFF" fill-rule="nonzero"></path>
                    </g>
                    <path d="M95.8670551,28.8770053 L51.375,54.5454545 L6.88294488,28.8770053" id="多边形" stroke="url(#linearGradient-7)" stroke-dasharray="2,3"></path>
                    <line x1="51.6960938" y1="54.2245989" x2="51.6960937" y2="96.5775401" id="直线" stroke="url(#linearGradient-8)" stroke-linecap="square" stroke-dasharray="2,3"></line>
                    <rect id="矩形" stroke="#3D7EFF" fill="#FFFFFF" x="50.590625" y="0.5" width="2.2109375" height="2.20855615"></rect>
                    <rect id="矩形" stroke="#3D7EFF" fill="#FFFFFF" x="50.590625" y="53.1203209" width="2.2109375" height="2.20855615"></rect>
                    <rect id="矩形" stroke="#3D7EFF" fill="#FFFFFF" x="6.2796875" y="26.1684492" width="2.2109375" height="2.20855615"></rect>
                    <rect id="矩形" stroke="#3D7EFF" fill="#FFFFFF" x="94.259375" y="26.1684492" width="2.2109375" height="2.20855615"></rect>
                </g>
            </g>
        </g>
    </g>
</svg>