<?xml version="1.0" encoding="UTF-8"?>
<svg width="124px" height="136px" viewBox="0 0 124 136" version="1.1" xmlns="http://www.w3.org/2000/svg" xmlns:xlink="http://www.w3.org/1999/xlink">
    <title>编组 3</title>
    <defs>
        <filter x="-19.5%" y="-33.4%" width="138.9%" height="166.8%" filterUnits="objectBoundingBox" id="filter-1">
            <feGaussianBlur stdDeviation="5" in="SourceGraphic"></feGaussianBlur>
        </filter>
        <linearGradient x1="100%" y1="50%" x2="0%" y2="50%" id="linearGradient-2">
            <stop stop-color="#70B5FF" offset="0%"></stop>
            <stop stop-color="#579AFF" offset="50.0606641%"></stop>
            <stop stop-color="#70B5FF" offset="50.0834516%"></stop>
            <stop stop-color="#518BFF" offset="100%"></stop>
        </linearGradient>
        <filter x="-47.7%" y="-81.7%" width="195.3%" height="263.4%" filterUnits="objectBoundingBox" id="filter-3">
            <feGaussianBlur stdDeviation="10" in="SourceGraphic"></feGaussianBlur>
        </filter>
        <polygon id="path-4" points="51.375 1.28342246 95.8670551 26.9518717 95.8670551 78.2887701 51.375 103.957219 6.88294488 78.2887701 6.88294488 26.9518717"></polygon>
        <mask id="mask-5" maskContentUnits="userSpaceOnUse" maskUnits="objectBoundingBox" x="0" y="0" width="102.75" height="102.673797" fill="white">
            <use xlink:href="#path-4"></use>
        </mask>
        <linearGradient x1="50%" y1="0%" x2="50%" y2="100%" id="linearGradient-6">
            <stop stop-color="#61E4FF" stop-opacity="0.45" offset="0%"></stop>
            <stop stop-color="#32C5FF" stop-opacity="0.75" offset="100%"></stop>
        </linearGradient>
        <linearGradient x1="100%" y1="0%" x2="-2.19268986%" y2="0%" id="linearGradient-7">
            <stop stop-color="#E2E2E2" offset="0%"></stop>
            <stop stop-color="#FFFFFF" offset="48.2526997%"></stop>
            <stop stop-color="#E2E2E2" offset="100%"></stop>
        </linearGradient>
        <linearGradient x1="50%" y1="0%" x2="50%" y2="100%" id="linearGradient-8">
            <stop stop-color="#FFFFFF" offset="0%"></stop>
            <stop stop-color="#3D7EFF" offset="100%"></stop>
        </linearGradient>
    </defs>
    <g id="页面-1" stroke="none" stroke-width="1" fill="none" fill-rule="evenodd">
        <g id="1、效率分析" transform="translate(-336.000000, -478.000000)">
            <g id="编组-26" transform="translate(240.000000, 180.500000)">
                <g id="编组-3" transform="translate(107.000000, 298.000000)">
                    <polygon id="矩形" fill="#0091FF" opacity="0.149618459" filter="url(#filter-1)" points="51.375 75.0802139 89.90625 97.675653 51.375 120 12.84375 97.675653"></polygon>
                    <polygon id="矩形" fill="url(#linearGradient-2)" points="0.461069881 81.4973262 102.28893 81.4973262 102.28893 84.0641711 51.375 113.582888 0.461069881 84.0641711"></polygon>
                    <polygon id="矩形" fill="#3D7EFF" points="51.5561176 51.3368984 102.470048 81.2140709 51.5561176 110.732787 0.6421875 81.2140709"></polygon>
                    <polygon id="矩形" fill="#2D5FBE" filter="url(#filter-3)" points="51.375 62.8877005 82.8421875 81.353189 51.375 99.5971349 19.9078125 81.353189"></polygon>
                    <line x1="51.6960938" y1="1.60427807" x2="51.6960938" y2="94.6524064" id="直线" stroke="#3D7EFF" opacity="0.15" stroke-linecap="square" stroke-dasharray="2,3"></line>
                    <use id="多边形" stroke="#3D7EFF" mask="url(#mask-5)" stroke-width="2" stroke-dasharray="2,3" xlink:href="#path-4"></use>
                    <path d="M51.375,25.6039812 L74.7894796,39.1123116 L74.7894796,66.1283301 L51.375,79.6366605 L27.9605204,66.1283301 L27.9605204,39.1123116 L51.375,25.6039812 Z" id="多边形" stroke="#32C5FF" fill="url(#linearGradient-6)"></path>
                    <path d="M55.9498153,41.0804507 C56.0139934,41.1068889 56.0497986,41.1786749 56.0495028,41.2803143 L56.0490212,42.3152606 L56.5912827,41.9260049 C56.8787873,41.7196234 57.1542523,41.650145 57.35748,41.7325752 C57.5607076,41.8150054 57.6748426,42.0422843 57.6748426,42.3647987 L57.6748426,44.9779103 L58.3702473,44.7102307 C58.6004436,44.6216242 58.7584025,44.7455974 58.7584025,45.0148916 L58.7584025,49.5199812 C58.7584025,49.738184 58.6538992,50.0154372 58.4848638,50.2448141 L57.6748426,51.3441102 L57.6748426,54.3271022 C57.6748426,54.6496166 57.5607076,55.0407563 57.35748,55.4149554 C57.1542523,55.7886223 56.8787873,56.1151543 56.5912827,56.3215358 L56.0490212,56.7102593 L56.0495028,57.3182204 C56.0495028,57.7242905 55.8689095,58.0561639 55.5077229,58.3154372 L53.8823831,59.4821671 C53.5211964,59.7414404 53.3406031,59.6683081 53.3406031,59.2627702 L53.3401215,58.654809 L49.7287369,61.2471964 L49.7287369,61.8555032 C49.7287369,62.2610411 49.5481436,62.5934467 49.1869569,62.85272 L47.5616171,64.0194499 C47.2004305,64.2787232 47.0198372,64.2055909 47.0198372,63.800053 L47.0198372,63.1917462 L46.4780573,63.5806561 C46.1905527,63.7870377 45.9150877,63.8570483 45.71186,63.7740859 C45.508233,63.6907898 45.3942694,63.463952 45.3944974,63.1423946 L45.3944974,60.1599348 L44.5844762,60.2230337 C44.4342225,60.2345628 44.3350166,60.1360041 44.3147902,59.9599951 L44.3109375,59.8909134 L44.3109375,55.3858238 C44.3109375,55.1165296 44.4688964,54.7657787 44.6990927,54.5238981 L45.3944974,53.7921383 L45.3944974,51.1800911 C45.3944974,50.5084522 45.8794506,49.615892 46.4780573,49.1861897 L47.0193556,48.7970932 L47.0198372,47.7621469 C47.0198372,47.6604963 47.0554743,47.5369895 47.1190431,47.4195102 C47.1825073,47.3020862 47.2694493,47.1990192 47.3603158,47.1334888 C47.4508532,47.0684976 47.537538,47.0472516 47.6015884,47.073121 C47.6657665,47.0995593 47.7015717,47.1713452 47.701276,47.2729846 L47.7007944,48.3079309 L49.8033821,46.7986146 L49.8033821,45.764014 C49.8033821,45.6623634 49.8390192,45.5388566 49.9030696,45.4210315 C49.9664169,45.3038229 50.0531615,45.2009087 50.1438607,45.1353559 C50.2343982,45.0703647 50.3215645,45.0487729 50.3851334,45.0749881 C50.4491353,45.1016384 50.4847638,45.1735409 50.4843393,45.2751974 L50.4843393,46.309798 L52.5845191,44.8022101 L52.5845191,43.7676095 C52.5845191,43.6659589 52.6201562,43.5424522 52.6842066,43.4246271 C52.7475539,43.3074185 52.8342985,43.2045043 52.9249977,43.1389514 C53.0160168,43.0736145 53.1027015,43.0523685 53.1662704,43.0785837 C53.2304484,43.1050219 53.2662537,43.1768078 53.2659579,43.2784472 L53.2654763,44.3133935 L55.3680641,42.8040772 L55.3680641,41.7694766 C55.3680641,41.667826 55.4037011,41.5443192 55.4677516,41.4264942 C55.5310988,41.3092856 55.6178434,41.2063713 55.7085426,41.1408185 C55.7995617,41.0754816 55.8862465,41.0542356 55.9498153,41.0804507 Z M56.0360185,45.5236604 C55.9394586,45.5938183 55.847157,45.7032767 55.7794208,45.8279542 C55.7116845,45.9526317 55.6740625,46.0823145 55.6748319,46.1884716 L55.6748319,53.552018 C55.6748319,53.6595228 55.7128769,53.7354598 55.78078,53.7633535 C55.8482015,53.7905285 55.9401837,53.7670764 56.0360185,53.6982825 L56.1005505,53.6519591 C56.196867,53.5828195 56.2883676,53.4745608 56.3557891,53.3500582 C56.4238015,53.2246882 56.4618546,53.0943428 56.4617372,52.9871479 L56.4617372,45.6241337 C56.4625065,45.516872 56.4248846,45.4412021 56.3571483,45.4137719 C56.289412,45.3863417 56.1971105,45.4093983 56.1005505,45.4778691 L56.0360185,45.5236604 Z M46.9692711,52.0321118 C46.8727111,52.1022697 46.7804096,52.2117281 46.7126733,52.3364056 C46.644937,52.4610831 46.607315,52.5907658 46.6080844,52.696923 L46.6080844,60.0604693 C46.6080844,60.1679741 46.6461294,60.2439112 46.7140325,60.2718049 C46.781454,60.2989799 46.8729546,60.2758734 46.9692711,60.2067339 L47.0338031,60.1604104 C47.1296379,60.0916166 47.2216201,59.9830121 47.2890416,59.8585096 C47.357054,59.7331396 47.3951071,59.6027941 47.3949897,59.4955992 L47.3949897,52.1325851 C47.3957591,52.0253233 47.3581371,51.9496535 47.2904008,51.9222233 C47.2226645,51.8947931 47.130363,51.9178497 47.0338031,51.9863205 L46.9692711,52.0321118 Z M51.3054369,49.4532479 C51.0222666,49.6565182 50.8710498,49.8970533 50.8036283,50.1306573 L50.7939966,50.1663102 L49.3675502,54.2536214 C49.3248421,54.3785369 49.3268229,54.4885582 49.3728477,54.5478518 C49.411977,54.6002273 49.4839436,54.6031083 49.5659621,54.5555825 L49.5934123,54.5374744 L51.0078191,53.5221601 L50.2310271,56.9408883 C50.1924579,57.1032671 50.2421788,57.2139548 50.3514226,57.2089104 C50.4498143,57.2041669 50.5766129,57.0930962 50.6543378,56.9435683 L50.6716748,56.9082385 L53.8245932,50.2095843 C53.8890214,50.0717677 53.9027117,49.9386566 53.8602303,49.8630849 C53.8240076,49.7945186 53.7445114,49.7858982 53.6521868,49.840525 L53.6276261,49.8570912 L52.0528524,50.9875228 L52.841684,48.800715 C52.8865234,48.6744668 52.8859816,48.5622828 52.8402393,48.5015901 C52.7970067,48.4408632 52.7113609,48.4445707 52.6177483,48.5112215 L51.3054369,49.4532479 Z" id="形状" fill="#FFFFFF" fill-rule="nonzero"></path>
                    <path d="M95.8670551,28.8770053 L51.375,54.5454545 L6.88294488,28.8770053" id="多边形" stroke="url(#linearGradient-7)" stroke-dasharray="2,3"></path>
                    <line x1="51.6960938" y1="54.2245989" x2="51.6960937" y2="96.5775401" id="直线" stroke="url(#linearGradient-8)" stroke-linecap="square" stroke-dasharray="2,3"></line>
                    <rect id="矩形" stroke="#3D7EFF" fill="#FFFFFF" x="50.590625" y="0.5" width="2.2109375" height="2.20855615"></rect>
                    <rect id="矩形" stroke="#3D7EFF" fill="#FFFFFF" x="50.590625" y="53.1203209" width="2.2109375" height="2.20855615"></rect>
                    <rect id="矩形" stroke="#3D7EFF" fill="#FFFFFF" x="6.2796875" y="26.1684492" width="2.2109375" height="2.20855615"></rect>
                    <rect id="矩形" stroke="#3D7EFF" fill="#FFFFFF" x="94.259375" y="26.1684492" width="2.2109375" height="2.20855615"></rect>
                </g>
            </g>
        </g>
    </g>
</svg>