<?xml version="1.0" encoding="UTF-8"?>
<svg width="36px" height="36px" viewBox="0 0 36 36" version="1.1" xmlns="http://www.w3.org/2000/svg" xmlns:xlink="http://www.w3.org/1999/xlink">
    <title>故障</title>
    <g id="页面-1" stroke="none" stroke-width="1" fill="none" fill-rule="evenodd">
        <g id="2、异常级别配置-运营商管理员" transform="translate(-240.000000, -742.000000)" fill="#F5222D">
            <g id="编组-10" transform="translate(224.000000, 726.000000)">
                <g id="故障" transform="translate(16.000000, 16.000000)">
                    <circle id="椭圆形" fill-opacity="0.1" cx="18" cy="18" r="18"></circle>
                    <path d="M19.5322793,10.7996368 L24.192768,20.622513 L24.212,20.683 L25.4833649,21.2678115 C25.7701642,21.4112111 25.9135638,21.6263106 25.9135638,21.9131099 C25.9135638,22.1999092 25.7701642,22.4150087 25.4833649,22.5584083 L18.6001816,25.9283002 C18.5284817,26 18.4567819,26 18.3133823,26 C18.1699826,26 18.0982828,26 18.026583,25.9283002 L11.430199,22.701808 C11.1433996,22.5584083 11,22.3433089 11,22.0565096 C11,21.7697102 11.1433996,21.5546108 11.3584991,21.4112111 L12.813,20.642 L16.8793857,10.8713367 C17.0048604,10.5576499 17.1852303,10.3537536 17.4685286,10.2116143 L17.596384,10.1543384 C18.3133823,9.79583929 19.1737802,10.0826386 19.5322793,10.7996368 Z M18.2416824,22.3433089 C16.81823,22.3433089 15.4852087,22.0720156 14.2785249,21.529429 L13.3660943,21.9848097 L18.3850821,24.4226038 L23.5474696,21.9131099 L22.38884,21.3990244 C21.1507089,22.0547994 19.768323,22.3433089 18.2416824,22.3433089 Z M18.3850821,19.5470156 C17.1722758,19.5470156 16.0990251,19.3144229 15.1278604,18.886707 L14.6536352,20.0460795 C14.6808366,20.0618971 14.7072527,20.0795157 14.7327226,20.0988549 C15.7984742,20.5920505 16.9955221,20.8376125 18.2416824,20.8376125 C19.7406595,20.8376125 21.1101405,20.5138724 22.2270672,19.8048631 L21.7739966,18.8700372 C20.768338,19.2928159 19.65297,19.5470156 18.3850821,19.5470156 Z M18.2416824,16.7507224 C17.4873601,16.7507224 16.7799957,16.6098486 16.1575912,16.3661027 L15.646682,17.614135 C16.4283839,17.980124 17.3555843,18.1847189 18.3850821,18.1847189 C19.4288963,18.1847189 20.3675482,17.9743941 21.1560092,17.598773 L20.5181442,16.2822573 C19.8566052,16.5945674 19.0881826,16.7507224 18.2416824,16.7507224 Z M18.1699826,11.4449353 L16.7009405,15.0360416 C17.1448596,15.1995274 17.6705217,15.2450261 18.2416824,15.2450261 C18.8569415,15.2450261 19.3988733,15.1350352 19.8674778,14.9412711 L18.1699826,11.4449353 Z" id="形状结合" fill-rule="nonzero"></path>
                </g>
            </g>
        </g>
    </g>
</svg>