<?xml version="1.0" encoding="UTF-8"?>
<svg width="36px" height="36px" viewBox="0 0 36 36" version="1.1" xmlns="http://www.w3.org/2000/svg" xmlns:xlink="http://www.w3.org/1999/xlink">
    <title>通知</title>
    <g id="页面-1" stroke="none" stroke-width="1" fill="none" fill-rule="evenodd">
        <g id="2、异常级别配置-运营商管理员" transform="translate(-240.000000, -138.000000)" fill="#3D7EFF">
            <g id="编组-10" transform="translate(224.000000, 122.000000)">
                <g id="通知" transform="translate(16.000000, 16.000000)">
                    <circle id="椭圆形" fill-opacity="0.1" cx="18" cy="18" r="18"></circle>
                    <path d="M18.7657622,11 C19.408689,11 20.0101996,11.5147209 20.0311031,12.2644806 L20.0311031,12.2644806 L20.0311031,23.7259384 C20.0101996,24.479979 19.4057586,25 18.7573618,25 C18.5181894,25 18.2839119,24.9292857 18.0816147,24.7961501 L18.0816147,24.7961501 L13.8192702,22.0119689 L11.4065854,22.0119689 C10.6297497,22.0119689 10,21.3548488 10,20.54425 L10,20.54425 L10,15.5906986 C10,14.7800998 10.6297497,14.1229797 11.4065854,14.1229797 L11.4065854,14.1229797 L13.8192702,14.1229797 L18.073605,11.2177116 C18.2788948,11.0759374 18.5195829,11.0002312 18.7657622,11 Z M18.7657622,12.1415592 C18.732397,12.1419138 18.6999139,12.1527857 18.672576,12.1727482 L18.672576,12.1727482 L14.4190226,15.0780162 L14.1455198,15.2645389 L11.4065854,15.2645389 C11.2339553,15.2645389 11.0940109,15.4105656 11.0940109,15.5906986 L11.0940109,15.5906986 L11.0940109,20.54425 C11.0940109,20.724383 11.2339553,20.8704097 11.4065854,20.8704097 L11.4065854,20.8704097 L14.1334076,20.8704097 L14.399682,21.0442937 L18.6624173,23.8286788 C18.6905966,23.8483293 18.7236656,23.8589575 18.7575572,23.8592562 C18.8030758,23.8592562 18.9339664,23.8288826 18.9376782,23.6937302 L18.9376782,23.6937302 L18.9374829,12.2985235 C18.9387931,12.2585554 18.9227068,12.2201138 18.8937224,12.1939486 C18.8584472,12.1610772 18.8130479,12.1424898 18.7657622,12.1415592 Z M23.0552617,13.0843647 C23.2799247,12.8827572 23.6348921,12.9838667 23.8607272,13.1848627 C26.6969505,15.9095198 26.7289894,20.2476484 23.8613133,22.8369492 C23.6354782,23.0391683 23.2810968,23.1062349 23.0552617,22.9040158 C22.9480275,22.8067977 22.8864473,22.6658474 22.8864473,22.5176185 C22.8864473,22.3693895 22.9480275,22.2284392 23.0552617,22.1312211 C25.5363221,19.8444334 25.5363221,16.1445587 23.0552617,13.857771 C22.9479434,13.7604755 22.886315,13.6194139 22.886315,13.4710679 C22.886315,13.3227219 22.9479434,13.1816603 23.0552617,13.0843647 Z M21.6689936,15.3042896 C21.8656404,15.1022197 22.181305,15.1022197 22.3779518,15.3042896 C23.9568439,16.7840356 23.9568439,19.2389994 22.3779518,20.7189493 C22.181219,20.9208002 21.8657264,20.9208002 21.6689936,20.7189493 C21.4751974,20.5177495 21.4751974,20.2480561 21.6689936,20.0462448 C22.8292313,18.9026471 22.8292313,17.0865488 21.6689936,15.9769941 C21.4751974,15.7749789 21.4751974,15.5056932 21.6689936,15.3042896 Z" id="形状结合" stroke="#3D7EFF" stroke-width="0.4" fill-rule="nonzero"></path>
                </g>
            </g>
        </g>
    </g>
</svg>