<?xml version="1.0" encoding="UTF-8"?>
<svg width="36px" height="36px" viewBox="0 0 36 36" version="1.1" xmlns="http://www.w3.org/2000/svg" xmlns:xlink="http://www.w3.org/1999/xlink">
    <title>告警</title>
    <g id="页面-1" stroke="none" stroke-width="1" fill="none" fill-rule="evenodd">
        <g id="2、异常级别配置-运营商管理员" transform="translate(-240.000000, -440.000000)" fill="#FAAD14">
            <g id="编组-10" transform="translate(224.000000, 424.000000)">
                <g id="告警" transform="translate(16.000000, 16.000000)">
                    <circle id="椭圆形" fill-opacity="0.1" cx="18" cy="18" r="18"></circle>
                    <path d="M17.9998142,13.5460093 C18.3311089,13.5460093 18.5996763,13.2767463 18.5996763,12.9445936 L18.5996763,10.6014157 C18.5996763,10.3865506 18.4853432,10.188007 18.2997453,10.0805744 C18.1141473,9.97314186 17.8854811,9.97314186 17.6998831,10.0805744 C17.5142851,10.188007 17.399952,10.3865506 17.399952,10.6014157 L17.399952,12.9445936 C17.4004882,13.2765234 17.6687418,13.5454718 17.9998142,13.5460093 L17.9998142,13.5460093 Z M21.8570446,15.7788626 C21.9368089,15.9163912 22.0678286,16.016491 22.2212466,16.057115 C22.2720872,16.0706387 22.3244555,16.0775299 22.377055,16.0776178 C22.482101,16.0775835 22.5852594,16.0496215 22.6760123,15.9965829 L24.6995732,14.8249939 C24.9853569,14.6598598 25.0845406,14.2943718 24.9216001,14.0068343 C24.7550766,13.719962 24.388714,13.6218087 24.1016587,13.7871614 L22.0780977,14.9587503 C21.7919642,15.1246285 21.6931944,15.4910668 21.8570446,15.7788626 L21.8570446,15.7788626 Z M20.2268998,14.1435197 C20.5136622,14.3087844 20.8797236,14.2105952 21.0458674,13.9238467 L22.21443,11.8950452 C22.3215851,11.7089566 22.3215798,11.4796891 22.2144162,11.2936055 C22.1072526,11.1075219 21.9092114,10.9928977 21.6948928,10.9928977 C21.4805741,10.9928977 21.2825381,11.107541 21.1753831,11.2936295 L20.0068205,13.3234074 C19.841572,13.6110924 19.9400788,13.9786092 20.2268998,14.144496 L20.2268998,14.1435197 Z M22.9360174,22.1689041 L22.2475393,22.1689041 L22.2475393,18.7566512 C22.2454084,16.4080789 20.3500974,14.5030587 18.0076046,14.4949964 L18.0017618,14.4949964 C15.659992,14.5030376 13.7639044,16.404908 13.7569581,18.7527459 L13.7569581,22.1698804 L13.0645847,22.1698804 C12.0264603,22.1933825 11.1971161,23.0438619 11.1971161,24.0849402 C11.1971161,25.1260185 12.0264603,25.9764979 13.0645847,26 L22.9360174,26 C23.9741419,25.9764979 24.803486,25.1260185 24.803486,24.0849402 C24.803486,23.0438619 23.9741419,22.1933825 22.9360174,22.1698804 L22.9360174,22.1689041 Z M18.000788,15.7007567 C19.6804755,15.7071897 21.0400884,17.0716319 21.0448936,18.7556749 L21.0448936,22.1728094 L14.9518133,22.1728094 L14.9518133,18.7556749 C14.960344,17.0712844 16.3207434,15.7082331 18.000788,15.7007567 L18.000788,15.7007567 Z M22.9360174,24.7961923 L13.0645847,24.7961923 C12.8045142,24.8058479 12.5599695,24.6722492 12.4270743,24.4479102 C12.2941791,24.2235712 12.2941791,23.9443565 12.4270743,23.7200175 C12.5599695,23.4956785 12.8045142,23.3620799 13.0645847,23.3717354 L22.9360174,23.3717354 C23.3181247,23.3859218 23.6205869,23.7006045 23.6205869,24.0839639 C23.6205869,24.4673233 23.3181247,24.782006 22.9360174,24.7961923 L22.9360174,24.7961923 Z M14.9537609,13.9238467 C15.0575615,14.1162487 15.257373,14.2369742 15.4755417,14.2391337 C15.6937103,14.241236 15.8958298,14.1244361 16.0033493,13.9340982 C16.1108688,13.7437602 16.1068321,13.5099013 15.9928079,13.3234074 L14.8242452,11.2946058 C14.7170902,11.1085173 14.5190542,10.993874 14.3047356,10.993874 C14.0904169,10.993874 13.8923757,11.1084983 13.7852121,11.2945819 C13.6780485,11.4806655 13.6780433,11.709933 13.7851983,11.8960215 L14.9537609,13.9238467 Z M11.3000551,14.8259702 L13.3236161,15.9975592 C13.4146224,16.0498721 13.5176703,16.0774676 13.6225734,16.0776178 C13.6754931,16.0775271 13.7281831,16.0706367 13.7793555,16.057115 C14.0133623,15.9938461 14.1864032,15.7956108 14.2179328,15.5546817 C14.2494625,15.3137525 14.1332852,15.0774719 13.9234782,14.9558214 L11.8999173,13.7842324 C11.6129924,13.618156 11.2461101,13.7167255 11.0804628,14.0043935 C10.9148154,14.2920614 11.0131303,14.6598939 11.3000551,14.8259702 L11.3000551,14.8259702 Z" id="形状" fill-rule="nonzero"></path>
                </g>
            </g>
        </g>
    </g>
</svg>