<?xml version="1.0" encoding="UTF-8"?>
<svg width="20px" height="20px" viewBox="0 0 20 20" version="1.1" xmlns="http://www.w3.org/2000/svg" xmlns:xlink="http://www.w3.org/1999/xlink">
    <title>ios</title>
    <g id="页面-1" stroke="none" stroke-width="1" fill="none" fill-rule="evenodd">
        <g id="登录页" transform="translate(-1416.000000, -965.000000)" fill-rule="nonzero">
            <g id="登录-点击验证" transform="translate(1201.000000, 0.000000)">
                <g id="编组-10" transform="translate(100.000000, 899.000000)">
                    <g id="编组-9" transform="translate(90.000000, 41.000000)">
                        <g id="ios" transform="translate(25.000000, 25.000000)">
                            <path d="M0,10 C0,15.5228475 4.4771525,20 10,20 C15.5228475,20 20,15.5228475 20,10 C20,4.4771525 15.5228475,0 10,0 C4.4771525,0 0,4.4771525 0,10 L0,10 Z" id="路径" fill="#6B798E"></path>
                            <path d="M13.5697941,9.49656751 C13.5697941,8.59267735 14.0389016,7.80320366 14.7368421,7.34553776 C14.1990847,6.57894737 13.2951945,6.07551487 12.2883295,6.07551487 C11.4530892,6.07551487 10.8695652,6.75057208 10.1487414,6.76201373 C9.42791762,6.77345538 8.84439359,6.07551487 8.00915332,6.07551487 C6.35011442,6.07551487 5.01144165,7.41418764 5.01144165,9.07322654 C5.01144165,12.0594966 6.78489703,15.5034325 8.44393593,15.5034325 C9.2791762,15.5034325 9.35926773,15.0228833 10.1601831,15.0343249 C10.9610984,15.0343249 11.0297483,15.5034325 11.8764302,15.5034325 C13.0434783,15.5034325 14.2677346,13.798627 14.8855835,11.7391304 C14.0961098,11.2929062 13.5697941,10.4576659 13.5697941,9.49656751 M12.7116705,3.50114416 C11.2929062,3.50114416 10.1372998,4.65675057 10.1372998,6.07551487 C11.5675057,6.07551487 12.7116705,4.91990847 12.7116705,3.50114416" id="形状" fill="#FFFFFF"></path>
                        </g>
                    </g>
                </g>
            </g>
        </g>
    </g>
</svg>